<mxfile host="Electron" agent="Mozilla/5.0 (Windows NT 10.0; Win64; x64) AppleWebKit/537.36 (KHTML, like Gecko) draw.io/25.0.2 Chrome/128.0.6613.186 Electron/32.2.5 Safari/537.36" version="25.0.2" pages="2">
  <diagram id="QQUyxBPOz_dQ4TGG0ydn" name="第 1 页">
    <mxGraphModel dx="1247" dy="727" grid="1" gridSize="10" guides="1" tooltips="1" connect="1" arrows="1" fold="1" page="1" pageScale="1" pageWidth="1169" pageHeight="827" math="0" shadow="0">
      <root>
        <mxCell id="0" />
        <mxCell id="1" parent="0" />
        <mxCell id="3OM55Z72-CLRfWCX4Hlg-46" value="" style="group;dashed=1;" parent="1" vertex="1" connectable="0">
          <mxGeometry x="353" y="399" width="450" height="261" as="geometry" />
        </mxCell>
        <mxCell id="3OM55Z72-CLRfWCX4Hlg-34" style="edgeStyle=orthogonalEdgeStyle;rounded=0;orthogonalLoop=1;jettySize=auto;html=1;exitX=0;exitY=0.5;exitDx=0;exitDy=0;entryX=0;entryY=0.5;entryDx=0;entryDy=0;" parent="3OM55Z72-CLRfWCX4Hlg-46" source="AxnHTcRbgYz9WPQpLdVK-1" target="AxnHTcRbgYz9WPQpLdVK-66" edge="1">
          <mxGeometry relative="1" as="geometry">
            <Array as="points">
              <mxPoint x="9.245283018867894" y="130.5" />
              <mxPoint x="9.245283018867894" y="72.49999999999999" />
            </Array>
          </mxGeometry>
        </mxCell>
        <mxCell id="AxnHTcRbgYz9WPQpLdVK-1" value="" style="rounded=1;whiteSpace=wrap;html=1;movable=1;resizable=1;rotatable=1;deletable=1;editable=1;locked=0;connectable=1;dashed=1;dashPattern=8 8;" parent="3OM55Z72-CLRfWCX4Hlg-46" vertex="1">
          <mxGeometry width="450" height="261" as="geometry" />
        </mxCell>
        <mxCell id="AxnHTcRbgYz9WPQpLdVK-44" value="&lt;font style=&quot;font-size: 14px;&quot; face=&quot;Times New Roman&quot;&gt;Dual-channel Mixing Block&lt;/font&gt;" style="text;html=1;align=center;verticalAlign=middle;whiteSpace=wrap;rounded=0;" parent="3OM55Z72-CLRfWCX4Hlg-46" vertex="1">
          <mxGeometry x="129.52999999999997" width="180.47" height="21.752718750000003" as="geometry" />
        </mxCell>
        <mxCell id="AxnHTcRbgYz9WPQpLdVK-66" value="" style="rounded=1;whiteSpace=wrap;html=1;movable=1;resizable=1;rotatable=1;deletable=1;editable=1;locked=0;connectable=1;" parent="3OM55Z72-CLRfWCX4Hlg-46" vertex="1">
          <mxGeometry x="28.490566037735846" y="30.739456419868812" width="356.0377358490566" height="84.36627272727272" as="geometry" />
        </mxCell>
        <mxCell id="AxnHTcRbgYz9WPQpLdVK-67" value="&lt;font face=&quot;Times New Roman&quot;&gt;&lt;b&gt;Time domain&lt;/b&gt;&lt;/font&gt;" style="text;html=1;align=center;verticalAlign=middle;whiteSpace=wrap;rounded=0;movable=1;resizable=1;rotatable=1;deletable=1;editable=1;locked=0;connectable=1;" parent="3OM55Z72-CLRfWCX4Hlg-46" vertex="1">
          <mxGeometry x="259.433962264151" y="57.999252577319595" width="115.47169811320754" height="21.750000000000004" as="geometry" />
        </mxCell>
        <mxCell id="AxnHTcRbgYz9WPQpLdVK-76" value="" style="group;movable=1;resizable=1;rotatable=1;deletable=1;editable=1;locked=0;connectable=1;" parent="3OM55Z72-CLRfWCX4Hlg-46" vertex="1" connectable="0">
          <mxGeometry x="41" y="50.74999999999996" width="19.245283018867923" height="36.25000000000001" as="geometry" />
        </mxCell>
        <mxCell id="AxnHTcRbgYz9WPQpLdVK-68" value="" style="rounded=0;whiteSpace=wrap;html=1;movable=1;resizable=1;rotatable=1;deletable=1;editable=1;locked=0;connectable=1;" parent="AxnHTcRbgYz9WPQpLdVK-76" vertex="1">
          <mxGeometry width="9.622641509433961" height="36.25000000000001" as="geometry" />
        </mxCell>
        <mxCell id="AxnHTcRbgYz9WPQpLdVK-69" value="" style="rounded=0;whiteSpace=wrap;html=1;movable=1;resizable=1;rotatable=1;deletable=1;editable=1;locked=0;connectable=1;" parent="AxnHTcRbgYz9WPQpLdVK-76" vertex="1">
          <mxGeometry x="4.811320754716981" width="14.433962264150942" height="36.25000000000001" as="geometry" />
        </mxCell>
        <mxCell id="AxnHTcRbgYz9WPQpLdVK-70" value="" style="rounded=0;whiteSpace=wrap;html=1;movable=1;resizable=1;rotatable=1;deletable=1;editable=1;locked=0;connectable=1;" parent="AxnHTcRbgYz9WPQpLdVK-76" vertex="1">
          <mxGeometry x="9.622641509433961" width="9.622641509433961" height="36.25000000000001" as="geometry" />
        </mxCell>
        <mxCell id="AxnHTcRbgYz9WPQpLdVK-77" value="" style="group;movable=1;resizable=1;rotatable=1;deletable=1;editable=1;locked=0;connectable=1;" parent="3OM55Z72-CLRfWCX4Hlg-46" vertex="1" connectable="0">
          <mxGeometry x="134.33962264150944" y="36.250000000000014" width="19.245283018867923" height="58" as="geometry" />
        </mxCell>
        <mxCell id="AxnHTcRbgYz9WPQpLdVK-78" value="" style="rounded=0;whiteSpace=wrap;html=1;movable=1;resizable=1;rotatable=1;deletable=1;editable=1;locked=0;connectable=1;" parent="AxnHTcRbgYz9WPQpLdVK-77" vertex="1">
          <mxGeometry width="9.622641509433961" height="58" as="geometry" />
        </mxCell>
        <mxCell id="AxnHTcRbgYz9WPQpLdVK-79" value="" style="rounded=0;whiteSpace=wrap;html=1;movable=1;resizable=1;rotatable=1;deletable=1;editable=1;locked=0;connectable=1;" parent="AxnHTcRbgYz9WPQpLdVK-77" vertex="1">
          <mxGeometry x="4.811320754716981" width="14.433962264150942" height="58" as="geometry" />
        </mxCell>
        <mxCell id="AxnHTcRbgYz9WPQpLdVK-80" value="" style="rounded=0;whiteSpace=wrap;html=1;movable=1;resizable=1;rotatable=1;deletable=1;editable=1;locked=0;connectable=1;" parent="AxnHTcRbgYz9WPQpLdVK-77" vertex="1">
          <mxGeometry x="9.622641509433961" width="9.622641509433961" height="58" as="geometry" />
        </mxCell>
        <mxCell id="3OM55Z72-CLRfWCX4Hlg-4" value="" style="group;movable=1;resizable=1;rotatable=1;deletable=1;editable=1;locked=0;connectable=1;" parent="3OM55Z72-CLRfWCX4Hlg-46" vertex="1" connectable="0">
          <mxGeometry x="28.490566037735846" y="137.75000000000003" width="356.0377358490566" height="103.67499999999998" as="geometry" />
        </mxCell>
        <mxCell id="AxnHTcRbgYz9WPQpLdVK-57" value="" style="rounded=1;whiteSpace=wrap;html=1;movable=1;resizable=1;rotatable=1;deletable=1;editable=1;locked=0;connectable=1;" parent="3OM55Z72-CLRfWCX4Hlg-4" vertex="1">
          <mxGeometry width="356.0377358490566" height="103.67499999999998" as="geometry" />
        </mxCell>
        <mxCell id="AxnHTcRbgYz9WPQpLdVK-46" value="" style="rounded=1;whiteSpace=wrap;html=1;movable=1;resizable=1;rotatable=1;deletable=1;editable=1;locked=0;connectable=1;" parent="3OM55Z72-CLRfWCX4Hlg-4" vertex="1">
          <mxGeometry x="112.00943396226415" y="4.903092783505152" width="81.7924528301887" height="39.874999999999986" as="geometry" />
        </mxCell>
        <mxCell id="AxnHTcRbgYz9WPQpLdVK-48" value="&lt;font style=&quot;font-size: 8px;&quot; face=&quot;Times New Roman&quot;&gt;&lt;b&gt;Amplitude process&lt;/b&gt;&lt;/font&gt;" style="text;html=1;align=center;verticalAlign=middle;whiteSpace=wrap;rounded=0;movable=1;resizable=1;rotatable=1;deletable=1;editable=1;locked=0;connectable=1;" parent="3OM55Z72-CLRfWCX4Hlg-4" vertex="1">
          <mxGeometry x="119.22641509433963" y="5.074999999999998" width="67.35849056603774" height="9.424999999999997" as="geometry" />
        </mxCell>
        <mxCell id="AxnHTcRbgYz9WPQpLdVK-51" value="" style="rounded=1;whiteSpace=wrap;html=1;movable=1;resizable=1;rotatable=1;deletable=1;editable=1;locked=0;connectable=1;" parent="3OM55Z72-CLRfWCX4Hlg-4" vertex="1">
          <mxGeometry x="113.00943396226415" y="58.34381443298967" width="81.7924528301887" height="39.874999999999986" as="geometry" />
        </mxCell>
        <mxCell id="AxnHTcRbgYz9WPQpLdVK-52" value="&lt;font style=&quot;font-size: 8px;&quot; face=&quot;Times New Roman&quot;&gt;&lt;b&gt;Phase process&lt;/b&gt;&lt;/font&gt;" style="text;html=1;align=center;verticalAlign=middle;whiteSpace=wrap;rounded=0;movable=1;resizable=1;rotatable=1;deletable=1;editable=1;locked=0;connectable=1;" parent="3OM55Z72-CLRfWCX4Hlg-4" vertex="1">
          <mxGeometry x="120.22641509433963" y="55.824999999999996" width="67.35849056603774" height="9.424999999999997" as="geometry" />
        </mxCell>
        <mxCell id="AxnHTcRbgYz9WPQpLdVK-60" value="&lt;font face=&quot;Times New Roman&quot; style=&quot;font-size: 8px;&quot;&gt;&lt;b&gt;IFFT&lt;/b&gt;&lt;/font&gt;" style="rounded=1;whiteSpace=wrap;html=1;movable=1;resizable=1;rotatable=1;deletable=1;editable=1;locked=0;connectable=1;" parent="3OM55Z72-CLRfWCX4Hlg-4" vertex="1">
          <mxGeometry x="268.50528301886794" y="41.324999999999996" width="52.443396226415096" height="24.649999999999995" as="geometry" />
        </mxCell>
        <mxCell id="AxnHTcRbgYz9WPQpLdVK-62" value="" style="verticalLabelPosition=bottom;verticalAlign=top;html=1;shape=mxgraph.basic.layered_rect;dx=10;outlineConnect=0;whiteSpace=wrap;movable=1;resizable=1;rotatable=1;deletable=1;editable=1;locked=0;connectable=1;" parent="3OM55Z72-CLRfWCX4Hlg-4" vertex="1">
          <mxGeometry x="128.8490566037736" y="19.574999999999992" width="48.113207547169814" height="21.749999999999996" as="geometry" />
        </mxCell>
        <mxCell id="AxnHTcRbgYz9WPQpLdVK-63" value="" style="verticalLabelPosition=bottom;verticalAlign=top;html=1;shape=mxgraph.basic.layered_rect;dx=10;outlineConnect=0;whiteSpace=wrap;movable=1;resizable=1;rotatable=1;deletable=1;editable=1;locked=0;connectable=1;" parent="3OM55Z72-CLRfWCX4Hlg-4" vertex="1">
          <mxGeometry x="129.8490566037736" y="68.51249999999997" width="48.113207547169814" height="21.749999999999996" as="geometry" />
        </mxCell>
        <mxCell id="AxnHTcRbgYz9WPQpLdVK-65" value="&lt;font face=&quot;Times New Roman&quot;&gt;&lt;b&gt;Frequency domain&lt;/b&gt;&lt;/font&gt;" style="text;html=1;align=center;verticalAlign=middle;whiteSpace=wrap;rounded=0;movable=1;resizable=1;rotatable=1;deletable=1;editable=1;locked=0;connectable=1;" parent="3OM55Z72-CLRfWCX4Hlg-4" vertex="1">
          <mxGeometry x="228.5056603773585" y="5.074999999999998" width="125.09433962264151" height="21.749999999999996" as="geometry" />
        </mxCell>
        <mxCell id="Y-DCmwbjRlBoXEvh0h---46" value="&lt;font face=&quot;Times New Roman&quot; style=&quot;font-size: 8px;&quot;&gt;&lt;b&gt;IFFT&lt;/b&gt;&lt;/font&gt;" style="rounded=1;whiteSpace=wrap;html=1;movable=1;resizable=1;rotatable=1;deletable=1;editable=1;locked=0;connectable=1;" vertex="1" parent="3OM55Z72-CLRfWCX4Hlg-4">
          <mxGeometry x="21.505283018867942" y="38.76881443298971" width="52.443396226415096" height="24.649999999999995" as="geometry" />
        </mxCell>
        <mxCell id="Y-DCmwbjRlBoXEvh0h---58" value="" style="endArrow=classic;html=1;rounded=0;exitX=1;exitY=0.5;exitDx=0;exitDy=0;entryX=0;entryY=0.5;entryDx=0;entryDy=0;" edge="1" parent="3OM55Z72-CLRfWCX4Hlg-4" source="Y-DCmwbjRlBoXEvh0h---46" target="AxnHTcRbgYz9WPQpLdVK-46">
          <mxGeometry width="50" height="50" relative="1" as="geometry">
            <mxPoint x="131.50943396226415" y="-38.193298969072195" as="sourcePoint" />
            <mxPoint x="181.50943396226415" y="-83.03865979381446" as="targetPoint" />
            <Array as="points">
              <mxPoint x="91.50943396226415" y="51.497422680412335" />
              <mxPoint x="91.50943396226415" y="24.590206185566974" />
            </Array>
          </mxGeometry>
        </mxCell>
        <mxCell id="Y-DCmwbjRlBoXEvh0h---59" value="" style="endArrow=classic;html=1;rounded=0;entryX=0.002;entryY=0.532;entryDx=0;entryDy=0;entryPerimeter=0;exitX=1;exitY=0.5;exitDx=0;exitDy=0;" edge="1" parent="3OM55Z72-CLRfWCX4Hlg-4" source="Y-DCmwbjRlBoXEvh0h---46" target="AxnHTcRbgYz9WPQpLdVK-51">
          <mxGeometry width="50" height="50" relative="1" as="geometry">
            <mxPoint x="73.94943396226415" y="50.295567010309206" as="sourcePoint" />
            <mxPoint x="143.9494339622642" y="41.326494845360756" as="targetPoint" />
            <Array as="points">
              <mxPoint x="91.50943396226415" y="51.497422680412335" />
              <mxPoint x="91.50943396226415" y="78.40463917525769" />
            </Array>
          </mxGeometry>
        </mxCell>
        <mxCell id="Y-DCmwbjRlBoXEvh0h---70" style="edgeStyle=orthogonalEdgeStyle;rounded=0;orthogonalLoop=1;jettySize=auto;html=1;exitX=1;exitY=0.5;exitDx=0;exitDy=0;entryX=0;entryY=0.5;entryDx=0;entryDy=0;" edge="1" parent="3OM55Z72-CLRfWCX4Hlg-4" source="Y-DCmwbjRlBoXEvh0h---62" target="AxnHTcRbgYz9WPQpLdVK-60">
          <mxGeometry relative="1" as="geometry" />
        </mxCell>
        <mxCell id="Y-DCmwbjRlBoXEvh0h---62" value="&lt;font face=&quot;Times New Roman&quot; style=&quot;font-size: 9px;&quot;&gt;complex&lt;/font&gt;" style="rounded=1;whiteSpace=wrap;html=1;" vertex="1" parent="3OM55Z72-CLRfWCX4Hlg-4">
          <mxGeometry x="208.40943396226416" y="44.68092783505147" width="40" height="17.938144329896904" as="geometry" />
        </mxCell>
        <mxCell id="Y-DCmwbjRlBoXEvh0h---60" value="" style="endArrow=classic;html=1;rounded=0;exitX=1;exitY=0.5;exitDx=0;exitDy=0;entryX=0.5;entryY=0;entryDx=0;entryDy=0;" edge="1" parent="3OM55Z72-CLRfWCX4Hlg-4" source="AxnHTcRbgYz9WPQpLdVK-46" target="Y-DCmwbjRlBoXEvh0h---62">
          <mxGeometry width="50" height="50" relative="1" as="geometry">
            <mxPoint x="198.50943396226415" y="96.34278350515459" as="sourcePoint" />
            <mxPoint x="218.50943396226415" y="51.497422680412335" as="targetPoint" />
            <Array as="points">
              <mxPoint x="228.50943396226415" y="24.590206185566974" />
            </Array>
          </mxGeometry>
        </mxCell>
        <mxCell id="Y-DCmwbjRlBoXEvh0h---69" value="" style="endArrow=classic;html=1;rounded=0;exitX=1;exitY=0.5;exitDx=0;exitDy=0;entryX=0.5;entryY=1;entryDx=0;entryDy=0;" edge="1" parent="3OM55Z72-CLRfWCX4Hlg-4" source="AxnHTcRbgYz9WPQpLdVK-51" target="Y-DCmwbjRlBoXEvh0h---62">
          <mxGeometry width="50" height="50" relative="1" as="geometry">
            <mxPoint x="158.50943396226415" y="60.46649484536078" as="sourcePoint" />
            <mxPoint x="208.50943396226415" y="15.62113402061852" as="targetPoint" />
            <Array as="points">
              <mxPoint x="228.50943396226415" y="78.40463917525769" />
            </Array>
          </mxGeometry>
        </mxCell>
        <mxCell id="3OM55Z72-CLRfWCX4Hlg-19" value="&lt;font style=&quot;font-size: 8px;&quot; face=&quot;Times New Roman&quot;&gt;&lt;b style=&quot;&quot;&gt;Up_Conv&lt;/b&gt;&lt;/font&gt;" style="html=1;shadow=0;dashed=0;align=center;verticalAlign=middle;shape=mxgraph.arrows2.arrow;dy=0;dx=10;notch=0;movable=1;resizable=1;rotatable=1;deletable=1;editable=1;locked=0;connectable=1;" parent="3OM55Z72-CLRfWCX4Hlg-46" vertex="1">
          <mxGeometry x="72.7547169811321" y="56.18749999999998" width="50.0377358490566" height="18.125000000000004" as="geometry" />
        </mxCell>
        <mxCell id="3OM55Z72-CLRfWCX4Hlg-21" value="" style="group;movable=1;resizable=1;rotatable=1;deletable=1;editable=1;locked=0;connectable=1;" parent="3OM55Z72-CLRfWCX4Hlg-46" vertex="1" connectable="0">
          <mxGeometry x="228.16037735849056" y="50.74999999999996" width="19.245283018867923" height="36.25000000000001" as="geometry" />
        </mxCell>
        <mxCell id="3OM55Z72-CLRfWCX4Hlg-22" value="" style="rounded=0;whiteSpace=wrap;html=1;movable=1;resizable=1;rotatable=1;deletable=1;editable=1;locked=0;connectable=1;" parent="3OM55Z72-CLRfWCX4Hlg-21" vertex="1">
          <mxGeometry width="9.622641509433961" height="36.25000000000001" as="geometry" />
        </mxCell>
        <mxCell id="3OM55Z72-CLRfWCX4Hlg-23" value="" style="rounded=0;whiteSpace=wrap;html=1;movable=1;resizable=1;rotatable=1;deletable=1;editable=1;locked=0;connectable=1;" parent="3OM55Z72-CLRfWCX4Hlg-21" vertex="1">
          <mxGeometry x="4.811320754716981" width="14.433962264150942" height="36.25000000000001" as="geometry" />
        </mxCell>
        <mxCell id="3OM55Z72-CLRfWCX4Hlg-24" value="" style="rounded=0;whiteSpace=wrap;html=1;movable=1;resizable=1;rotatable=1;deletable=1;editable=1;locked=0;connectable=1;" parent="3OM55Z72-CLRfWCX4Hlg-21" vertex="1">
          <mxGeometry x="9.622641509433961" width="9.622641509433961" height="36.25000000000001" as="geometry" />
        </mxCell>
        <mxCell id="3OM55Z72-CLRfWCX4Hlg-29" value="&lt;font style=&quot;font-size: 8px;&quot; face=&quot;Times New Roman&quot;&gt;&lt;b style=&quot;line-height: 100%;&quot;&gt;Down_Conv&lt;/b&gt;&lt;/font&gt;" style="html=1;shadow=0;dashed=0;align=center;verticalAlign=middle;shape=mxgraph.arrows2.arrow;dy=0;dx=10;notch=0;movable=1;resizable=1;rotatable=1;deletable=1;editable=1;locked=0;connectable=1;" parent="3OM55Z72-CLRfWCX4Hlg-46" vertex="1">
          <mxGeometry x="166.09433962264143" y="57.99999999999998" width="50.0377358490566" height="18.125000000000004" as="geometry" />
        </mxCell>
        <mxCell id="3OM55Z72-CLRfWCX4Hlg-33" value="" style="endArrow=classic;html=1;rounded=0;entryX=0;entryY=0.5;entryDx=0;entryDy=0;exitX=0;exitY=0.5;exitDx=0;exitDy=0;" parent="3OM55Z72-CLRfWCX4Hlg-46" source="AxnHTcRbgYz9WPQpLdVK-1" target="AxnHTcRbgYz9WPQpLdVK-66" edge="1">
          <mxGeometry width="50" height="50" relative="1" as="geometry">
            <mxPoint x="259.433962264151" y="174.00000000000006" as="sourcePoint" />
            <mxPoint x="307.5471698113207" y="137.75000000000003" as="targetPoint" />
            <Array as="points">
              <mxPoint x="10" y="130.94845360824743" />
              <mxPoint x="10" y="72.64948453608247" />
            </Array>
          </mxGeometry>
        </mxCell>
        <mxCell id="3OM55Z72-CLRfWCX4Hlg-37" value="" style="endArrow=classic;html=1;rounded=0;entryX=0;entryY=0.5;entryDx=0;entryDy=0;exitX=0;exitY=0.5;exitDx=0;exitDy=0;" parent="3OM55Z72-CLRfWCX4Hlg-46" source="AxnHTcRbgYz9WPQpLdVK-1" target="3OM55Z72-CLRfWCX4Hlg-4" edge="1">
          <mxGeometry width="50" height="50" relative="1" as="geometry">
            <mxPoint x="259.433962264151" y="174.00000000000006" as="sourcePoint" />
            <mxPoint x="307.5471698113207" y="137.75000000000003" as="targetPoint" />
            <Array as="points">
              <mxPoint x="10" y="130.94845360824743" />
              <mxPoint x="10" y="189.24742268041234" />
            </Array>
          </mxGeometry>
        </mxCell>
        <mxCell id="3OM55Z72-CLRfWCX4Hlg-38" value="" style="shape=orEllipse;perimeter=ellipsePerimeter;whiteSpace=wrap;html=1;backgroundOutline=1;" parent="3OM55Z72-CLRfWCX4Hlg-46" vertex="1">
          <mxGeometry x="410" y="125.56701030927832" width="10" height="8.969072164948452" as="geometry" />
        </mxCell>
        <mxCell id="3OM55Z72-CLRfWCX4Hlg-39" value="" style="edgeStyle=segmentEdgeStyle;endArrow=classic;html=1;curved=0;rounded=0;endSize=8;startSize=8;exitX=1;exitY=0.5;exitDx=0;exitDy=0;entryX=0.5;entryY=1;entryDx=0;entryDy=0;endFill=1;" parent="3OM55Z72-CLRfWCX4Hlg-46" source="AxnHTcRbgYz9WPQpLdVK-57" target="3OM55Z72-CLRfWCX4Hlg-38" edge="1">
          <mxGeometry width="50" height="50" relative="1" as="geometry">
            <mxPoint x="388.37735849056605" y="203.00000000000003" as="sourcePoint" />
            <mxPoint x="436.4905660377358" y="166.74999999999991" as="targetPoint" />
          </mxGeometry>
        </mxCell>
        <mxCell id="3OM55Z72-CLRfWCX4Hlg-40" value="" style="edgeStyle=segmentEdgeStyle;endArrow=classic;html=1;curved=0;rounded=0;endSize=8;startSize=8;entryX=0.5;entryY=0;entryDx=0;entryDy=0;exitX=1;exitY=0.5;exitDx=0;exitDy=0;endFill=1;" parent="3OM55Z72-CLRfWCX4Hlg-46" source="AxnHTcRbgYz9WPQpLdVK-66" target="3OM55Z72-CLRfWCX4Hlg-38" edge="1">
          <mxGeometry width="50" height="50" relative="1" as="geometry">
            <mxPoint x="259.433962264151" y="79.75000000000004" as="sourcePoint" />
            <mxPoint x="307.5471698113207" y="43.499999999999986" as="targetPoint" />
          </mxGeometry>
        </mxCell>
        <mxCell id="3OM55Z72-CLRfWCX4Hlg-42" value="" style="endArrow=blockThin;html=1;rounded=0;exitX=1;exitY=0.5;exitDx=0;exitDy=0;endFill=1;" parent="3OM55Z72-CLRfWCX4Hlg-46" source="3OM55Z72-CLRfWCX4Hlg-38" edge="1">
          <mxGeometry width="50" height="50" relative="1" as="geometry">
            <mxPoint x="471.13207547169804" y="130.5" as="sourcePoint" />
            <mxPoint x="447" y="130.05154639175257" as="targetPoint" />
            <Array as="points" />
          </mxGeometry>
        </mxCell>
        <mxCell id="3OM55Z72-CLRfWCX4Hlg-50" value="" style="rounded=1;whiteSpace=wrap;html=1;dashed=1;movable=1;resizable=1;rotatable=1;deletable=1;editable=1;locked=0;connectable=1;" parent="1" vertex="1">
          <mxGeometry x="130" y="400" width="170" height="260" as="geometry" />
        </mxCell>
        <mxCell id="3OM55Z72-CLRfWCX4Hlg-51" value="&lt;font style=&quot;font-size: 14px;&quot; face=&quot;Times New Roman&quot;&gt;Score Block&lt;/font&gt;" style="text;html=1;align=center;verticalAlign=middle;whiteSpace=wrap;rounded=0;" parent="1" vertex="1">
          <mxGeometry x="175" y="396" width="80" height="30" as="geometry" />
        </mxCell>
        <mxCell id="3OM55Z72-CLRfWCX4Hlg-52" value="" style="rounded=1;whiteSpace=wrap;html=1;movable=1;resizable=1;rotatable=1;deletable=1;editable=1;locked=0;connectable=1;" parent="1" vertex="1">
          <mxGeometry x="165" y="428" width="100" height="112" as="geometry" />
        </mxCell>
        <mxCell id="3OM55Z72-CLRfWCX4Hlg-58" value="&lt;font style=&quot;font-size: 8px;&quot; face=&quot;Times New Roman&quot;&gt;&lt;span style=&quot;line-height: 100%;&quot;&gt;&lt;b&gt;Weight&lt;/b&gt;&lt;/span&gt;&lt;/font&gt;" style="rounded=1;whiteSpace=wrap;html=1;" parent="1" vertex="1">
          <mxGeometry x="175" y="440" width="30" height="20" as="geometry" />
        </mxCell>
        <mxCell id="3OM55Z72-CLRfWCX4Hlg-64" value="&lt;font face=&quot;Times New Roman&quot; style=&quot;line-height: 100%; font-size: 8px;&quot;&gt;&lt;b style=&quot;&quot;&gt;IFFT&lt;/b&gt;&lt;/font&gt;" style="rounded=1;whiteSpace=wrap;html=1;" parent="1" vertex="1">
          <mxGeometry x="197.5" y="511" width="35" height="20" as="geometry" />
        </mxCell>
        <mxCell id="slnVftvB_GaaFYNKhwhK-6" value="&lt;font style=&quot;font-size: 8px;&quot; face=&quot;Times New Roman&quot;&gt;&lt;span style=&quot;line-height: 100%;&quot;&gt;&lt;b&gt;Input&lt;/b&gt;&lt;/span&gt;&lt;/font&gt;" style="rounded=1;whiteSpace=wrap;html=1;" parent="1" vertex="1">
          <mxGeometry x="225" y="440" width="30" height="20" as="geometry" />
        </mxCell>
        <mxCell id="slnVftvB_GaaFYNKhwhK-11" value="" style="verticalLabelPosition=bottom;verticalAlign=top;html=1;shape=mxgraph.flowchart.or;" parent="1" vertex="1">
          <mxGeometry x="210" y="488" width="10" height="10" as="geometry" />
        </mxCell>
        <mxCell id="slnVftvB_GaaFYNKhwhK-16" value="&lt;font face=&quot;Times New Roman&quot; style=&quot;line-height: 100%; font-size: 8px;&quot;&gt;&lt;b&gt;FFT&lt;/b&gt;&lt;/font&gt;" style="shape=trapezoid;perimeter=trapezoidPerimeter;whiteSpace=wrap;html=1;fixedSize=1;size=-5.684341886080802e-14;rounded=0;gradientColor=none;" parent="1" vertex="1">
          <mxGeometry x="180" y="468" width="20" height="13" as="geometry" />
        </mxCell>
        <mxCell id="slnVftvB_GaaFYNKhwhK-17" value="&lt;font face=&quot;Times New Roman&quot; style=&quot;line-height: 100%; font-size: 8px;&quot;&gt;&lt;b&gt;FFT&lt;/b&gt;&lt;/font&gt;" style="shape=trapezoid;perimeter=trapezoidPerimeter;whiteSpace=wrap;html=1;fixedSize=1;size=-5.684341886080802e-14;" parent="1" vertex="1">
          <mxGeometry x="230" y="468" width="20" height="13" as="geometry" />
        </mxCell>
        <mxCell id="slnVftvB_GaaFYNKhwhK-18" value="" style="endArrow=none;html=1;rounded=0;entryX=0.5;entryY=1;entryDx=0;entryDy=0;exitX=0.5;exitY=0;exitDx=0;exitDy=0;" parent="1" source="slnVftvB_GaaFYNKhwhK-16" target="3OM55Z72-CLRfWCX4Hlg-58" edge="1">
          <mxGeometry width="50" height="50" relative="1" as="geometry">
            <mxPoint x="155" y="518" as="sourcePoint" />
            <mxPoint x="205" y="468" as="targetPoint" />
          </mxGeometry>
        </mxCell>
        <mxCell id="slnVftvB_GaaFYNKhwhK-19" value="" style="endArrow=none;html=1;rounded=0;entryX=0.5;entryY=1;entryDx=0;entryDy=0;exitX=0.5;exitY=0;exitDx=0;exitDy=0;" parent="1" edge="1">
          <mxGeometry width="50" height="50" relative="1" as="geometry">
            <mxPoint x="239.9" y="468" as="sourcePoint" />
            <mxPoint x="239.9" y="460" as="targetPoint" />
          </mxGeometry>
        </mxCell>
        <mxCell id="slnVftvB_GaaFYNKhwhK-21" value="" style="edgeStyle=segmentEdgeStyle;endArrow=none;html=1;curved=0;rounded=0;endSize=8;startSize=8;exitX=0.5;exitY=1;exitDx=0;exitDy=0;entryX=0;entryY=0.5;entryDx=0;entryDy=0;entryPerimeter=0;endFill=0;" parent="1" source="slnVftvB_GaaFYNKhwhK-16" target="slnVftvB_GaaFYNKhwhK-11" edge="1">
          <mxGeometry width="50" height="50" relative="1" as="geometry">
            <mxPoint x="155" y="518" as="sourcePoint" />
            <mxPoint x="205" y="468" as="targetPoint" />
            <Array as="points">
              <mxPoint x="190" y="493" />
            </Array>
          </mxGeometry>
        </mxCell>
        <mxCell id="slnVftvB_GaaFYNKhwhK-23" value="" style="endArrow=blockThin;html=1;rounded=0;exitX=0.5;exitY=1;exitDx=0;exitDy=0;exitPerimeter=0;entryX=0.5;entryY=0;entryDx=0;entryDy=0;endFill=1;" parent="1" source="slnVftvB_GaaFYNKhwhK-11" target="3OM55Z72-CLRfWCX4Hlg-64" edge="1">
          <mxGeometry width="50" height="50" relative="1" as="geometry">
            <mxPoint x="155" y="518" as="sourcePoint" />
            <mxPoint x="205" y="468" as="targetPoint" />
          </mxGeometry>
        </mxCell>
        <mxCell id="slnVftvB_GaaFYNKhwhK-26" value="" style="edgeStyle=segmentEdgeStyle;endArrow=none;html=1;curved=0;rounded=0;endSize=8;startSize=8;exitX=0.5;exitY=1;exitDx=0;exitDy=0;entryX=1;entryY=0.5;entryDx=0;entryDy=0;entryPerimeter=0;endFill=0;" parent="1" source="slnVftvB_GaaFYNKhwhK-17" target="slnVftvB_GaaFYNKhwhK-11" edge="1">
          <mxGeometry width="50" height="50" relative="1" as="geometry">
            <mxPoint x="205" y="546" as="sourcePoint" />
            <mxPoint x="255" y="496" as="targetPoint" />
            <Array as="points">
              <mxPoint x="240" y="493" />
            </Array>
          </mxGeometry>
        </mxCell>
        <mxCell id="slnVftvB_GaaFYNKhwhK-28" value="&lt;font face=&quot;Times New Roman&quot;&gt;&lt;b&gt;Score&lt;/b&gt;&lt;/font&gt;" style="rounded=1;whiteSpace=wrap;html=1;" parent="1" vertex="1">
          <mxGeometry x="192.5" y="626" width="45" height="20" as="geometry" />
        </mxCell>
        <mxCell id="slnVftvB_GaaFYNKhwhK-29" value="" style="group" parent="1" vertex="1" connectable="0">
          <mxGeometry x="180" y="562" width="70" height="38" as="geometry" />
        </mxCell>
        <mxCell id="3OM55Z72-CLRfWCX4Hlg-53" value="MLP" style="rounded=1;whiteSpace=wrap;html=1;" parent="slnVftvB_GaaFYNKhwhK-29" vertex="1">
          <mxGeometry width="70" height="38" as="geometry" />
        </mxCell>
        <mxCell id="slnVftvB_GaaFYNKhwhK-30" value="" style="html=1;shadow=0;dashed=0;align=center;verticalAlign=middle;shape=mxgraph.arrows2.arrow;dy=0.71;dx=10;direction=south;notch=0;" parent="1" vertex="1">
          <mxGeometry x="207.5" y="603" width="15" height="20" as="geometry" />
        </mxCell>
        <mxCell id="slnVftvB_GaaFYNKhwhK-32" value="" style="html=1;shadow=0;dashed=0;align=center;verticalAlign=middle;shape=mxgraph.arrows2.arrow;dy=0.71;dx=10;direction=south;notch=0;" parent="1" vertex="1">
          <mxGeometry x="207.5" y="540" width="15" height="20" as="geometry" />
        </mxCell>
        <mxCell id="nwkMJYXN-5Y0sbUIoPYy-62" value="" style="rounded=1;whiteSpace=wrap;html=1;movable=1;resizable=1;rotatable=1;deletable=1;editable=1;locked=0;connectable=1;" parent="1" vertex="1">
          <mxGeometry x="120" y="130" width="680" height="252.5" as="geometry" />
        </mxCell>
        <mxCell id="nwkMJYXN-5Y0sbUIoPYy-63" value="&lt;font face=&quot;Times New Roman&quot; style=&quot;font-size: 10px;&quot;&gt;&lt;b&gt;Input(V,I,T)&lt;/b&gt;&lt;/font&gt;" style="rounded=1;whiteSpace=wrap;html=1;" parent="1" vertex="1">
          <mxGeometry x="131.33333333333334" y="272.9038461538462" width="68" height="53.846153846153854" as="geometry" />
        </mxCell>
        <mxCell id="nwkMJYXN-5Y0sbUIoPYy-95" value="" style="rounded=1;whiteSpace=wrap;html=1;" parent="1" vertex="1">
          <mxGeometry x="426" y="245.98076923076923" width="147.33333333333334" height="109.03846153846155" as="geometry" />
        </mxCell>
        <mxCell id="nwkMJYXN-5Y0sbUIoPYy-98" value="" style="group;sketch=1;curveFitting=1;jiggle=2;movable=1;resizable=1;rotatable=1;deletable=1;editable=1;locked=0;connectable=1;" parent="1" vertex="1" connectable="0">
          <mxGeometry x="222.0033333333333" y="226.51846153846157" width="99.30266666666667" height="143.67121588089327" as="geometry" />
        </mxCell>
        <mxCell id="nwkMJYXN-5Y0sbUIoPYy-69" value="" style="shape=orEllipse;perimeter=ellipsePerimeter;whiteSpace=wrap;html=1;backgroundOutline=1;" parent="nwkMJYXN-5Y0sbUIoPYy-98" vertex="1">
          <mxGeometry x="20.96933333333334" y="68.65384615384616" width="10" height="10" as="geometry" />
        </mxCell>
        <mxCell id="nwkMJYXN-5Y0sbUIoPYy-80" style="edgeStyle=orthogonalEdgeStyle;rounded=0;orthogonalLoop=1;jettySize=auto;html=1;exitX=0.5;exitY=1;exitDx=0;exitDy=0;entryX=0.5;entryY=0;entryDx=0;entryDy=0;endArrow=none;endFill=0;" parent="nwkMJYXN-5Y0sbUIoPYy-98" source="nwkMJYXN-5Y0sbUIoPYy-70" target="nwkMJYXN-5Y0sbUIoPYy-71" edge="1">
          <mxGeometry relative="1" as="geometry" />
        </mxCell>
        <mxCell id="nwkMJYXN-5Y0sbUIoPYy-70" value="&lt;font face=&quot;Times New Roman&quot; style=&quot;font-size: 10px;&quot;&gt;&lt;b style=&quot;&quot;&gt;PE&lt;/b&gt;&lt;/font&gt;" style="ellipse;whiteSpace=wrap;html=1;aspect=fixed;shadow=0;" parent="nwkMJYXN-5Y0sbUIoPYy-98" vertex="1">
          <mxGeometry x="10.902666666666672" y="26.923076923076927" width="29.466666666666665" height="29.466666666666665" as="geometry" />
        </mxCell>
        <mxCell id="nwkMJYXN-5Y0sbUIoPYy-71" value="&lt;font face=&quot;Times New Roman&quot; style=&quot;font-size: 10px;&quot;&gt;&lt;b style=&quot;&quot;&gt;VE&lt;/b&gt;&lt;/font&gt;" style="ellipse;whiteSpace=wrap;html=1;aspect=fixed;" parent="nwkMJYXN-5Y0sbUIoPYy-98" vertex="1">
          <mxGeometry x="10.902666666666672" y="87.50000000000001" width="29.466666666666665" height="29.466666666666665" as="geometry" />
        </mxCell>
        <mxCell id="nwkMJYXN-5Y0sbUIoPYy-108" value="" style="endArrow=blockThin;html=1;rounded=0;endFill=1;entryX=-0.134;entryY=0.525;entryDx=0;entryDy=0;entryPerimeter=0;" parent="nwkMJYXN-5Y0sbUIoPYy-98" edge="1" target="nwkMJYXN-5Y0sbUIoPYy-113">
          <mxGeometry width="50" height="50" relative="1" as="geometry">
            <mxPoint x="30.97" y="73.51538461538456" as="sourcePoint" />
            <mxPoint x="200.97000000000006" y="73.51538461538456" as="targetPoint" />
          </mxGeometry>
        </mxCell>
        <mxCell id="Y-DCmwbjRlBoXEvh0h---7" value="" style="endArrow=classic;html=1;rounded=0;entryX=0.5;entryY=1;entryDx=0;entryDy=0;" edge="1" parent="nwkMJYXN-5Y0sbUIoPYy-98" target="nwkMJYXN-5Y0sbUIoPYy-113">
          <mxGeometry width="50" height="50" relative="1" as="geometry">
            <mxPoint x="-12.003333333333302" y="73.48153846153843" as="sourcePoint" />
            <mxPoint x="80.96666666666673" y="87.50153846153842" as="targetPoint" />
            <Array as="points">
              <mxPoint x="-12.003333333333302" y="123.48153846153843" />
              <mxPoint x="160.9966666666667" y="123.48153846153843" />
            </Array>
          </mxGeometry>
        </mxCell>
        <mxCell id="nwkMJYXN-5Y0sbUIoPYy-101" value="" style="edgeStyle=elbowEdgeStyle;elbow=horizontal;endArrow=classicThin;html=1;curved=0;rounded=0;endSize=8;startSize=8;entryX=0.005;entryY=0.457;entryDx=0;entryDy=0;entryPerimeter=0;exitX=1;exitY=0.5;exitDx=0;exitDy=0;endFill=1;" parent="1" source="nwkMJYXN-5Y0sbUIoPYy-63" edge="1">
          <mxGeometry width="50" height="50" relative="1" as="geometry">
            <mxPoint x="199.33333333333331" y="259.44230769230774" as="sourcePoint" />
            <mxPoint x="240.4998466666666" y="300.3473076923077" as="targetPoint" />
            <Array as="points">
              <mxPoint x="210.66666666666666" y="259.44230769230774" />
            </Array>
          </mxGeometry>
        </mxCell>
        <mxCell id="nwkMJYXN-5Y0sbUIoPYy-111" value="" style="shape=sumEllipse;perimeter=ellipsePerimeter;whiteSpace=wrap;html=1;backgroundOutline=1;" parent="1" vertex="1">
          <mxGeometry x="371.79999999999995" y="230.21153846153845" width="20" height="20" as="geometry" />
        </mxCell>
        <mxCell id="nwkMJYXN-5Y0sbUIoPYy-115" style="edgeStyle=orthogonalEdgeStyle;rounded=0;orthogonalLoop=1;jettySize=auto;html=1;exitX=1;exitY=0.5;exitDx=0;exitDy=0;endArrow=blockThin;endFill=1;" parent="1" edge="1">
          <mxGeometry relative="1" as="geometry">
            <mxPoint x="418.6333333333333" y="299.63846153846157" as="targetPoint" />
            <mxPoint x="393.7" y="299.50384615384615" as="sourcePoint" />
          </mxGeometry>
        </mxCell>
        <mxCell id="nwkMJYXN-5Y0sbUIoPYy-113" value="" style="shape=orEllipse;perimeter=ellipsePerimeter;whiteSpace=wrap;html=1;backgroundOutline=1;" parent="1" vertex="1">
          <mxGeometry x="373.29999999999995" y="289.7307692307692" width="20" height="20" as="geometry" />
        </mxCell>
        <mxCell id="nwkMJYXN-5Y0sbUIoPYy-114" value="" style="endArrow=blockThin;html=1;rounded=0;endFill=1;" parent="1" edge="1">
          <mxGeometry width="50" height="50" relative="1" as="geometry">
            <mxPoint x="381.8" y="258.0961538461538" as="sourcePoint" />
            <mxPoint x="381.8" y="285.01923076923083" as="targetPoint" />
          </mxGeometry>
        </mxCell>
        <mxCell id="nwkMJYXN-5Y0sbUIoPYy-134" value="&lt;b style=&quot;&quot;&gt;&lt;font style=&quot;font-size: 10px;&quot; face=&quot;Times New Roman&quot;&gt;Dual-channel mixing block&lt;/font&gt;&lt;/b&gt;" style="rounded=1;whiteSpace=wrap;html=1;strokeColor=none;movable=1;resizable=1;rotatable=1;deletable=1;editable=1;locked=0;connectable=1;" parent="1" vertex="1">
          <mxGeometry x="439.32" y="215.02096774193552" width="120.68" height="20.18709677419355" as="geometry" />
        </mxCell>
        <mxCell id="nwkMJYXN-5Y0sbUIoPYy-140" value="" style="edgeStyle=orthogonalEdgeStyle;rounded=0;orthogonalLoop=1;jettySize=auto;html=1;endArrow=blockThin;endFill=1;" parent="1" edge="1">
          <mxGeometry relative="1" as="geometry">
            <mxPoint x="580.1333333333333" y="300.3499999999999" as="sourcePoint" />
            <mxPoint x="608.4666840136076" y="300.3499999999999" as="targetPoint" />
          </mxGeometry>
        </mxCell>
        <mxCell id="nwkMJYXN-5Y0sbUIoPYy-143" value="&lt;font face=&quot;Times New Roman&quot; style=&quot;font-size: 7px; line-height: 200%;&quot;&gt;&lt;b&gt;Frequency domain channel&lt;/b&gt;&lt;/font&gt;" style="rounded=1;whiteSpace=wrap;html=1;" parent="1" vertex="1">
          <mxGeometry x="439.31666666666666" y="309.9230769230769" width="102" height="33.65384615384615" as="geometry" />
        </mxCell>
        <mxCell id="nwkMJYXN-5Y0sbUIoPYy-144" value="&lt;font face=&quot;Times New Roman&quot; style=&quot;font-size: 7px; line-height: 200%;&quot;&gt;&lt;b&gt;Time domain channel&lt;/b&gt;&lt;/font&gt;" style="rounded=1;whiteSpace=wrap;html=1;" parent="1" vertex="1">
          <mxGeometry x="439.31666666666666" y="256.0769230769231" width="102" height="33.65384615384615" as="geometry" />
        </mxCell>
        <mxCell id="nwkMJYXN-5Y0sbUIoPYy-145" value="" style="shape=orEllipse;perimeter=ellipsePerimeter;whiteSpace=wrap;html=1;backgroundOutline=1;" parent="1" vertex="1">
          <mxGeometry x="548.6833333333334" y="289.7307692307692" width="20" height="20" as="geometry" />
        </mxCell>
        <mxCell id="nwkMJYXN-5Y0sbUIoPYy-146" value="&lt;font face=&quot;Times New Roman&quot;&gt;&lt;span style=&quot;font-size: 8px;&quot;&gt;&lt;b&gt;NIG&lt;/b&gt;&lt;/span&gt;&lt;/font&gt;&lt;div&gt;&lt;font face=&quot;Times New Roman&quot;&gt;&lt;span style=&quot;font-size: 8px;&quot;&gt;&lt;b&gt;Distribution&lt;/b&gt;&lt;/span&gt;&lt;/font&gt;&lt;/div&gt;" style="rounded=1;whiteSpace=wrap;html=1;align=center;" parent="1" vertex="1">
          <mxGeometry x="611.8666666666667" y="275.5961538461538" width="63.46666666666667" height="49.80769230769231" as="geometry" />
        </mxCell>
        <mxCell id="nwkMJYXN-5Y0sbUIoPYy-149" value="&lt;font face=&quot;Times New Roman&quot; style=&quot;font-size: 10px;&quot;&gt;Output(SOC)&lt;/font&gt;" style="rounded=1;whiteSpace=wrap;html=1;" parent="1" vertex="1">
          <mxGeometry x="709.3333333333334" y="272.9038461538462" width="79.33333333333333" height="53.846153846153854" as="geometry" />
        </mxCell>
        <mxCell id="nwkMJYXN-5Y0sbUIoPYy-150" value="" style="edgeStyle=orthogonalEdgeStyle;rounded=0;orthogonalLoop=1;jettySize=auto;html=1;endArrow=blockThin;endFill=1;" parent="1" edge="1">
          <mxGeometry relative="1" as="geometry">
            <mxPoint x="677.6" y="301.72307692307686" as="sourcePoint" />
            <mxPoint x="705.9333506802743" y="301.72307692307686" as="targetPoint" />
          </mxGeometry>
        </mxCell>
        <mxCell id="nwkMJYXN-5Y0sbUIoPYy-152" value="&lt;b style=&quot;&quot;&gt;&lt;font style=&quot;font-size: 10px;&quot; face=&quot;Times New Roman&quot;&gt;Evidential Estimation Block&lt;/font&gt;&lt;/b&gt;" style="rounded=1;whiteSpace=wrap;html=1;strokeColor=none;movable=1;resizable=1;rotatable=1;deletable=1;editable=1;locked=0;connectable=1;" parent="1" vertex="1">
          <mxGeometry x="591.19" y="334.82258064516134" width="128.81" height="20.18709677419355" as="geometry" />
        </mxCell>
        <mxCell id="nwkMJYXN-5Y0sbUIoPYy-154" value="" style="shape=curlyBracket;whiteSpace=wrap;html=1;rounded=1;labelPosition=left;verticalLabelPosition=middle;align=right;verticalAlign=middle;size=0.5;" parent="1" vertex="1">
          <mxGeometry x="330.50266666666664" y="184.13461538461542" width="15.164" height="53.846153846153854" as="geometry" />
        </mxCell>
        <mxCell id="nwkMJYXN-5Y0sbUIoPYy-155" value="" style="endArrow=blockThin;html=1;rounded=0;exitX=0.998;exitY=0.997;exitDx=0;exitDy=0;exitPerimeter=0;endFill=1;" parent="1" edge="1">
          <mxGeometry width="50" height="50" relative="1" as="geometry">
            <mxPoint x="342.669672" y="237.98076923076923" as="sourcePoint" />
            <mxPoint x="360" y="237.74193548387098" as="targetPoint" />
          </mxGeometry>
        </mxCell>
        <mxCell id="nwkMJYXN-5Y0sbUIoPYy-156" value="" style="endArrow=blockThin;html=1;rounded=0;exitX=0.998;exitY=0.997;exitDx=0;exitDy=0;exitPerimeter=0;endFill=1;entryX=0;entryY=0.5;entryDx=0;entryDy=0;" parent="1" edge="1">
          <mxGeometry width="50" height="50" relative="1" as="geometry">
            <mxPoint x="343.8030053333333" y="184.13461538461542" as="sourcePoint" />
            <mxPoint x="359.1333333333331" y="184.13461538461542" as="targetPoint" />
          </mxGeometry>
        </mxCell>
        <mxCell id="nwkMJYXN-5Y0sbUIoPYy-158" value="" style="endArrow=blockThin;html=1;rounded=0;exitX=0.5;exitY=1;exitDx=0;exitDy=0;entryX=0.5;entryY=0;entryDx=0;entryDy=0;endFill=1;" parent="1" target="nwkMJYXN-5Y0sbUIoPYy-111" edge="1">
          <mxGeometry width="50" height="50" relative="1" as="geometry">
            <mxPoint x="381.79999999999995" y="197.59615384615364" as="sourcePoint" />
            <mxPoint x="548.6833333333334" y="130.28846153846155" as="targetPoint" />
          </mxGeometry>
        </mxCell>
        <mxCell id="nwkMJYXN-5Y0sbUIoPYy-160" value="" style="rounded=1;whiteSpace=wrap;html=1;strokeColor=default;dashed=1;" parent="1" vertex="1">
          <mxGeometry x="575.5999999999999" y="143.82692307692307" width="136" height="100.96153846153847" as="geometry" />
        </mxCell>
        <mxCell id="nwkMJYXN-5Y0sbUIoPYy-161" value="" style="endArrow=none;dashed=1;html=1;rounded=0;exitX=0.5;exitY=0;exitDx=0;exitDy=0;entryX=0.5;entryY=1;entryDx=0;entryDy=0;" parent="1" source="nwkMJYXN-5Y0sbUIoPYy-146" target="nwkMJYXN-5Y0sbUIoPYy-160" edge="1">
          <mxGeometry width="50" height="50" relative="1" as="geometry">
            <mxPoint x="698" y="286.36538461538464" as="sourcePoint" />
            <mxPoint x="754.6666666666666" y="219.05769230769232" as="targetPoint" />
          </mxGeometry>
        </mxCell>
        <mxCell id="nwkMJYXN-5Y0sbUIoPYy-163" value="&lt;font style=&quot;font-size: 10px;&quot; face=&quot;Times New Roman&quot;&gt;&lt;b style=&quot;&quot;&gt;Evidential Prior&lt;/b&gt;&lt;/font&gt;" style="text;html=1;align=center;verticalAlign=middle;whiteSpace=wrap;rounded=0;" parent="1" vertex="1">
          <mxGeometry x="575.5999999999999" y="143.78846153846155" width="136" height="40.38461538461539" as="geometry" />
        </mxCell>
        <mxCell id="nwkMJYXN-5Y0sbUIoPYy-171" value="" style="shape=image;aspect=fixed;image=data:image/png,iVBORw0KGgoAAAANSUhEUgAAA5UAAAEqCAYAAACFq3RaAAAAAXNSR0IArs4c6QAAAARnQU1BAACxjwv8YQUAAP+6SURBVHhe7L0HfFzndeb9kOhtCjAog957BzspUqR6c2+x42Sz2c1u2ibZZH/ZzW62JPtlU5zYTtlsbMtNliXLkmU1UmJvIAkQvffe66AMMINCfu85M0MCFMoMMJJJ8PyVCYF7596ZuQPf8z7ve85zdlkXlm5DEARBEARBEARBELbAbvu/giAIgiAIgiAIguAyIioFQRAEQRAEQRCELSOiUhAEQRAEQRAEQdgyIioFQRAEQRAEQRCELSOiUhAEQRAEQRAEQdgyIioFQRAEQRAEQRCELSOiUhAEQRAEQRAEQdgyIioFQRAEQRAEQRCELSOiUhAEQRAEQRAEQdgyIioFQRAEQRAEQRCELSOiUhAEQRAEQRAEQdgyIioFQRAEQRAEQRCELSOiUhAEQRAEQRAEQdgyIioFQRAEQRAEQRCELSOiUhAEQRAEQRAEQdgyIioFQRAEQRAEQRCELSOiUhAEQRAEQRAEQdgyIioFQRAEQRAEQRCELbPLurB02/6zIAiCIAiCIOwYlpeXYJoyYXpmCkvLy9AEaRAeGmHfKwiCuxBRKQiCIAiCIOw4zOZptHV0oKO9E72dXbDMzyM1KwtPPH4cAQEa+7MEQXAHIioFQRAEQRCEHYXVOo+K6kr83V//Lbq6OhEcHMzbszOz8Vu//ztIik/m3wVBcA8iKgVBEARBEIQdAwnKzu4u/Mff+wMsWC34xCc/hcNHj8DH1wdzc3NIT02DJkhnf7YgCO5AjHoEQRAEQRCEHYXVakWYwYB/8xv/Ho8+dhzhYeEI1gUjMiIS8xYLp8bevn3L/mxBELaLrFQKgiAIgiAIOwYy55maMqGts52NeQIDAuHh6WHfSysqu9T/2wVDcAg8PLzsWwVB2A4iKgVBEARBEIQdw/LyohKVU1hcXMQtrD/M1QQGwtfXT4SlILgBSX8VBIXFYsbM7JT9t50Hfb7pGRPXmQiCIAjCToVSWpeWljYVlMScxYK5+TkWoYIgbA9ZqRQeakhI9g8MYGJyEhpNELIzcux7dhajY8Nobm7Bbk8PJMUnwGAIhYeHp32vIAiCIOwMSCCSUJw1m+1b1odWMwcHhhAabkBCbJy0GRGEbSArlcJDCa3cDQ8Porq6Bj/63g/xT9/4e/T39tv37jymZ2fw+quv4et/87c4c/Y8Oro7eOVSEARBEHYSt27fxuKCcyuPo2Nj+M6//As+eOcUBoaH7FsFQdgKIiqFh465uVk0t7biW//8L/iTP/7PeOWVl9W2hyMttKLsJv73n/1P/Lf//F9x7twFXqldXFqw7xUEQRCEBxeKZ2bzLObmnYvp0VGRCNYHo7GxEcODw/atgiBsBRGVwkMDpcT09vXgn//x/+IPf+/38aOXX0J/X69978PDotXK4vLP/+f/xG/8m3+HkpKSHV1PKgiCIDwclFdV4LvfehFtbe32LRvj4+2LhIQEDI+Moqurx75VEIStIKJS2PGQmOzu7cJrr72B3/8Pv4fXXn8N3V1dWFp8eAvzb926hSnTJCory/EX//v/wzf+5u9QWl4Cs3nG/gxBEARBeHCgko625nbcLLuJkWHnVh137d6F2MQEaLVBGOrr47IYQRC2hohKYUfTP9CHU6dP49v/91/w0g+/j6qKcoyNjLCoEmyrls2NDXj31Hv4v9/4B/z45VdQXVslLrGCIAjCA8Xw6Aj6u7qwe/du6IOD7Vs3Jyo6EqGGUPQpUdk/NGDfKgiCq4j7q7AjGRkbRlt7OypLy3D5yhXU19dhfgMnuJjYODzz1NMo3L/PvmVnQbUib775BovqjaDrcGD/Aew9eBBZ2RlISUoRl1hBEAThvoeybX78/R9heXkZv/kffht6vd6+Z2Pm5sx47+fvYmJ8HJ/4/KdRmFdk3yMIgiuIqBR2FJTqOjA4iEuXruDqxYsovVnKaZ6b4eXjg7DQMISGhdm37Czm5+fR09O9obB24OnlhZiYGDzx2BN45PHjyMvOFpt1QRAE4b7mzNkzeOWllxAdHcOi0hWaGps5gyk7KxPh4Ub7VkEQXEFEpbCjoLTN+qYG/PA730eJEpQT42NO104u31qGx24P+287C1c/m19AADIyMvHkk0/hU5/9FEJDdqbYFgRBEHYGr7zyKn72xk/xyOEj+PyXv2jf6jwB/v4ICtRg1y6pDBOErSCiUtiRNLY04L0338GVq8Xo6GzD3Oysfc/aOFYqQ0IM9i07C+uCFb29PZteB1ql1On1yMnKwRe/8mXs378XmiCdfa8gCIIg3J+89MMf4vzZMzjx+BN4/KnH7Vudx1eNAwIDg+Dl6W3fIgiCK4ioFHYsFosZFdXVeOeNn+OD0x9smAabm1eAf//bv4mnnnzavmVn0d7Zin/4u7/HO++8Zd/yYcjcIC09E5/7/BfwyU+/AL0uxL5HEARBEO5fKEupb4DcW0ew29MDcTGx9j3O4+npiaCAAPj6Bti3CILgCrLGL+xYKDAU5Rfg9//wD/B33/wmXnjhk/Y9DyG7dtl/WJuo6Bj88Z/8N3ztG3+Lz3/hMyIoBUEQhAcGHx8/RISFc8/JaGOUfauL3L7NJj+CIGwNEZXCjoYCjcEQiqKiAvz2H/wu/vrvvoHCPXs53VUAAoM0+K3f+h187Zt/h0986gUkxMWLKY8gCILwQOLp4QEPzw/7BywtLqG5qYUNedbj1vItLEu7MUHYMiIqhR0PtcQICtQiMS4RR48dwR//1/+MP/pPf4zsnHyuIXwYMYSF4Stf+Sq+9vWv41Nf+AzysnMRZghnES4IgiAIDxq3bt9mYbgWLS2tOH/6DEqLr2FsfMy+9cNYrVbMzE7ZfxMEwRU8/vRP//v/tP8sCDsaqhkM8A9ApDEK4RFhiEuIQ2S4EdaFJezatQt79u1FclKy/dk7i0nTBEqvl2DCNIlHjhzF5774JTz21GMozM9HqBKTnp4Pp7gWBEEQdgZWq4VXJO81CpmZmcalsxdw8tRJTM/OIkLF/di4D9dcjk9MoLm5RT1aYQgN4fGCIAjOI6JSeCjRBGkQp4JKTHwMwlSACdHrkZCShJjoGPszdhZT0ybMzpiRkZaOpz/xnBKWhxETFSdiUhAEQXjgoR7VFosFi8tL/PvtW7exuLiI4eFh1NU04MyZ02hraWYndB8V91LSU+Hn68cTyg7Gx8dReu0G3njjdRTtKUJoqGHHthkThI8CEZXCQwsFC70uGEmJ8RxgggKDWGzuRJaWFhERFYH9Bw4gLSUNPj6+9j2CIAiC8GAzPjGG6Zlp3FJicpf6b2Z2Br09fbh64RLe/PkbaGluUvtuwTI/z8IzWB/Mpj4kKh3C8vbt2xgfm0DZzVLk5uYjMSFeJl4FwQWkplJ46KE6QqonjIqMtm/ZeYSGhCElMRUhwTuzD6cgCILwcGI2T+PsmQu4eqkYY2NjMM+b0dTYgr/48z/Dy6/8GO1trVhaXLQ/G+jt7cU7b7+D/qEBLC4t8qomERgQCE2wDvOWeXS0tfFkrCAIziOiUhAEQRAEQXggGRgewqXz51BRVoaJ8Un4ePsgMjoCe4r2wj8ggFcuV2Kdn0dXZyeunrvEItS6YMHy0jK7xuq0WhhCQjHQ38/GP4IgOI+ISkEQBEEQBOGBhGopFxasCA0NhV+APxYWF1gQBipBOWc2c9rrvcxMT+GD0+9jZGQMs+o5JCy7e3vQ2twCP38/3Ci5wemwgiA4j4hKQRAEQRAE4YFkfGwSM0oYUm2kp5cHi8zJcRNKbt5UonLW/qzVkNCk1crrly5janIKg0MjKLlUjAsXzvM+Mvmh9iKCIDiPiEpB+BixWue5B9akaRyj4yOYnjHBbJ7Bst2xThAEQRAE55memlLicQ7+fn7w9/XDzPQMKktvoq29dc1VSge079KVy+jq6qFf4KOOJzFJbUmefeZZ+Pj42J8pCIIziPur8MCwuLQAy/wcvL3Xv9GTaGtqbcLUzBQLtVu3luHp4YHdm9iC03H0/PWc3mj/8MgwxidGMTc3x6kynh67+fnrHUtikZosd/d1o6WlBc3q0dTcjKZG9Who5jSbltZ2Ng3o6u1B/8AAO9iZ52ft73s3bqv/hoYGWYDO219XbVav5c3XY2lxYd33TPvXO3YjyJp9ft684XWm5zQ0N7h8nQVBEATBXdDE7JlTH6Cuvg75BQWIjo1Ba1MbTp48iaHBAfuz1md6egqawCDExifAGB2JZesielRMjo2JQUFRkRKq/vZnCoKwGbusC0uSNC7ct9CqHs1ATiuBRo2Jb9+6hYLcPHh5rS2MRsZG8fW//luEBAcjISUF+mA9QkKDodfpoNPqEKiCh5ddkE1PT6uANKX+nVGCywp/f39kpKbbz7Qa09QUrpeUoLm2Hlp1bq1WC2NkBNdeUP0GBZ7szCy2MZ9S56V/x0Yn0NXeqQRkPcrKb6Kzo8N+trUxhIUhJysHqep9xycnIzouGgHqPbU0taKnsxMa+gx6/arX9fXxRW52jv0Mq1n5nlceawg18Punc2uCdPzcldd5cnJSCeVFFOblwtfXj/ffC537a3/513xdY+Lj1XsPhT5Ex9edrjNdD3LVFQRBEISPAprQLa+qxP/5s7/A1NQkfu3X/zWiY2Jx9v0P8Prrr9mftTmh4eH46i9/FfsOHcDE+ATe/tnPcaP0Br75D/+APBUHgwK19mcKgrARIiqF+xJa5TPPz6GhvhENtbUou0mpLO0oKizCf/jD31NiRo9by6vTWnbt3oXBoSH88R/+MebnZ7G0tAzznBnBSugU5hfi8NGjyMhOR4g+GEPDw2hsaELpteuorq1hofnc88/hS1/+IpaXl+9YjDuYnDbh0rlL+Od//ieYlLiltJndu23Z4/4BgTh29Bh+5z/+B16BLLtRgpKbJVyvQTbm9DwPLy8s2y3NycJ81y61zWO3eq1bvMLn5eODRauVz+uARGZGWjr8lEC7cOkCr0qudLHzVaLw+LHj+NM/+x98jnvf84x5FsWXr3FwnZ4yqWti4e3xSgTu338AhXuLOGBa1Os2NzWjrroWVZWVqK2rRUZ6Bv7wv/wnhBnC7vHNs13nCdMk/uj3/hAzSpTTdSYL9qDAQBQWFOHo8ePIyslAbHSc+oye9qMEQRAEwX2MjA3jv/+X/8Yxi8YGJ558EsODg3j5Ry+hv6/X/izneOKJp/DMC88jPiFOxe5ufP1rX0NuTi7+4I//EAmxifZnCYKwESIqhfsOWjW7caMU3/nWt1BfX4fFhQUkJ6fiwP79KDq4H7nZ2Vw7sR7Lt5bRqgSoyTSFzpZW3CwtRWVVFXz9fHHk0BFERkbiNSW0JsbGEBYegcyMTBTt3YvCfYVITkiyn2U1VGdBPa1+/trPcPL9k5ianGQhSO5wt5QI9fD0RERYOHp7e+4IQxKT9BwSwHolZMkwYGhkmPd5rUhZ9fTyRGJiEiYnxjE8MgLL3BxvXykw6TwkSnepc5IZAb0eidCYmFj8r//zF0hNSoKXEq5rMTU7zeftautCQ00Nz8DSqmmwwYDf/u3fxalTp5R4r+P3FxUdg/379uPwsaMoKMjn1cyNaOtsx9jYBHo6ulCuhH/pzVK+zp/55KfxO7//uwgI0NifKQiCIAjugXpTVlTX4F//8i/jl37pK3jy2afV2MGMD959D++99479WXdZGU8Jx6SwA6qn/PxnP4/PfOlzWLAuoPjCZXR2deHXfuPXkZaSKpk3guAEIiqF+woysCm+fgP/3//6M248/NzTz+Lwo8eU2InklE9vT294+3jDY9fGHlNcbK/E3tLyEp9ndHwcNeXVePXHL3PqZqISYc89+zyy87Oh0+vg7eUNX19feK2zstbV242/+Yu/QkNDAxISEvH4448jOi4OLfX1+Nlbb2JsdIRXER2BKys7F0cfeQS5hQW8Mvndb38HHe1tiI9PxEEljtNzc+CnXm9yYgKjw8Mo2FvEYnH51m1Ov+loasb10hKUqcdKSFzu37sPBw8fQbgxAsODQ3ji6cfVufyVqPSExzo1jY7rsbC0oIKxGV3t3Xj/vfeU2K7ka/TY8cdw9MQJxMRGqevgA18VQOn9bcbK60zpuKZJEwYHhhAWEYr01DQlKgPhqa4prcwKgiAIgjvo7evBP3z9m/jg9Af4+t//PYxRESqeTmJkeAyzs6sdX6cnJ3D69BlUVZUjONjAq5rHHnvMvvcuer0esfHR2K3iFWX6hIaEIDLCCD+/QPszBEHYCBGVwn0Dmb9QuirNDl6/eh0Z2ZnQ6bQICQ6BjxI6mwnJ9Vi+fYtnHvsH+9HS0Morg2HhYQgNN0Cv1W94bjr21tIyxlVQqrhZyceGGEK4DrOushI3bpags7OTVw2Jwj17sU890rKzWFiRAcAcpfHWNHBz5ZDwUAQrEesf6M8ilFZVLZYFBAUGsKgkaPVz3mqzRO/p7ELpjeuoqqnGtMnEopVWGGllMz83D/sPH0JCYhwf5+nhBQ9Kpd1AXBIkBGn1sr93ADevXUdWQZ4KtHr+XNpAzborns6wqMQlfV4S/yRKd3vshpenpzqnD59XxKUgCIKwHSibqbyiCv/9T/6EBeKv/ptfgz/1p1wg87qlD/WXnDJN44ff/S4uXbrI9ZNPPvYEPv3Fz9n33oXip6eKVx6etnISEplBAYHsAuuh4qsgCBsj7q/CfQEJSouFXFSX4efjq278oYiPi2PTFxIju+2Cy1VItC2qIENizMfHGyGhITAaIxAaZoC3ChQ0I0lFg2QAtKSeS8+n+kQ+VgnKpaUl2/HqZxJdEerY/v5BlBQX4/r1a+jq7IA+OJgD27PPPocDhw4jXYnhUPU6tPrpCG4+6jNFxUWxeCMRS6/LaaxK/Pl4rzYd4l5bHp4ICgqE3hAMnT4E+Xn5iAiPUCLNC+PjY+gf6IdpygSLeQ6+AQFcz8g1mur931omz1jbf7Nzs/Bd4eJKgnJRfSY6v1+AHwwR4YiJiWbjHgqo9HbXO9YZPHbv5mNISBKcHkzCnN/XMnbv3qXew4L6ntd32hUEQRCE9Zifn+M2IDXVNfilr/4yT+ASXHKixgte3qsfS7eWUFtVg46Odmg0WqSkpKBgb+GHnkeCks5BcbKnuw/XrhRjt48nG9L5eG+euSMIDzsiKoVfOAsLVlis8yx2aHaQxA2JJBZ824AEFqVm0gohBRWqR/RWAo5X4uwilQQPpW5OKoFWfrMCHW0d0Og16j14shEQH6sELz2bBFJDXSPOnzmD4uvFmDRNIj09C48eO4b9hw4hb48SfkqkkUikz0Gvb1UCamRoFDUVtMrpjSCNEn8brCLSa5CQpWMXVGCbnDShvakZEZGRSEhJRlxMLDRBQexW29bSgu6eHszPmNVn8oFGq1Gfz4sFIR07ODSIqxevYlFdgyBNEH8G2k7Xgj43X2clXOlfB7Sd0lj7Bwdw+ewFJaxv83m3s3qp3g6LevpME5OTKC+vQEtLqxKyQfDz81VBfP3rIQiCIAgr4UlK9Z/RGIncghyezLy3ZnIlFosFVeWVLCoDVfxMSkpCdt7arunE4sIiBvr68aOXfgBjWCQio6M47jqyiQRBWBsRlcLHDq1KUisPSjEhR9OFRSvfxEl8bAdOc11YgEmdm4xwSECRQCKhtBlDQyM4c/IUzp47w/bhlJ5KqZu31bHLKliZzXPs7Pr6T19D6c0SnsnMysrG8ePHcfj4UU6lXbAs2NJmlBAjAUXHWdW2/p4+/OQnr2JKCUS9PoTPvdKoh55rNs/DWwk3WqlddWx3H9588w2Mj44hLj4eSamJMEZHw1uJ3jkVKIeV+Gtvb8PU9BS0QTpodCQsvTndt6uzB//w99/A1MQkdCEh8PT2hKd6fw5BvR6WeQu6O3vVsd/EtHrPwQb1ngP87Cu72wiq6vsdnRjDB++8x460QVo9tLogNl2SVUtBEATBGSjjJYh6S8bG8AQu+STYtq89Ee2qqKSJWYuKoe+fOon42FjEJsYhWB+84YSwIAgiKoWPGeoPSW0/Kiur1W2bVsuUcFNBwR3MmGfQ2dmF5vpmJaJ0HHg2E1AEpWWa5+Yx2NePa9evobWlBYG+/gjUarmWYl7tq6uux49++EPUVNOKoxcLymefeQ4F+wr5/fcq8ddUW8/1jrzAan9dEmH0H7UhaWpuwsTYqAqGGgSowEYpoiR6B/oG0d7cikCNds1jzTOzaGltZqv0QP8gREQZEZ+UiBAlUEfHxpRAp/rIXoyMjHCNqD5Ez2k8MzMz6v1Wo6a2BhOjo/Dx9kOAJgAB1Mx5k+tySwnjuelZlFeUY3R4RL03nRKBgWxmtB1heUt967Sq2tfTg7NnTkOjzqs36NXn8hdhKQiCIGwKTfZSto7VakV7R4eKz3UqXgfB339th1ZXRSVlSdEE7AfvfwBDiAGJyUksKK0LFi6PkVglCGsjolL4WOnr78UHpz7A1/7mr+AJDySkJMJ/nQb7rjA3P4/6hkb8/d9+A+fPn8HBg4cREBiwKrVzPah/Y1tzG9uQkxDTajWoVGJs1/ItJf606OnqwXe/8y20t7Wy+yrVN37hl76M9Ow0TrlpbWzFD3/wPdwsu4n8/AJbqql9xpR6OtLKZFZODhbmLKirr0NDgxKfumBodDpexfzOt7/NxxYUFsJXCT4S2iuPTUlLw9K8FfWN9WhuaYYmIBDR8TGIjIpUwTEF3UpIz86ZMTQ4gIGBfgT6BSoBqEG9Eu6l6rxk6tOihHJzUyO06vOEG41K2HneeY/3QtdMoz5DfmGBuga3caPkBqoqy5VgDVGvGQFfn63XllC9ZURkBDJzstHa1Iw33/wZbi/eQpg6LxkyrTfTLAiCIAgE1eVbLVZMz07jX/7xn/HT11/Dvn0H2CthLVwVlY40V6qpJPf2sNAInqAtL72JiJhIntAVBOHDiKgUPjYGBvtx7vR5/NM//j3S09LxG7/175W40vOs4HYpr6rCt//v/8PY2Ci++iu/qkRcFhviOENFWSVe+sEPMD4xjl/6wpfw9PPPY7C/n9ttVJTfRLkSZj293ep8fnjk8CP4pV/+KrfeoJnLxvpm/PQnP4FpchKPnXhMvW42vP0+/LokFBOTk7GoxGFPbw/a2trQ0tCAG9dvcOrqE489jvQses+rTXsImjFNSkmG1WxhB9v2tnb4enghNjEewSF67Nm7D1Pjk1yvODI8hN7eXlRVVKHkZim0Shz+wR/9EXw8vdhVt0WJUu/dnrzSuVmdJM3Ipmams+hrU4K6rq4GgQEaxCXE3zHi2QpU/0LCOyU9DZNjE9z3c8myiIhoowre4fZnCYIgCMJqqHyGfBioVMRiteDyxcucPbTvwAGOh2vhqqgkqIylub6R+zAXFhVyts+N0hJER8UiNTXV/ixBEFYiolL4WKD+kxcvXMLLL7+EmJgY/Ppv/AZi42LZhXS7VFXX4NTb76K7uwuPHnsUTz33NAIDAzZN8SRqq+tw5v330d/fh8MHD+OpF57lwBQdHYuRoSE0NTdzL0laQdxbtAdf/MpXuH6SBGVLUyvOnz6N0dFhXr188tlnbK1CKO12DUhYRkXHYPftXehTrzc0PKwC1zIK8wvxxDNPw0eJ0fWOpVVFOvbW4hL6BwZ4hTQ6Jo5XFKmvZFJqCszTsxhRopp6ZpKJUHh4OH793/47RMVEIjYhAbuXb6NvoJ/TdeMTE6HTa+1nXwd1/WjVkkwKfJSI7e7ppUirzkX1JWsHb2ehFFoyY4qOj2VB2d7ZAaMxCpkZGfZnCIIgCMJq2JF9aZFj4MzsLH70gx9Cq9ehoKgI+mAdP4e8Faanpzl+0eNeUUmx0cvbB01KNM7MzHI8IvfXlZlNdP72ljY0NjXg2PHjPAaoq60lVYv9B/fB0/PDE8CC8LAjolL4yLFa53G5uBhv/+xnnOL4uS9/icWDq+0q1qKtsx2n33sfre1t2L93Hx5/9mlbCowTgrKzvQsXz55DW3s7i8ITTz2p3p+eBeNg/6ASq9Xq3z5Oec3MzMJnv/BFXqGkFE2qobxy8SK7r2akZ+DRxx9HSFjwuqLQgZePFxbmF1gAW+bnUVhQiBNPPAFtCNVTbn5siCEU4WHhiImLUWIxis19KFWHakn0IQaMj4xgYHBABd5FePv4IjYqCnGJ8fBVn8GgAmlEWATilcCMU8KQ6iOdwdfPl1ubxCihHZsQr46Pc0vKMgXwgIBAhEUakaeuf1JKIkJDbNbwgiAIgrCS1o4WzvQhEz7yBqCyj++++CIS4+ORoWI0icn6mnpcvXgZjXUNbFBH/ZJnZ+ZQVVGBrq5O+AX4Q6/TY14J0kuXL6OttQUtjc0YGxrB4vItePvaeizT5KtfQABSUlKRmpHCP48Pj6BDnSMrL0eyagRhDaSASfjIqW9qwOl3T/LM37ETJ5CRkcaOn9vFPDeHkqs3WPwlxifg0LGjiI6OtO/dmDmzOrb4Gurq65VYisYjxx9FZGQE75ucnMKNa9fQ19fLvyclpnBqa0JSHAs4MgiovHkTLa2tiDQacfDIYUREORdgyNG1u7MDZrMZyUnJKNizB8Ghwfa9m6MP0SEjJwuJKSkf6m9J6UD0/nyV4KOWKBMT47iogmZnezfP7IaEBCO3KA/p2emcGkzfh7PQzG52fjbSMlLh5+PHDrXugIJ3KqUiqc8UZYzkCQhBEARBWAmlvZZcv4nzp85gcGBYCcAldipftFrhpWJhfVUVPlDjjLOnP0B9YwPm522xhB3Vl5Z4opWgtFY/Nf5Iz87G0UceQVxsnIo7FpSU3cTJt99GyaVijA6PwtPLE3HxsThw5ABPxoaHh6r4l4FJk0kJ1Bp13iU+nyAIdxFRKXzk0KxiVFQUTjz+JHLysqEN1Nj3bA9qFUJ1gUUFBThIwSEh1r5nc8gynI7NSE/H4UeUGI2N4u0kvkqvFrPBzdjICK/q7dtThIzcbHZidUA1HEmJiSjau1cdG23f6hwenp6IV4GMakCMkUYsLi7h9rLzAo/qLulBQZVSgRyQIx717dq/bz8KC4s4kFLqzvmzpzE8NMJC0M/HV4lRH27hQrO65HzrLIGBgfxY5JqWRW7h4g7oe/Dx8saSug4k2GnwIAiCIAgOxsbGUFNRwdlBFLcoXkxPz/C+4eERXLpyRcW7JoSGhuHY0WM4pMYEet3aJR7UdislLRlHHjuG4088hieffkaNIwrho+Lj5OSkEpkqNt66BT9/P+g0Ok6N1Wq0nB2k1WjYD4FGEYIgrEbSX4WPFBI6QYEBCIsMR2xcDCLC3JcyQnUQlJaZlJaCSCXOnDXmIWhFLyTUgOS0NEREhnHfSBKUnW1dePWVH7OTqlavx+FDR3Dg6BEEaanxsc1qnNI2DSpwxSclwRgdyQHHWeg9h4aFIiE5WZ3DYDPLuX2bayapL6brqMCm/o9TYIMCEK5EZWpqGgwGA8bHJriPZVtrK8INYep1w+Ef4G8/zlYzQq9JUnk9J9j1IIFKacCUsrudFiP3Qu+JJgvIJGi39AQTBEEQFFXVVTh/7hzSUlORU5ALf39/mKanMTE6xi6woSrmHTp0WInJw0jNSIM+WM+rjdRTeto0jWp1PGUf+QcEIJLiZEYGxz+q7Q8JDUFcUjziEhIRHReL8IgwjkU0kUy9p708PHmMQHEvwC8QOjU2yM/PF7dyQbgHEZXCR8rCgoVv6kEBQQjwD7Bv3T60SkaziVRnSMFlMyfTldAsJ63UUS9HqjUksyBKiRkZHsOrL/8IrW2tvBJ5cP9BHDxyBJExtpRa6t1IUDoNBSO/AGra77zwodVIWpWk16XU1ZWmAPT6HKBYYDov0mzvyDFjepvrH8ksSKvVsZlOS2sL5ufn0KOCqTEsAqER4VyH6YA+CwVNekV6D66Iy6Vl9VlI+LlbWPKq7W11fZTQFmEpCILw0HP50hVUVVYhryAf+erh7ePNq4a56mfq/Uwrk1SXr4IYl7fMzJjZyGewdxDtKg6S6d742ChHywAlLDVBWiyoMQSVpFBbMVsNJcXOIP6ZRCXFRIrT5P9A/9JqZUZWOvLycuDjs/0SHkHYaeyyLiw5RqSC4FYojZEa89MN2p2woLRYOQ3TVShQUNoniUoKGA5mZs24roLW//t//5d/z8nNx2c++zmkZq22Dl9csKWbkjDdrYKMl7fz7rUUvEg0rnc9HGLS1fMSdG46r7c6brdd6FrmrGiqq8c//tM/YJ5qOFNT8aUvfhmF+wp5vwNa5SRIkFK7D3p9Z/Hc7YmlW0vwVwHWFWHvDGQ+dEt9JgrmEsAFQRAeXn7/d38XA0OD+OVf+RUcPHQAt5aWMWeZw9TUNE+OEj3dvaguK0dldQ2Ghge4hGUtaMWRDPkchIaHIyE+AQX5BcgtLERo2N0+lBTXgvXBnAnlYW9/RiugmiCb06wgCHeRlUrhI4HSXmmFbEnd+N0JCUoShlRYz/moLsCplXSsEqQrBSUFmNbGVrzyysuYmZ6Gr7+/El9fREpaKjxXiDteaVRilILWe2+/DX8/fwQbDLyithl0LNWA3FlUXAPz7Bzef/c9dHd0Ikij5V6OzkBCl9732VPvo6WpGYFBGmh0Gn5fehUMg/wC0Dc4gKHBQXh7eSMkNExtvxsQSVCffOsdNNTWs8NdiMH5xs7U2/Pdn72N+to6+Ab6wxCydvPprXDh4mV87zsvqqjuidiYaHh6ule0CoIgCPc/g0og/vxnbyImKhoFRQXQ6XSYV2OARWovsriIhvomvPfzt3Hq5Hts3Dc0PIi52dlVcX4ltH1lf2xyYh8dH0NTUxPq6+swOjgMjVbHcdQxbmhobEJvXx9CQ0N5opMyfiSTRhBWI6JScDskKOlGT42JNxJRW4HOTSYxVHfnKrdVYOBj1b8r6enq5fYgVZUVvGr33LPPo2DfHiXqAu+s4pEoXGBReJvNAZpbmjEyNIjgYIMSlhu7t648diMolbapoUGdu1Uds4yw8HBePdyIpcVlXjWlWdeGunpO8VlaWECEMcqWnqtEMdVSjg2PYHx8XAXbIXh7eCIxOYnNCgh63eqKKlRWVWHXrdsIjzIiUIlLZ6BU3tqqGhRfu8ausFFx0W5pN0LMzJlRVV6BjtY2hISHIiY6xr5HEARBeFigfs5WqxVJqWkwRkbw6uHE5AS7sL7xk9dQXHwVjY0NGFHxbUE9L0ijQXJyKtdfZmfnID09g8s1yISHJk4zM7Nx/NHjiFIileJsUJAOFss8ptT+yYlx7vdMfah7O7sxY5pCZ1s7iq9cRWnpTXo3iIuPh5eKfRT/HGMEQRBEVApuZnR8BP2D/ZzKudItdbtMTk1ieHQEU1NTLhnyEDNKBI6OjmN2ZpZNdVbOXtJsZ115FU6fPY35uTl2e/3Epz/DhfqUBjo3M8eGN1MqsASQyY061NfPD9OTJgwOD2N2ahrGqKhVBjgOKP3UpI6jFUiq3dxMYFNw8vX1R19vNwaHhqDTaBFuNK5ZYzk7NYOJcZOtPlKdl46llbzevl4MDg4iQL3HqJhorpH08fOBv18gRlWgpHYmS0pUU7pqfGICn4tmbKmR84A6tr2jQx0boPbF82zsZtBzPNVn6+vuQXt7mxKjGrZhd+bYzfDx8cLcnIVnjhfVv2FR4QjRO7+KKgiCIDz4kHjr6x/AQG8PqOR+aHCY24dcu1aMispyNqRTQRCJSUnYt3c/Hj16DHn5BUhJT0dyagq7ond1q7g60A+NVou0lFQ8+vhjiFPxPj4xCQlKJKYkJSM4OIQnrPv7+tSYYZjFJaXctrS18qoopdl2dXVDo9MhNjaaJ2ZltVIQ7iKiUnAbk6ZxlJWVo7zkJqdChuid77+4GS0tbbh26QrGRsa4cb8rooVmHK9fuoyhgUHEJyesSntpa27D1SuX0djQwG6vTz3xFLLyc+84una1d+JGMfWtGlbBJ5HNdLzVPprtHB4YwJDa7qOCSlQsCanVabC9nT3cC3NECcTYuDibEc8mUMrronUBA0oYTo6PIyo65kNpsCR021vbUXHzphK6gSpI2lq0+KufrWYzC9KpKRMiIiLVZ7JZquuC9bAqcWuankKfCphkrBOfEI+gINu5NbogWMwWdKvAS6m0EZFRMIQ6J+BoVZNWgNva2jAxNgZjbAzCDNtPg/Wl9idKEI8Nj6K6rhaB/hokpyTCy2t1f05BEARh5zI+OYZz759GbW2NiuMDaKirw/mL53kC1tfHD2npGSgqLFKCch9yiwqRlJoMvSEEWp0WAYEBPPFaU1ONgf5++Pn72+on9xbxPnqOISwUkdHRiDAaEaILZnHp4eXJ2T0UvyfUv9SKS6sEKfW/pNgfo8Yh1GeZpnwlJgmCDRGVglugRsBV6ob/5muvo7e3FxkZmYgId0/7kNGJMRRfuIwz585Az+5rmU6bwlBQuHHlGs5fOI/AwCBk5+XcKdA3z83h+pWruHbjOi8ipqWl4xOf/rQSZypQKNE1Y5pBybXrqK6p4v5V2bk5d4QhuceRqU3/QD/GxsfUZ42EPuRunSKtJJaXlKK0rBR+fv7IzM5ySlTSc/yDAmEan1DnHoB1bh6JyclwuMySM2p3RxeuXLqoAu0kp+EEh9jEO83m+qsgOW2a4mOpKXRSSgofS261VGs5Y5pGV3cXpmdm4O3hjZT0VL4e5IDrqz7TnNre2t6KW4tLvI9ae2zmCEvfBdWhzk3PoF6Jcw91MZPSU9gxb7uQ3ftt9V1QnWlbawuf16jEsiAIgrDzsVrnceHCJbzx+hsYHBrk+NXYUI/FxQUVh4OQmZWNR48dw/7DBxEdH2fLGlIxg8pNBnr7eTJ5oK8PTc1N7P7qoWKdTonDlLQ0zjpyZC5RzCeRSRk+cUp0BquxBvd0XlpiITlrNrMZnp86hlqTLFsWManivLefN/z9qP/zxqUqgvAwIKJScAtT05N4/52TSkTdxJEjR3Dk6BGuOdguZMxzs7QcF86fgyYoCE88/yzXVDgD1RqW3SjH1eIrvCL32BNPIjzirtBtrm9W+66is6MdcbFxePzxJ5CYlsTBheovaytrUFJ6kwPPsUePwxAaaj/SJv5otXJp3oKOzi4sWOZZ7FKqKgm/pvom3Ci5AW8vH5w48RiCXTC/8VevRwGqv7+XU35TU1NZxNK5zTOzuFF8DW3qPSfExWP/oYOrxGqAEmGUjkNpsAMqmKaqwBmoRCodGxAUoD6XEtpj4+ju6uRU4qzsXK4dpdXbIPU8j92e6OvtVedvQ0ZmNnR6nVOrwhpNkBKunhjs62dDg/zCfGh16lgnhPRG0Gv7B/lTtzCUl1eo623F3v17lVAW0x5BEISdzOLSApfT/M1f/TX6VDycnJjALE2I+vpyGisJPBKUOQV58FE/r2R2dhbvvvUWrly+jLqGBoyNjmJhwYqlpUU+PjTYgDDj2mOJ3SpeGsLDeTL49tItTKjXnZqa5NcmR3syvGtoasDpUycRGRGJqNho6LV6+9GC8PCyvRGfINiprq5FVVUlsjIyUXRgL6eFuIPp6SlUl5VxymZGegYyMtLsezbHbJ5DXU01enp6kEnHZqXb99gcX28q0UfF/T6+foiNiUPenrutNubNFjQ3NWFm2sTijZxg74VEblpmJhITEmAyTWJZiUkSlAvWRU7PMU1OID4uDgnJifYjnIeC1IEDB3kVcFB9dmqtQefu6uhCj/o9zBCKPfv2ryn4qE7kkUOHWXh1tbXzjK2D1Ix07N+3j4Pq0Mgw3v35W5iemrXvBZKUqD567FFeXSVzAldITknCY08+qa6nN7rau7HsJudfgz4EWbmZeOTwIdvqrRoYCIIgCDsb05QJZz84h2b7KuPS4iKLR8qEoj7SZL5jMplWhjiGzPFuL99GSIgBMTExPC4x2Cd26XgqG9Hq9FheXOIHPZ9OQhO05ARL5SVlN0q4F/bjTz+F1JRUeHn74Lb6j9pzjan3Eh0VCy8fH7Q0t6gYOs3nFoSHHVmpFLYN1VK+/IOX0Nvfjyeeegp79hZxzZ47uHK5GOfPn0dOdg6OP/UE1z84y9WLV3Ht2jWkJqfgxFOP36kfJOqrG3Dp8kWuz0hPz8KxRx9FdFy0fS9QcaMU5ZWViI6OwsEjj9ypW7wXSrWhWsvs3DwE0Ira7l1KBFeg9OZNREVG4vjjj9tqOlyExKI+OBiZ2dmIiYuFt4+XCmbzuHjuvApo4+p6ZCuhlc2rqvdCabCaYD1ycnO5toTSXx1mP9Rfi+o/Fi1WtLY0o7u7CzlZudAZ9DY3Ow9PhIaHIi+vgIUcGQFtlv7qgI6nVNyiPUXIzc1x28QCQWmwiWnJ6rs4hIiwiDU/tyAIgrAzMJtn0NDUhD/5z38My9wcZ9NQmcVzzzyHw4cfwZQSk9093UhKTFKxO5bHHJRhxA8lEMkXgSZYc/LyEB4egc7OTm6rRSucifGJOHD4oIojtthGz6fUVspuGhsZxaUL53Gz7CauFRdz+uzc/By7xnOqrIqHVFoyNjYCX18/dlQ/8shRxMfH87kE4WFGViqFbVN89Tpq6+pRVFCIpJTEOw2Ctws5vlKrD+p1mZqe7lLaq2nShJLr12FdsCAjIwNhK9JeaZXy8sUL7PBGKaypKclIz8yw71XBbNqMm+VlWFpeZMtxY6TRvufDkLjx8/NVwcUHVssC11JWlJfzsRTsXOn5eC8kDrm1BwXL5VtoamhET28fwsNC2dVuoxpNH29vTkmlYz3s9ZgOItS12HtgPwxhYRwoT556D+Oj4/a9dKyPEod6m3uvK+JNPdff348/MwVfus7uglZsddQ3LEjDKUzUWkYQBEHYmVD6akdLB6zz8/x7WIQRn/3UZ7hH5cUL53D9xnV2Y6V6R2phthZkqkcPmkxdGS8ptq7n2qoPCcGTTz+DE9RyJDoGbW2t6OrqAhnxHVFi9qtf+Sri4uI5ds6ZZ9mcbrB/ANMzJvsZBOHhRUSlsG3qq6uVmPBFenY2Io3uMVGhWsrhkVHuRZWbk63EarLT5jzECPVlVMemp6YjXh3rMOchodNQ08iBggJCZmYWp4T6BtxdVRtXQWJmxozoyGgkp6ZuWFNIgcoRrEj4TU6YYJqeRnxsPOKUqHSmHnE9HOem8y6pR3dnJ3z9fJCclIRQJSw34s77UuLOal20pffY8fTxQqQSy48efZR/b2ioR015Jb93B3QsBeyFhYUP9fXcECUs6XtaukVNqZf4e3QXNFlBj3nLvHpP7hOsgiAIwv2D2TyN1rY2/PS11/h3WqHMVrGanM1vlJSir7+Pt1OJR1ZODtc4ugsSoeQGW7BvL5577nl+JCcnKWHqxdlORfv34Utf/gq3L6G2YxQfK8vLue2IIDzsSPqrsG2Wd91GSmqausnGIyTYPW1EqHZheWkJWo0eGdkZvFroaPOxGbRKtqgEkU6jQ1ZuLoxR4ZzWSZjN83j7Z2+iqaWZg8Thg4eRV1DArSscLFqXoNcEIUkJynB6XU/nDYeWVYAxBIcgKTkFoeFhPCPqHm6rc3nDGBGB2KRENu5xCq41Uf9PiTFac3Skwfr6eMPfPxBdnR0soq0LS4iJjlFi1aB04d3VSQqYJIxpm6sppyTgPUnMq9d0Vzo0Qd8vvRcyU5AeYYIgCDsHMuepb2zAz37yOi5dPM8TnHv27IWVUk7Hx9UYQ899J+cs8zxGePqF5zgzZyPm5ubQUF+PwYEBbikSFRnFpSXrQa/p4+PD7bxCQkMRHhaBsJAQRMbEICYhlmO7JkCDoaFBNrybmp5GeLgRMXHRCPB3vdxFEHYKIiqFbbG8vAi9XsftQwKDgrbt9umARCXNPhqjjZxO6aygJEhH0WwjCVGdXntHUJLBS1dbJ15//adcr5Gdk4sDSlRGxUXxfgdeKkCFGyPU57LVGboCrdKRSyy5prpPUNpaiVA9KQUz7o3likhTF4SuCaXvOEQl1UlSH8jbi8vo7O7G0PAgQkMMiIiMtFmyr4ACLH2vztZWrmaXLdXIjaKSYMHq6cXvzVWxKwiCINyftLa14PR77+Onb/yUW5X5+vnjk5/8FBu/GY1G7N1/gPs+U10jicmCwiKOAxvhqqhcCU2qkqdCRJSRS0ZsvgSeiFBjhOWFZXaG7e/vY1Mf6m8ZYQzjFmSC8DDiHgUgPJRQXZuFZguV4CEx5WUXb9uFUyYpbXPRdZdPTtWklcqFRV7RWsnM1CyuXr6MmekpeKubfkFuHiKjV6frUpoo1WRS0b6r0GtT76ylpSV2nqXUUXdB6Z6UjkoPOj/96xLqWiyoa0J1n4sLS7zJ29cbB48+gpiYOA7KldVVaG5ssl3DFdDrUcCcU59pfs5W3+Isi8v0mlbuCTpvsdi3bh/6fizWeUxNmzhVShAEQXiwGRkbxpWLV/D2O29zLSU5rup0eqRlZuDJZ5/GM598Aek56YhNjMfhY0dx5OixbZWYuAJlxZCgJJZU/KXJ0kdOHMe+feRPEI7SG9fw0g9/gIqKKhUvXYuTgrBTEFEpbBkSOiQ2Pop1IqrH2xIkntYo2l9cWsTI0DAuXr7IoikpMQVJaWnQ6O+6ujpqF7eKo87PosRTV3sbhgaGXBd/a0Dvl85D56cek/09fRgdGbXvdQ4SYVQz2dHcdseUZ7fHbv78+/bugSHEoARlAxrr6zExPsn7HdAq6dDgMJoaW/hfV+kb7EdzczP3G3Mn4xPjqKysRn1TowRxQRCEBxi6h587fQ4/f/NNDA70c+uPYH0woqKi1M++0AbruF0V4a3EHWUTJaem8O8fFysnqmny2z/AF0eOHUNudg5PzJaVluCbf/d1tHa0cRqvIDxsiKgUtgSlpVCNw0eCunFvZZWSoJrGtVYpR0fGUVFWxtbkxKGDB9Z0ZuWeVVtcpVxasgnS3q4uXL16FRfPn2Uhux3ovCtNac68fwqv/uTHqCovt29xntMnT+KlH34fFSUl9i02aMaXXO6oxrSpuRHlN1bvJ9558+f4m7/6PygpvsYrua5w8s138D/+25+i5OoN+xb30NnRjdd+/Ape//FraG5tsW8VBEEQHjTI5+Ddd95GU2M9jJFRSIhP4jKHyIi13dfvzaj5OLj3NW+pccYtqIfaTj0riYaGOvzpf/5vmBgfV+OQj/89CsIvEqmpFLbE7dvL3LuJi/XcCM3+UWoJNTV2FZsAU8evscrZ0dqON372Ojc2JufTT3z6Mwg26O7U49EqJX2UrTTsdwQah/jT6HUY7BvA2MQEi1hyrt2s5mM96P1RerFDJFO7j3EVrCYmJ7nFhistS6g/5fDIiDp+FNogHUIjwni7h6d6b4vLME1No72tFX5+fmy8tLK20lu97qR63f7BAWg0OkTHrK5D3YjdHl4wjU+gr68XWvV+o6OcP3YjqG51Sr3ni5cuYJe69EV7CrnOUhAEQXhwII+Db3zt67h24xqX1Bw6eBhPPfM0khMSERMfj3Bj+B0/AILiIU8A3zN5vB7bqal0MD9vgWlikrOzVvaepnhJ44fJSRPGx0Y5q2h6dga+3r5ITElEgH+g/ZmCsPMRUSm4hMVi5rTDESVM6KbpTsYmxzE8NMxpma6KsEklskaHx2xmNPcYtwwODOPmjRsoL7sJb19fPP3k00jLSFc/22YWZ0wz6vgpbq7s6uvOzszya3t43zWjoXN4eHhioL8fs+ZZhOhDoA/W8z5nocA0azZjdtbMpgAOgjRajAwNsaX6vHkOGVlZTr9n/8BAjI+Moqe3l4NgWkbGneul1enV9RtGjxJ+tALtvduD61gcBOqCYBqbQE1tDbw8PJCVk811tM4QpAnErGkaZRVl2KX0d15hgcsGSGtBNS3k8kufiQRrZGw0YqJi7HsFQRCE+x0SlBcuXMIbr/8U46NqXOHnj7179mLf4QMIDjHAEB4KLxVfV0JikjKSnMUdorJfxU0aRzTU1sEYGY1AFdcIErtU96kJCmLfgOHhIfXeFlRM6kNaegZCQ0PEuEd4aBBRKbhEW0c7Ll+4jMa6ekRER8JfBQB3QDfj2po6nD31AZYWb7E1t7OQeUxNZS3OnzmD5aVbiIpevRLWUFuPS5cvYWJ8DDExMfjM5z+vRJSG3UyXrIuor6nFlUuXsGhdQGS0869Lwq+9pYVtz5fVeYxRd01/ApSAo9W5UfWac7OzSE1Pc0mwUu1kVVkZmhsb1bWIvyMsSQSqiMr7SXSGGcKcFqwk5Ghid3h4BIODgzCGG1XANvA+HyWwFyxWFtd9/Up0qm0pqekIDAxg0UnHLqhrS8JzQB0bExuPMGo/4sRn8vb25pYlo+p1e5UYpv5eoWqg4A5HWB8/b1gsCyi9eRO71Pvbu3+vrFYKgiA8AJB7/MDQAL7213/DWTLk+n5w/0EcOHQYEZHh8PDyUPfzDxvxUPaOK1lF7hCVszNmfo+9Kj4mJSXCEHq3/ZaHeo8eKu4szM/ziqXJNKmeP6PGFIuIT05EWKiKd9L+SngIcG1ZRniooTrKtvYOvPPO2+jt6XVb+xBiYHAA1eUVqKmtddk1dXR0DHU11WhsblQC01Yz6YBEUkdbG7q6OqHR6ZCZkQWDEkO77YFqbGwCzU1N6O7pgtVFd1ISdrVKkPb393/oPfv4eCshmQ5/X1+MjI0pETd0J012M+h5w0q4tba3c3CifowriVDCNykxiV1Vb5aWsLh19tzRcTFIjI/Hrdu3UF1ZcccJlohPSkZ6WioHSrpeN69dW5WGHJ8Yz4YE85Y5XL14kdOAnK2vjI2PRn5BPrvPXjx7jt+7O9Br9UjJSENWRiau3Sjh2koaqAiCIAj3N+OTEyoeXEJF2U0sLS5yxkxeXr4SYvHYtY4F4NzMHIYGBjE26ppZ3XYJ0gZBp8YQ1BtzRo0r7mVmaoqzliKMRoRHGHkSmYwBy0vKeSJWEB4GRFQKTjM2MYbm2nquWcxRN34a0LuDRSVc2ls70NTchMSEBKRmptr3bA61u2htakFLWyviYuKQmbN69rGztR3tnR3c0yoi3IiDR44o0WTbR66m3Upw9vT2ISTEgPTcHNsOJyARN9jbi94+OjYYKWnp9j13oeCSprZTrWVLQ4N96+bQCmRnh3rPiwtISUllgbqSwAB/JfASoddp0a+C6/S08y01qDEzpb2Gh4aiVX32qQkTXwciJCwYSSkpSE5KxbQKkFevF2NsZJTNEoigwACkZmXxda5vrMf4xCQbIzkD9fzMyM5WYjgBlVXVGB0b5e/dHURHR+KA+l7pOym5VsI1OYIgCML9C6W9trW343vfe5F/JxGWnJyCWBUj/P381p0oHR4cQkXpTVTcLLNv+XjwVe/Jx8eHJ1NHlKBdWc5JJTtTJhOXlnh7eeHZp59FYnIyf4bTpz9Ag4r/c3Oz9mcLws5FRKXgNPV1Daivr0OqEh5ZuZn2rdvHNGVSwrAJMzOzSEtPg9EYYd+zOVNK/NBK5NycWYmhJBhC7xrXWBesaFDvt6W5mWsRY6KjbTOg9hXWmalpdHR2svV3YkIiQoKDebszkPBrbmnB0vIioqNiERL64WOpDiQmLg4h+mBeTXQGCkIDPb0YHhlGoL8/ktcQq4QhLJRndIOCAmCeMTttWECEKEFJDaNDDSF83VZGx6iYGBTm58HD0xO9VEOiRNrc3N0V3LCIUBw8dBjG8Aj1fc2saYq0HvTdHDh8WH0PUUoIu3bsRmgDNUhIisMjhw9hUX3ngiAIwv3NwPAgrp67iP6+XhaU+pAQ7NuzF6EqtrERzwrX85WMDA6iqqaafQU+Tny8vREUGKjGC0sYGOhfFTcJrU7HBj6Tpkk89YlncfTwIwgLDeNV2NLi6+xXIAg7HRGVglPMzE4pgXEdXV1dvJoVE+V87eFmNDU08yoluYImpzm/Skk01DTyKmVEWDiS0lcLsK72bnT1dGN2ZhpRUUos7dlj32ODVjipxi9QBQpa+XOFzuYWdPf0KFGnYbOc9QiLiMBzn/oEHnvqSQ6cm0Err40NDWzQE6Y+U3CIzr5nNbR6mZadic998UuIjI50qQF0QIA/snJz8Llf+hKnwzpSgQlarUxJz0BCfCI3nz75wfsYGxm7I1oDlNDN25OHf/0b/xbJyYlci+ksQZogFO4twL/9rX+H9PQ0eN+zArsdqEbmy7/6Vfzqr/0q/MVtTxAE4b6FSmmGB4fx7sn3OC4GGwwsKNMyM5Uw84d1cWHdSUfqA03ZPyHBzjmfk2urRT1WrnxSNsuceQ6WBSufy1m0er0SiuGYmpmxb7lLkFbL4xA26enuw5HHjnPmFfXbfPfUe7hRTKUqUpoh7GxEVApO0drehk4lKPfu3YfsPNcK3DejrqoaY+NjvAKaqISKK1DD/omxMa4xTEpOsG+1QU5tVBtIN/WoSCPSsu66mRKtLS2YMk0iLiaW2364AqWOUrNm6qFFrqPrsWvXbXjs9sTCwuKqoLYelNozOTkBTVAg0lWA3QhPJSR9fbfmKkcilFJhF8mW3Z7+6oBqTo898gj/PDI0iNqKCkxMTPLvhMduD2i0GqdXX1dCjrE6ndYl5z5n8PLw5JQprvN0YZAgCIIgfLx0dHegpPg6Bgf6oQsOxq989Vd4UpAM+jrbuvDO6z/HtUtX7c9ezczsLNc1UirqZlDc/dlrP8H3v/sdNDU18jbTxATKVUz7xt99DZfPnleC0/nsFurlTBk+eu2HJ3s1miBERUXBrMRqc109/Px8cOLxJ5CSnIaxkRHcuFaM8qoK+7MFYWciolJwigsfnOP6vaycXMTFxtm3bp+Wjja0tbUiJSkFqTlZ3CbCWTrbu9Dd0811GGlZWWww44DaiLS0tnEAoVW39LQ0+PjeXRmjmcQBJZhoNTA5NdWpVUQHfT196loMIMQQikz1uh6buJiSsKQHiZ3NhGVNVRXmrVZER8cgPHLzNGA6L9VeOiNY1+Q2+e2thqzSadU3RV0zui5UWzk8MGTfa8Nh6U6v6/Jrq+u1uGw7lvqSuhuahZYZYUEQhPsPWqVsrG/CqfdPwkOJtLi4eOw7dAABAbbej+RVQC7zJpOJf18Jtf+isgtyfp1V4vL9d9/DD158EQN9Aywg6UHx0PFYvrXE/Zn9AwLh729zqvf0pt8D4O3jy5OrZFrneL7jHLSK2VhXh7d/9iauX76C7o4u3kYTyM984gV86rOfXZXhQ/j6+3LvZ39/P7SqMQ29x/TsdGRnZXJqb+nNUrytxHJnT4f9CEHYeUhLEcEpdnnuQqQxCklpSTCGh9u3ugGlx3x9AjjthQxXfP2cX3kjLefp4cWN+mMSYrnmgSCxcuX8RVRUlsOsAk9BQSH2HTm8qmGxp4cnPNSLJyUlITYxHt4q8DiLl48393FMjE9AREw0vL2da2FBQoyC2Erxey9Uhxng54+4hARe0XMW2yl3bXjuNSFFqY4hSe1oLk3/euzaDS/1GesbG7huNSrCiJBQFTADVreQ4ecq4elMa5F7IXc/smJ3R2uRldAggdqKUK9QQRAE4f6hrbMV594/g6tXr7DPwVNPPX0nU4jqKMtKy7iePzExEQkpSbydIEHZWFPLMWlkdARm8ywGhwZZZEZHRkKj12F8dBztzc1oaWpGZ3sHerq6lUhcoGDD3g1zZjP7BZB/QqSRHFo92Em2q6OTn2tR+/3s4ra2qpoN6bp7e9CsztmhhOLY8Cg0gRr2UKCsG0fMJOjn27dVVLt1m4VyYmoSx/yh/kEMDg5wO5PxyUkszVtRUJSvxg3Ol44IwoOCiEphU26rQTrVv9GNlISOrxtvhiSyAoMC+Nx+fn78u7OQINHqtdynkWr9SFDRTdw8N4/XXn2Nb+QRSgwdOHAA6Znpq4QPHRuo0SDYEKpEra9LYoxEFAUwXYh6z75+dkHnHPT56D2u93p+fgFcXxIUFKSe67xQc0awrs9t7KZjVwRIWjGm69PZ1snpuBaLFZERkYiIjFj1GiTg6VrSNldfmwYQntS7S72uW4WlEsq0wkqtWKQ3mCAIwv0BrVJevnQV7737Hou8rMwsPPXcs/C11+ZPKeFYWV7OJnu5+XkIN96dwG6qa0TJjevo6u7mmK1nYRiJ5KRkxCYkwN8/ABMT4+xJUFdfy23K6EHbzEosTkxMcNuS2ypm0Vzqovp5VIlTx/PGJ0ycUksTulRaQv2VbWOd21haWubzDJGInZ5R46BgGMJCPhTzaDLTEBaG6JgY7vFMq5511bXoUcLUosStic4xMoKo6FgYI8Ph47218hVBuF8RUSlsyq1bS1w/568ElDsFJUGziJ7ennwDd0VQEhQUqL6PZwztN/eFxQU01TbizJkPYJ6dwYH9B7FHiUoSnyuhIEHH0Yqly2JIBUYSLdSU2VUtRE2bSQDS9VxLiNnel4dLgtIBXT9HKqpLn0lF2FvqPd2+pcSu+pXEJT38fH2xoAQ6tU0hgW4IDkF0bKwSvqsDIV0LakviELauQKKPjqNA7+qxG0GrlfR5lpYWeZaa/k4EQRCEXwyd3e1oam7Gm6+9jvLym0hQ4u2RI48gKzeL79VEX28faqurlGj0UaIyHxqd5k5s6e3oxPTMDIL1OsTGxiE/NxcFe/Zwi6yAwECeGKXn9vX2orGpCcND5E8weedBgpKgc1nm51fto4cuWMf+CgnJyXwucnMlA7+oyGiEK6EYFBjE8Z5iVmRUFLuoE6snYz04IyowIIDjGT2/pbEZfX29bMJHrzuvHgMDA8jMzoJOq+H0XEHYKYioFDZlft7MIoin99wIrVRZFu62q3AFarpvVYLUEYwcTJmm8fabP1MBrAs+ShQ9duIxJKen8s3eARnT0A3+3mOdgUQbHbtV6DMPqYBCqTy0wrfSaIfOvR2TGfPcHIb7B2G1WDiwuSIsqddlf1cv26XTDKsjUOpCQtDc2ITxiXG1bbcK6MGIionifQ5MU9Po6e5Vr2vlVWdXxOH4+DgfOzs3q4K4lleB3QFNVnR0dWJwZAi7larUapxPJRYEQRDcx/SMCW/85HX88PsvobqmioUdrTBSv2uKVTTBSzTU1KG+vgHh4eHIzs3myWaaiCVjHj8lHOMSE5QYy2YTO4N6zr1mPX7+/ritnjul4tnI8GofgI3wVnG4IK8A+YWFLFBXQuckAUkCk0ptIiIiEGYM5ywbmozlLBv1Lz3oc9HqJI03KA7SZKbVsoj+gX5eKfXx8cX8nBlDg4OcRhuTGAedik2ueDoIwv2M/CULG0KprwucMuJeRUkGLUtbcA8lWNipY+99T4tLi9z+orTsJhatVuRk58AYFb3KoIdY2EZ/xO06i95evo1L5y/g9JnT6O3q5s/igIwCtkNDdQ3efvstXLpwgftoukKjOvanr7+Gi2fOYloJXoJEZEhoCLKzsqDV6tg9r66mBnNKvK6EBgLf+86LOPn2Oxw4XaG+pgHf+ud/wqm33sXo2Kh96/YhkfrW62/im1/7BqqrauxbBUEQhI8TavpPdZAvvviiEozVmFexifo3WlSMvnr5Eru9khijSdGe7m421wkODoavEnNkBrdMDuUq1muCgqDX6bid1kbEp6QgJTmZhaKzJCYk8cpp6CZ+ETQJTG3CKD2WYje9twXLghqPqJ/Ve5wcN6GloQmmySkejxDxSQlISkjk9x4TE3dHQH7r2/8PVeXVmJr6sCGRIDyoiKgU1oUEJbXNcLegdEAunVuFVsXuZWpyGhU3b3J/RaIgL18FCVuKigNun0Ezilv8TEtL23MrJSOeyMgozKsASrUftNpKrBSXWyU2MZF7UA4ODaO1wWaf7iwx8QkwqEDe1d2Dptpa+1Yb+w4dRHxcHF9X3l/XZN9jIzY+BuFhoWhpbUVVWZV9q3NEx1JqkRG19fWoqVj9uttBr9UjITFJidwxlF6/jknTuH2PIAiC8HExMTmJf/z637OxjiPuxsbGclsOcpQnTKZp/Oi7P2BzvYQ4JcJSUzlWrxWnyQxnI0j4paanY2/R6r7UG5GZkYGk9DT7b5uzrMYQFLvp4RCXU0pIVpSW4jvf+RZ+8N3vqjjZjHk1xtHrtVw2Qm6zFuscguxZM+RbcO70ac6qEoSdgqS/CutCtZQW6+qmwe6AVymXlra0Uklpr8vq/XD6qrqxr6S7qwevv/E6ZmemERUdg8efehphEaGr0kDpGKq72EoqL10Hd/RA9PNTwm+gH7NKWAb6+8OgBBmd997P4yo+vj6YmphE30Av126kqkDp5WSLFkpBGh8dQ29/DxasC0hPV8f62FKS/Pz9MD48ipGxMQwND4LcbvOLCrB7l21OiqzgTWMTaGioZxv1rJxsp118qdH11KQJDY0NWLBYkFuQy+ZH7sDL1wvmqRk0tjQjODQUqSmp9j2CIAjCR82wihen3z+DN974Kae4UhorpZKGGUKV4LLAPDcLHy9vvPyjH6KrpxuxMbEo2rMXUTExLLruheM3x+CNhSXFrN0qnLZ3dsCqxjAbxfs9+/ajsLAIIWGGOzFtI8xzZlSV3MQrP34ZQf6B0BtC2D2eFiB37fKARe2vV7Gwproakyou6vTBCAwKxLSKc8PDQygoLEBHezsL5heefwH5ewp4ElQQdgIiKoU1oV5KH7x/Fku3l6DTap262TrD0MiwutnWorGugRvoe3p5Ol1PQOmR1ZXq2No6rvXzXmHQMzk5hfqqaly5fIm3Pf3UM8jIyoCvCi68f9yk9tegqV69rk7HtRrO1hySOUBbczMfqwsOgQe9ZyePXQt6T3PTsxhW14JqK0hUUbE+bd9ObQUdS+dhgwLTlApUWoRHbN7rkqBrQUF/goXjMNd5RNprJ6m+0tvbVwnWCXR0tMHDwwtRxug7q8B0rId6XZMStD29vdBqdEhMSqAdvH8jqO7EUx07OTaOtvYOhIaGIzFRHesGyE3YbJ5Xf281SlxOY/+h/VzTIgiCIHy0UJZTfVMjfvj972NOCS1q50HeDMcfPcHisKu7Sz1ngYUW8dQTT2HfgUMwRkdxe7C14rOzolIFaDbhs8zNoa+vjyeE18JTxbzHH3ucV0adbStGk9IzU1O4WVYGg8GAyOho+KtYQ++JJmeNxkjEREWjb6AP/eq125WA9FD7EpKSkJmRyeZCtRSTZme5J3VuXi6i1fOdHY8Iwv2Me5SCsKOgVMHa6jp8cPJdmManuBjdXYyOjuGD907ienExCzuqTXCWsdEJXDp3DlWVVfBQQWPlTXiwrx9VNdX8M4nGvMJCBGmC+HdiXImW4uKrqKuvg/c9xf2bQat0ly5fRkNjnRJenvDY5s2fPnOcEl0BKhCNKGHZ3NqiBJlrtYjrER4ZgcSERP65uqrKZrDkJFQrQv21lpYXUVlRjsWFu7WnxuhIPm9oWAQL4atXL7PpkIPI6AgkJyfzsVUVFZift/CqsjOER4Sx+QJx88YNrrVxB+Rem5iWiLycbDS3tKKhuUldj63X0wqCIAjOQ1kttCpJgo3cV7U6PTupksEO9ZckY7aE+ER87vNfRNGBAyqORMJ/nclVWtmkY5zJcPLY5cEtR/bu28+ptiQe78VLvQdaoSQDHkdWjjPQcw3hoTwhTn0y52ZmeTu9ZxrThBsjkJWfC60af9B7pZ6bZJ4XGx+P3MI89X6i8czTz0Cn3h/5FFSVVaCnr4fPIQgPOiIqhQ9Bq03Xr1zl9ExdCK1SumcGbWp2Gt0d3WqA3wSdEn7cm8rJc1NvqK62DrQoAUYrUCtdU+etFvT12BoUU3F+bnYOItSNfbfd8XVuZg4Daj+t4AX4B/AsqLMrghTIBvp6WUj5+wWwY6s7oBU5SvWhmVeqD6UA4w5IsFKQ1Ou0GFVCenBwaN1Z2nuh7yM2IQ6REUYMqGA52DdgSxVWkNlRUmoa0lNT1XcxhbraOnR39twRlj7ePkhKS2Nh2dnVhd6eXk5Tdgb/AH/EJcQjJTkJTc0tnAa16CbxRwOYvD171Pe9C1fPXeJWI4IgCMJHC/Vs1Gq1SFMxY3bWJryKlIijdh1WqxVRUTHcUuSxJ5/gsgetLgi7PHav63fQ192D4kuX0VhTp2LL5vGBhCTVMmZmZCEw6O4EM0H7KM4dOXKExSeJUGeh51I/acrgGh8fg0WNEVZCYwsq4YiJjmNRnaTicUJSsorxGi4VITF68JEjPIFL6cBXrlxBQ0MTFpe2Z9QnCPcDIiqFVVgsZq5NbGhsQmZaOmIio93W429wYBD1tTVKvPijaP9++1bnoGNbmpq4Vq9o775VonCofxgdHR2YMk1Co9Fi/8FD8F4x8zg2Ooq2tjYWhFTP4AqjQyNo72jn4JCXm8eOqO5gl8cueClx6+HpyeY6VM/hyqrtRlCNJqXZhATrsLRgc6BzlojIKBTkFyAiLBxL97jkRkTSamQKGw2MqWB68ew5zMzcdZkNjwhFfn6hCqbRnNbkCrRaue/gQSQqcWmdt0KpP/ue7aEN1CA2LloNXo647foKgiAIm3GbxSM5kZPPAa0M7tm3j+sljUYjjj96DCeUoIxNjGMxaTtk/ft+h4rh5RVl6OnpYRd1Z9jluRv5BYWICDeym6wDjRKEFMviU5LXXMXcDCrbCAkxYGbWjIV1fCeSU1I4vkepmBoaHsbjKPKCoInaqJhINhI0GEJRXVONqpvqc/V2Y2HRCrN52n4GQXjwEFEprGJweAgtDY3sUkorPJRC6A5o5amrvZvFaqwKKhmZaTxj6QyLi4vo7e5Fc2szjOERyMhOt++x1Vj0tLejo6uDhWZYaDjSszLvrFJyM+TuHk4v0QeHICU93elVSgoUQwP9vGqn0eqQkpWx7dRXB1MTUxgcHERgYBDSlXh3p+Ahy/WM3Bw8euIxxMbHOv15Cfq+U9T1e/LpZ5CQHK++o7vH+gf584wrBUuqVbl46SK3cHGsVvqroJ2Vl41PfO4zyMhK5xpNZ6FU5czsDHz6C59HdnamS8duhjHCiCeffxqf//KX4OUpjaYFQRA+Ssg5ngxt+noGcPbsGY5BSYnJSEpJQl5hHh575ink7ynimEIur1bLAsZHJzhrZ73MGmpXRechAx8Si85Aq4pUo0ltsUJU/CdIRNI4oWjvXv59K9CEcIQai1B9J3kJOFzcVxIRRbWhvhhS44dJ9d7JoJDGQQuLCywu9x8+iFQVS6n9WXllBYovX+cxTm1jA0/uC8KDiIhKYRWdHd2oq6tFQlw8cvNtdW7uYGp6Som7LiwtLyA7N5fd2ZyFUl97uro42GRl2RoiO6Ceie0dHWhraYEhLBx5Skz5+t+tmTTPmLmmgdJM0lNSVx27GTTDSrOiVAuSmpziVuE3SoHGNAl/JeIy83LtW90HCctwYzgHPVchYUkmPWv18zSEGbCnoJCDO80+36R2HeN3+2wFKGEZHRVpm5F1Mv3VAQnLuPgYbh5NAdhdkIlCZLiRa3VosCMIgiB8dCwsWNHX34/WpiZ0q7hPq5RHjxzhUgeKDf5+viwoCXIMb21sxk9ffQWd7R18/1+L0fExnoim0hdX0lWJPBWzjJGR/D7ClRgkMReXkODyeRzQWCAiPBxBgYGYmZ39UO9mio86nVaJ11CMK9E5OTZm3wOus5yfn1fvx4gwNWahzB8ac333xW/jz//Hn+H//K+/wODIMJaXXcsyEoT7ARGVwh2mZ0yovFmmboImZCrxptPq7Hu2T211PSqrq7gHVU5Bnn2rc9RW1aGhqZFXKXMKVqevNtc3c+9EIlzdoPccWJ1W29zQiI7OLk4zybCbwThLZ3MLunt62RI8KyfHvnX7kAEOCeFFFVyjoqIRqALtR4UrRj0roboW7hNmr6l0oNFruB9mvArIxMXLF9kEiVaMHdDP1LRa/WDf4hqUAvRRcEt9Ju67KsJSEAThI4Hur0tLi2hrbcep90/xtqCgIOw5eICzWYiVk4YkImlSmGrxrfeIMwcWi5VXMX19/NmPwVW0ITokJybxaik5ohe40MNyLWilNDE1Fb/81X+FR44fh36d9xSqRCXVSo4pUbnS+I7ia2d7F/eoJI8CWq0kwkPD0NRUjw/efR/jk+4x7xOEjxMRlcIdpqdneEWvID8P6dnp8HBTGxEHYeqGSTOE4fZWFM5Cs36G4BAVEJIQFmGwb7XRUF+H3t5uBBsMSIiPhyHUluKyEq0mEJHGSHVsuH2Lc1D9pF6nYTEbvMZ5t8rMzCyv4mlVoE3NcL7h8lZxdcXQAbUSWbaLy5UEhwRj/74D/L2Mj46irroaQ4Mj9r13oRlZZx1gV7FrF4tSd65WEpS4TM6yW1m9FQRBEDamtaOFHVFvllXgwpmz6OhoZ8fXfXv2IUgbyI7ta8WjwcEB/tdfxUTyL1gJPX90eBiLi0pU+nrCb0VtpLPQimR+UREO7N+PrPQMhIRtL57T+fyDAhARaYSfny/HwrXIyMrGZz7zORQd2A9PeynJknURZ09+gO9/77vsXZCTl8/HDw0PoV6NZ3Jy8/D666+psU0jZman+BhBeFCQPpXCHUhDBocakJyWwsXl7qxroxrNuPgExCTEc1qIK5DpDhX3x6rjNSvahFCq7pUrl9HT1YmkpBQcOnwYEdFG+14b5AYbHmZEQlICz5a6Ah1LKSrxCUkIDAywb90+ZElONR2xcUoEG0LhsaJu8aOCjAVc5rZt1ZGOJYHpgNqqBGq0qKqq4t5jc5Z5xMfGs5HPvb22SJhv5bXpdb08qR+oe68NnZdqcvgzuak+VhAE4WGGWjX1D/The996EdWVVbh6+TJKy0phnplhU57P/9KXEarGFpQ5Q/dg+s8BxZC333oben0IcnJyodOvXvWj5/f39nD7jbDQCCSnJqtYrrHvdR5qY0IGPWSa4+e3/ewgik27dtnj4zqxxEeNIWgSNjAoEJ52sUwTtTSBX1pSwu1OEuPj1T5v9HZ3s2M6rahSD8/bS7eQmJIMQ4hrk/CC8ItERKVwF3WfJ9FGje/dKShpxYn6VGl0QatEoTPQLCXVQdJxgUGrhd35D86gsqqCb8TkpLbv4AH4+N2tp6QVNm9vHxWktGzl7SosngID4R/gfP2nM9CsJJ2TPs/HISgpKNNrbkVE8TEUPOlnu7Akoei52wMzpin09vdhcnISUbwSHME1Mw7odclx13asa5+TBh2euz0pcrutpc0d1OlIWO52k6uxIAjCw4x5bgYffHAWP/rRD1FbW8vGeSQoaZWSHNePHj+KWfMcu56vFJS3lpYxOjyKixcvICMtHakZ6XdSZB1QHKE4RFEoJTUV4SrW0P17K5CwJKHnLig0bSQq6X1SCxFygXWY3tEzqSVJnbpOVqsFWbm5CNEHcyutaZOJ42x6WgZa29sQYgjjzC4y9BOEB4GPfkQrPDAsLS1suQZvI0gYUmDYCnQsObiuPJ5+Nk1No66hHiZ1E46JiUFiQgLX+62EZgT5tdW/W2GLb3nLULpof28/hgeHV9VfuIPJSRO6OrowrQK9K9C1mxifQHNDC8ZH7tZ4+CrxfuiRR2BUQnJ5cRHVNbXo6ey277VB39OQ+iz1dY3o67OlN7lC30A/aqprWbi6EzJgqqypQn1jHdcRC4IgCFuDagb7Bwbw1ps/49+9VqSvRhiNyMrKYTOem8XX0VLfwn2jHVjmrSpudPHP4eHhaxr40YSoITQUjz5+gt3bV/ao/kVz+zal8y7zOGM92J9AxUJHGQmJS+r/Tf0rxyfGVfxcQlRsLIqKivg8nR0dSFDjGTJLJLd58l4QhAcFEZUCQ05jtOK3VQG2ERRQlpxoVrwW5BR3r9BdWl5Cc30j+pXYIEFDqZfxKSn2vXdhIbpFZchi9mOuvaPeW5cvXuDUoZHhYftW99Db1YmzZz5AdVk5FtawP9+IgZ5ePrahpoat3wlq2RKfHI84de3Jva61rRnNTY0w32O00NHSjp+//rp63QqYlZhzhY62Trzxk9dQXlqOqVn39e6yWC049dZ7+NmrP1Xvu82+VRAEQXAVcjEvKynnesCigiLExyfA388fPn5+iI6MQmJyMkZHxvDzt99C+c1SzJlXxwhvLy+Eh0UgISkJvj73j2B0FmeGGDy5bf/ZQXpmJjw9vNDR3g4fXx8W37SyS1D2D/XbpvYrYWFhvE0QHgREVAoMNSn+KFYpKfV1q+clk5d7VykJixI2Vy9fwszMDAuaFCUowyJW1x3QrCAdv1WR/FFci82gulNKc5lQQbpLBRpauXQXgUEanvFsb2/DgIurht4+PkoQznFNS3/36lXD/YcO8my0dX4e7Z0daK5rsu+xodHrMG+xcKpPR7ttRtpZAjSBmJ+fQ3VlJbo6Vq+CbgdtoAZarRZlFZWor6lnR1hBEATBNaiWkvotv/TS97k+8JOf+yyCAgLY0ZRMaGjFjcpeqPc1kZqWuqpEgtqKFBzYhy9+6UuIiolet/7+fjZXo/YglP1CcW5d1BiG3MdXkpSSzJk+w8NDHF/jEuORm5PDAvS9U+8hSBsEjYrbt9XvgvCgIKJSYKghr7tXKUlQkovnVlYp6cZKoupecUeN9keHR1BSWsJCJic7G8ao6FVN+glKfd0qv4hVSgf5hYXw8fZGT28PRoaG7Fu3T0xcDIJ1egyNDKOpod6+1TkSk5MQpwYMlI7aVF9n32ojpyAXkRFGnpWmmeqqygr7HhvJKYnq2Dg0KkFaX1Vt3+ocGRlpSE5OQX1DHWrKV593uxTu24NYNYghwdrU0mzfKgiCIDjL+OQ4mhubMTU1hWeffhb9vX0YGR3jGEr37gwlkixzFly7cZ2fH50Qf6c/JeFICY2Nj1tXUN7vXLlwEd9/8UVcv3TZvuXD3JsCS9B1yC/IR2iobSUyJDQERx89zj/T2KZYna+9sxNz83NqHCQ9K4UHAzHqecgxm2fUTcusblq3uIDcXSwuL3FazFZOuri4iOmp6Q+tUBKTEyZcPneBW4nQ/meffR7UloMcVQku/B8ZZ+dQLp53QVtSIKRGxvSm16m73zLcXkO93/Wsxx34+wegq6MDk1Mmth6n2Ux3YZ23YHRsjNNQKd1Io3XBQU9dx57uHlgs8+ymq9XfdfClQDkxbsKQEp3ePn7cLzR0ZduY27sxNDigBh4mhBkj2QXQWebUgGSgv59XpSOioxBmcP7YjfD288FQ/yCuFl+BXhfM9SyCIAiC83h6eMLT2xPRkTE4ePQQ3vnZz3lykbJbDh44iIK9BRgbncCZ06fZiCc3Lxe+fndTXFlo0WOT1bgF9hhwc1B2E63NzdzWLCAgEMmpqWuKY8oOunj2LG4UX+ee156etudQamtKRjpnWvn5+LKxYH//AMbGx7k1S1ZGNkLVvnkVu+fnzOq43erhzccKwv2IiMqHmEnTOK5dL8HLP3gJMfGx8A8IgIeLLp1rQauJVLj/za99HSYlAsMiyMLbOQdVqqEcHh7Fd//l2xgfGUV4VCSv3BEUfAb6h/DG6z9lgZKekYXDjxxVN10DC0hKlR0bm8ArL73Ex4ZGRLDbmzOQoJw0mfDaj3+M0aFhdpi7t1/WViHTndqqKly+cFEFkXD4+vutKy7JDXZpYREjIyMs/iIijGxH7g78VdAbGRzCwNCA+sC3kZLmfI9MbzUQGFfvqbe/F7eVcE/PzrTvAbRaHYYHB9HT18vpquTSV7Cn0L4X8FHH0jVtaKiH125P5OTlOO0G6+PnjYmRcXb5DVCCNb+wwL5ne5C7MaVRDw0MYlR9rqQ0sW4XBEFwhu7eLsxb1L1+t63vJMWoifFJvPXzN/l+Wkg9IQ8eQkBQEJrrG1Cv7v0nTpzg1mDkhnoHFdMp5m82+UtpttsRlYMDfWosMonpqSl+zM2a1UvfcosT7JAa64yMjXFtKLUJW8tpnlZyqXayr78fCQlJ0Oo07PJK3gQ+6jhPJURpTODhRb/7oLamhp1gw0JDoQ8OwYCKrz95+RV1/CBSUpPUmOjBqz0VHg62ryCEBxK6SQ+rmz+ZqNTU1rIo22wVzVnGJyZQXVGD4uvFfM5dLgQDWpGqrazm9NZ7MZmm0dHSooSlra6vID8fWr3ujkAxz5jRVFuHtnbXzVfIPKChqhq9fX0fSrndLuSeWqOChHmeavfU1djkOsclJiLUEArrwgJqlBh1F0EaDTvlUt1mrxKAQ0pgOkugCpTJSUkq+Hmjs6sdQ/13jYQCNGpfSgoS4hM5EJIVendXDw82CK0miM0agjQ6NDQ1qn29XO/qDDolWNMyMxGirkdNTTXaOtvte7aHx67d6j0lIE/9DbWrc165eMW+RxAEQViP8soyvP7Ka7hw9qKKBV24RS3DfLxRUnwN4yrW7VYCKS0lFZGx0WzSt2C1QqNiD8UA6jm9ks0SicxzZpw+eQrvvfUOJsbG7VuBpcVF/p3EIj2W1yixoef09fTgtR+/jHfefgcn33vvzuOdd9/GqXffxfLtZX7cCx3b2tTEDzrHzPT0ms8jIqMi2ZF2So1dJsbvvseV6EP0XMdP9fu9nR32rTaoTMgBtV7LzMlWcToOXj4+qKiqQEdbu7pOt1mYvvbqj/HGT99UIta9Rn6C4C5EVD6kmOdm0dvTh9q6Whw+dIhTIWmg7Q7IuexmyQ3odXolCDIQEOh8j0jTxBQqy8s5RSY5I0PdrO+meoyrIFJhr9nTBQcjMztH3aiD+HeCbro1tTXw9PTiAOa/Is1mM2ZmZlHbUM89EbNzKUXHuRXOzaBVytHhIW52TDWNZD5DNuEbQeIvLT2NjQ5CDCH2rduHGjXHJyYhMz2DRasr0ORAZFwsCvJyER0Va996l/ikRBadNKAYGhzEtctXsLhkqwOhCYv4xAQcOXwISQmJvM3ZCQxaUYyNj8GxY48iNdW2sroyCG+HkJAQZOXm4LFHTyDcGGHfKgiCINwLTUTXNdbirdffRFl5GaanTDxxSOUqtEp5+eplNuhJSExEQnIKTyb6+nkjPjkJzz37LIJDg1d5HzjqCzfycpienEJJ6Q00tzajrqYapdeKcfb993H61CmcP3uGs3/qa+owPzd/RyA6HlRyYpqYwOjYBOaUOKWVVceDfh+fmGTRS6uld45T4pT+NU2aUKLGMJcuX8K5c+dwhl7z3ZOcwkou6CQyHYSGR0AbFMTn7O/ttW9djZ+vH6Kio7lfJTuOq9dcCV1HysSiWKnTabBv7x7OAGpraUEnmfYtLiFZjWmo3ch3X/w2zp0+h+HhQfvRgnD/IKLyIWV4dAQVJaUICPDHI48dh7+Pexr8U0sJSlFtbGxAQX4BIqOMLAycgVYLqfaguaUZeTl5iIqNhJcSiIR1wYr+7m4WwTSDl6sEZYgKUp72mU9qdTHUP8D1d/FxcYhWAojEpTNQi42JsREWQ0ZjOMIiwjkdxR1QbWhzs80IZu/+/Uokby5WSfxFxcbh8NFjyMnLt291D9pgLXLy8/m9BIcE27c6R7AS8kUH9mPPvn1sKrASQ5gBSSrokQMgDSxKS0t4JplSoYlQtX/f4YM4cuJRRKhrrD4kb3cGQ6g69tA+HD5+DFHGKLdNfnh5eCJOCdanP/EcC15BEAThw5BRzMDgAN589XVcu16MAhWXsgvyoCN3byXoOts60dLUxOIoPzdfxYNQFkgkphIS41F0cN8qQUl+AeOjE2hvaePVyLWgc83OzmJkdJTPRYZqN0pLUVVdiWolMDu7OtQ4ZpSfQ5O3JBBXPVTsMYSFIyc7i9/Thx55efw65Cdx5xj7z4tLVnZzNZvV6yvxRmMSEtJl5TeVyL2OKZOJxSdBk8DkhbC8tIQJJWLXgiZRA4ICVAw1oG+gT8XIGS7XcbDSJZ8+a5GKzzSO8VBjp+bWFvR19yBOiXMS7IMD/XjxO9/CpUtX1HfSz8cIwv2CiMqHEErBoBYNZ86dQUpyKrLS050WfpvRPzSA6vJyDiBHjh1b1Qh5M0aGR3k2kgTdwUOHuUbBwUDfEFpbWzFvNnPNwsHDR+Drf9dFjhxhGxsa+OeiwqJVx24GzUrW19XzjT8/rxAe9iL67UIzpaNDgxwUNZogGKMjnRarfn4+SvTpuM2IO6HX12iDEBquhLOna+em60MpPJExURz4VkLfd2xCAjIzsvj3AfW5K0rL2WiHoGN1Oi2ioyJdvr70t0mrirGx0W4T+w70Wj33UqO/U6qxEQRBEO5CgnJwaAgXzl3A2++9o+7h0cgpKoQxIozLGEymKZTa3V2pzyJlEBnCbBOWJAzpcS+mySlcu3IF777zDoYHhmCxWLG0tLjquWROM6FiJ93zSbTRZCW5smu0Os6KycnOxR4V68kx3XtFRpMDihvBoSE48MgRHDp29EOPPQcP2J/5YTTqczz/wvN4+omnsH/fAWRlZiE+Ph6+vv5YWFi+k2njWOGkuBgYaDO+m56Z4Qd9ppWfR68EZZTRCPMsrWj2Y3HxbsouGRWROJ9U12XeMg9jZDjSU9Og1wejubkJPV1dPLn6+InH1XvTcW3mq6/8GC0trUoAu9Z3WhA+SkRUPoRQW4nG2jolXAJx7MQJ+9btQ7Nt/T0DKK+oQJQaqOfkZTtt/EPBiUxTGhobERIaiqz8LHXsXQHR096OsopyXqWMCI9Etjq3jz2Q0A2ZVinbOtq4bi8rP+9Domc96KZP6andPT3s3pZbVOA24TJtmkF7h61+IjuLroV7BeJ2oNXQ7bRNWavulBzsyNmOeocuWq04e/YMz+jeC80ErzXQcIaFxUX+O3M3ZBZxP/dCEwRB+EUwPjmBa8XX8Zd/+RfIyshEYUEhZqdn2NiOhNGwEpwXL1/k5+4p2oNQJTYdGUZUC7jW/XpyYgL9/X0ssIj2lmYlnHrYR4BiAz3Ms7NsUENOstlK1D391DP4lV/5NfyrX/91fPJzn8OJp55kYRgZE+22SXEHPJEZGoaEtFQWpU8rgfnFr3wFv/Fbv4lf+7f/BobwsLurm+qRk1+Az3z2s8jNz8els+dw+r2TaK6r47IXyoSieOnj64PYmBg2AJydmlqV9ru8uIy2lnb88MUX0dLQwqUjeXv2IC0lBZa5OTW2acdg3wCOPnlCjX+MCKP3FhevYm2gutbiBivcP4iofAjp7OjCleKr6uYUhqK97nHTJMixtL25GbduL2PvPluqJ9XYOQO1uqD0mdmZaeTn5sHH+26a6NjoOIuz0ZEhnrk7sG8vO6c5mBgzsbMaCdOM9DT4+fremUncDGpa3NrSCotlTh2b7lbhR6uUo+PjHEzyCgtZyN1PLC2tPYu8GRwMybVPBcKV0GplRKQRB/bbZoB7e3vQUF0L09Td+hOqG7EJuK29NvU8pePcLSzpM1E/MFmtFARBuAvFU8qy2bdnL379N/89rlwrxgcnT3KZy/DIKBpr6rivInHg0CGuCXSwXr3kpIr3VIIzOjaCV195Gd/93ndx8fw5FTNHlFBd4Mf09DRG1HNogphcY+NTkhG4wkPhfoJTW0NDOLY1t7Tg2vVr+JH6XF/7679iN/rKm2WwWqxIz8nGb/7Of8CeQ/vhs8K0yJEa3N3TjdIbN/g88QmxSEpMQrDBoMYoLSi9fh1ajQaf/sxnWJiSORAhK5XC/YS0FHkIWb69yG6aiUlJSM9IZ3Mad0BCjlYSY6JikZmXDa3ubi/DzaDA4eHlrY6NRlZeLoJWtNGoLK9EWVmZEpejiI9P4lnDlW02qC8UzYwagkOQkZWFII3zgYfq5antiF6rQ7o6NlAFB3ex28MLXipYUN/GmLgY+9b7B/raHeYAzq7sOnAcQ6FwpcCn9i9kslRSWsoOehbrIhITE2FYUYPJr6WuO6Xfuvq6BA1UyJbeXX+3DqiehtJg6bxbeV+CIAg7DhUjKEZmZGfiyrkLqKysxGOPP46s3Cx0d3SzkyoJQDLHe+6FF9j0j+6fPPm3vMyrlQ5GhkZx6cx5XC6+ypPQBMWM3Oxc5ObkKPEapeKCbSJ6bHiYjffo8AMHDsE/4G65y/0IxVIaeyTEJSAxIQFBgUGYU2J7WH2O9vY2TE2aEBufwGUgjrKgO7FTfUYSkmT009Laavu8/n5qvydM4+PoUMd7qDFOfEIi0jPT1HXvYoOkpNRUhIUaOLtq94rMLkH4RSGi8iGEekvRzJoxMgKBfu4TUXR79PJV4i7MAH2wbs0mwBvh5+8LQ3g49HqtGtjbZu7mrRZcPHseFZXl3K+pqLAQhXsKV7XlIJHh7++PMGM4BzRXbq4khP3UsSFhofZjnVvhdAYvH1sKDZ3bXT0v3c9t/p5cFlE8TlD/T31PdKQjOFLfLbr+0xOTGFKDhomJccRFx8AQEbHKpIgCsON1XX1tsrD3pO9YvaY7hSWdiVYqSexKgBYE4WGHVsHIJI9SPKlV2Ms/+jEijRE4euIEx7Sa8kpcvHQRAf4BeOrxJ5Gem8kTvP0Dg0pAjqjjbsFXxXWC3F4tcxaUltxAV3cXr7rl5uTh0MFDSEnPsAlK+6QeQU3+/bx9uJ4+ISXZ5fHELwKa7NRotdCHBLMrbGx0NLfFCgwM5EdSSgq81HNo/ELjMEfcpH89dnlwXKuqroJRHUvjGepnaRqfREdnJ2bNs9ilxjoHjxyCTo2FMrMyERMbzWZIFLeox7XELeEXjYjKhwwquqcaREov9fdz78zf0q1leHp4ctG8qwGAa/SURqFA5RCURFNDM64VX8NAXy9S09Jx/MRjCA5b7TxKopJXSVUwc/WmSuKGHj70um4UlAS/JxVA3CEoyd2us62Na1h8fHw5gLgLqvsYVoMAD/VeaUbaadT3RSZHA70DnOZMkwKEh/obIGMFauBsnp1hG/VIY6QKsqvbmFBaM7W1oVrGoCDX0pqoLri7sxu31WWgGWF3MTtrRkNjAzsS+vh4q78LaTItCMLDB40VyDRmcWERE1OTuHzuIq7fuIZnn30OaZmp6Ff3/eIrV9Dd1YnomBh85otfVAJKg6XlJVSXlqOqslLd1zUIMQSrc93CkhKmXioWDPYP8GQjGe4cPfYoklKTOUOIVihXThJ6qvuvXglKQ0jofb9K6YDev4cSiPRZyFk/2BACY1SUEsYGRKp/KcOKPqKSk+r/8f+nQQjmzfPco1uj06Lkxg0Vh2aQlZXN7rqUQUw1qO1trbBYLcjLL2RX/Qgl7gMDAvk8tnEMCUsP9Pb3wNfHi0W5IHzcuHcULdz3UIrF8hZq2TaDLbFV0KCaN1dZr76OLMHJSXZgsI9d5eJiYhEVF23fa4NmP+mGulVI0NxvtY5rQU6yN0tLUaYe6zVY3iq9alBw5fJFdLd3sKmAK/R1d+PKpYvoaGnhti4EGShRe5Hk5FT1sx+3VGlTD7N5tXU8pfCcff8DNNc3czsZV+ju7MXpk++jubGV29i4C+uCBefeP4Pzp8+if2DAvlUQBOHhgNzhSVBalKCk8cKiEonUA7r4+jXEqBhMzfmpSX93WzsamhrZmC05MRmRkREcsztaO1FZVYlxJRxpNY6iq23S+DbXDmbn5qGwoIj7JUcYjbYXXQcyzNHonS+juR+hyUljVARCww081qBrYVXikDwgSGyTWVFrcwuKL13maxoREYGRkWHMz8/zuIjqWXOUwKTSouGREX4eCXeatKb+lbfUuMvmCTCP9q52nD51GhXV1TBNrd3eRBA+SkRUPkTQTBbZdq+0snYXFHy2Ku7oWOrZdO/xI0PDqG9swMTYGPdnSklLu+P46oCOoJvzeoYAG0E37G3o0Y8Vai1Cs5CDw0Po7+tlkelOxsYnUF9XpwSra4Holrru5NDXUN/AbV0cUMrTsaNHER4ahinTJPfa6mjvsu+1QceSAVN9XS2Gh+4e6wz0nXcoMVxdVoa+/j771u3ja+/XevHSJXbjowGWIAjCTmdZCRVqqF+uBGFHdyfmLBZbXFUPmjCmlMynnnqa6+Mpy6StvR1jSuSEhoUir6CAW4I11jbi/ffeRSe1wAgxIDQinFc6VwbamPgYTp89cPjwhi2ztjNZ/IvCPGPmXtnDgyNY3uT9k3HPvHkOkxMmdLS1oazsJt479Z4S0t7quvjApLZT6jGt/iakpCA5yeYEe+HCeRVrR7mmkibxaZGAJvUX1HXu6+nH22+9jR9+53uoq6uH2XzXJE8QPg4k/fUhgl3VlKik9Fd3Qjc0ChxbXaUkUUmPldCM58XT57nJsWV+nntF7T2wHz5+q9MzKaWGg88W4g8F0QeljQTNSnpgN3qUoLTMW2CMiIR/gE0AbRdKMepSA4TRsXFoAwO4tsXZOkfqmdWrBhC0qqfTaBAdF8v1IfQwGAxobmpmZ9/JyUkEBQQgPSvjTqsYSovq6ezmwQkFzvikBKfTpvXBenS2daC5rRWGYDKdcv7YjaD0LKj319zQoIK+BTGJcQjRr063FgRB2GmMTYzi7Z+/jb/5y79ETEycEo/BXK8HdS+nEoOs3Gw2nCM38xtXr6PkZgmnZRqN0dzH8dyZM3j//VPsYOrt7Y3MjAykpKfZz34XEqi0gkmPjbil4vpWJot/kfR1deP06dPo7+1Buvr8DtOhtRjsH+SsI/+gQGg0Wk6FpTYtQ0ODnEIb4O8PvYo9/oF+LDTpTBUV5TCZJpEYl4DQyHCuZbWl0tKqricL/EkVx0tKbmDRusitT0JDDXdiriB81IiofIigthks3tx8n7atgCqBpv51FTqOgsy96a/U+Pi73/4OhtUNNj4hAfv2H0BiWpJ9rw1KfaXjt7pKSStlD9JsqM4Qgu6OTkzNTMNLCaiomNWpwFuFBCv1yerv7+eUm+i4OPj7OSdYydQG6nsgYUirh2T9HqCEKUGmPVCanWzhB/r74KuCZKQx6o4TLIlAmhRoa22zHRsdA52TqU6UFnX79i60tDRjaWEBcUpU6rTuSZMKDgnmvqfllRUwhIQhKyvLvkcQBGHnMWkax5XLV/Hf/+ufIDEpGU899wyvTNI92hHfd3vuZtdSKlU49e5JNtyhukgPj104e+4sepSQSk1JxZyK3dExsSgs2sOGNfdC8ZomdDfDlkn0YInK0eFhNDU3cqsVGrNs5KfwvRdfRH1DHaIijEjLTEd6ZgaKivZCHxTEk8c0oT4+OqpEYbi6nlHwDfBHWVk59+8cHRtFTl4BwpSIpHHXwuIC+wGQeMzIycSMaZpXPRctCzDGRCJMnUMQPg5EVD4EUArfW++8wzcfXyUW3NXc32K1orG5GRUVVfDw8mB3T2dXiyh1o6mpBdVllfBUAoHts+2rY3Nzcyi7VoIbJSW8Snn48CMo3LuHHWsJqiFob+3kHoh0LLm3OruyRvUMVMtXX1OjBJEXfPyc72npDGU3SnnW0NfXX10L92aX28TfEs9k0jUyRkbfMcfZLlp9MPp7epQAHIWnupbxiQn2PZsTqMTcyNAQevuUcPTyRkJyon2PEsI6PXo6uzhtd27ODG8PT+QW5Nn3qv0heowODrGNukYF09S0FDYecAaNJgjjw6Ooqatjhz1qj+MOaLXSsrDI73t2ZgYp6anQah7suh5BEIS1oBTJmto6fPPrX+cxwp/97z/nlhgO07ZFJShJtDgou1GO69evY3RkmMUmpWpmpGfgK1/+KmdBkeBJU+IyLTtzleM3YZtAtmcXbQBNGNK5HzSoRpKEJV2D2Mgo6FRcXW8cMDQwyBO5ehUjaUKVVhppbBYWEYECJchjjJHIysnlzCE/NU7ZpQSjlxpc1Dc18gpxanIqgkPV+dX2hrom/v6grltySjKSVRz18/LF5auXMTc1i8SUJIlhwseC1FTucMzmGVTX1eDVl19Gc2MLZmZn7Hu2j3nejNdf+QnXUFAtAacOOgkVp7/9+s9w7vw5NnBZKezmzPNq+wXMTE9x418yfQkO1tv3KjE7b8XZ90/hwqWL7FzqCgtKzJ49exrXS27wjJ+7BDbVOPZ296Kqphqdre284vdREJ+chJDgEF6tbGlssG/dPtRIOUENJMixrrOzg9NVnYUCXnpaGq8etrW1YmxozL4HnLqTnZWFhPhEmFQgbGltQ1trh32v2u/nx7Wyfv5+qKutRV//oH3P5gQE+iM1I0MFZS1qq6vR68baypT0ZH7fVAtaWlpm3yoIgrBzIEMeEimv/fhVJU488V/+658iJjYGfvbG+lSGQkJwJWWlJejr6+XYfOTwEXz5l76Mz33xS0hMS8aeAwewf88+ZGRlIzBg7XZlmy0+kpv4mVOn8P4772Ji1L2mdB815KgfER7BP3d1d8O6gfEd9W8m0W0ymTA9NcXbqGyE0ou1Wg0ycrMRrb4Lbx8vrq309vbE3kP7odPp+LnF14rVtRribCE6hlZ23/r5W5hQcZYmWQ8dfwRPPfEUtOr57pw4F4SNkL+0Hc6sEk7v/uxttLe1sYuan92IZLuQ42ZXRzcuX7kMTZAGvkoUOLvCROkzZNpSVl7GdXZ+K+okaQWuXQmP1rZmvknm5eQhKjYWnurGSpDDKK00NrU0c98napzs7A2TnE37e3rR3dPDIure+sztQC0/rl6+xJ+N3pefk+mjrhIYGGQTf+r8y26cySVXuuQ0aqQcxteTTASchZ4fm5SEJBUkCfoOHVA/rpSsDN7noURnX38Pbly9yt8t71d/M0kpychVgxDaNjszy9udgVqXJKQkcD0PsfJ1twsF5ZTsTKQmp2BmaloMewRB2HGMjY2hoaZRxcRePPf8cygsyuOezw7IQG9RCU+CsotamlpUbG7jCd/kJCUi9+1HVm4OIqLC2USP+lPvOXQQEZFGeKyoJ6SU1/k5CyzU81KdcyN6ujrR3NKCkbFRrs18kPDx94XRaOS41jfQD/MG8YzMd/R6HQaHhjA6PGTfehfOKvOmtUlbfSnVTlL8P7DvADvuNjU2orG2lvuHhoUZcOzII0rsqzHZ2QuYnplGTGQ0jj/5GA49eoQzwQTh40BE5Q6GVinb1Q2amhMXFRZx02JfP/ekS05MTuDK+Qts/LNXBRZNUKB9z+awPfmlS9xzqUC9LzJ7cTBlMnHbDOv8PNfg5ebl8Y3XAaUjUi0HpcbkZecg2F6f5wxzc/O4dvUKp8Dm5eSqAGiw79ketEpJDrVkdKPTaVWAjdrQ1W47kPiLVaLywKHDiFdCzp0EqO+waO9eroUhYewKlIqam1+gji2Cvz1N2UFwiB7JKoDGx8djWn2/5eVl6O7q5Vlwx/7CA/tw5OhRbvbsCsHBwdirBjEHjxyBRuvasRvhpQRrfFwsnnjmaWTmZnAfTkEQhJ0EtfiIjI7EJz/1SRw4fADaIC08dtkM4corKlFyU92rO3t4QpYM4oovXsbI6DC8KbMlPgEpaanqfn9XhNJ9klbZ7i3LoAlDcji9dOYcp4duBBm7kf9DgBJCgdog+9YHA8rWCQ4xqGugxYj6nPPzc5zKuxaBgf4ICQ7FvPqs3V3d3B7kXmiSdWBgiN12yRCRvq9DjzyCkJBgzJlnUaLGSjcuXsXE+CQy83KQnpGFC2psReeja05t2MjUh1YzaVVaED5qRFTuYCYmJ1F1s5wbGD/9/PNqwG4LGNuFZizHxyZwWQm09PQMpGencyqiM9CxI8NjuHbjGlKS05CSnn7HFIZSPHqU2CivLOfVr4yMTCWcEu8ELaqlpNq95uYmhIdFICUj3eZO5wQkJCmYkaFMsD4YicnJvFrpDuZm59BQV6dE0hIy1XvWrUjV/SjQqECbkJSAqJgo+xb3QKnA4cZwJKeludxsmlcr42ORnZ+3KlWZoNVK+h4z0jL49+FR6rV1SYl8C/9Ox0ZHRyG/KJ+DpStQEI9PjMPeA3ug17r3ukeEhSM3J1u973R1bT6aSQJBEIRfBGTAExQYiLz8XDzx1BOIjY7h7dSXsqykDD995VW88tJLuHLhIreqGBocxtXiq1zGEK+ESmx8PIJ0d0UfGeeR4dpaUA3ljWvFuH7jOiaVaFwPq3UBMzO2Nhhazd3J5AcJL29vREYYYQgN5X6eGxEfF8erjyTaqTTnXob6BnDt0mW01Tcq0bnM5nexibFcTkKrlbU1VXj35Lu4cOYshgaGsaewEBMT4yi9dgOj46P2s1CW1iLmlMAVYSl81Iio3KHQzWN4dBjFxcU8KM7NpxoH11af1mNM3bSaGhpZrD777HPQaDSciugMlO/f2tjIIu+x449CF6LlVBFidGQM9bW1HLRoJvTo4SMIWFGXMTkxxW0k5tTrFqmbZ5BWy4LEGShdt62lhdNICvLzodXreNVvu9As5Mz0NNfzkf031fhRs+MHGbou22m1slYfVEOYAWnq2hgjo2BV3x/V0g6rQYpjtdIBN3NeZ2CyGfQ3RbO57oZWxRcWnE8HFgRBuN9xCBnKyqD2FQQJyt6+Xs7ouVJ8BS2tLWhvb0NDbR2qbpZhaMS2ypibk4PIFe7jJCiX13Fhp9RXLpfp7kZQkAb+QeuvPg4PDmFqegbePr6Iioy0b32w8FbxnzKwPvWpTyM0PGzDcUZ0XDyKCgqRkprC6a33sqS+j4HBAXaCpdpLB9ReLSoqhsc/3V1d+PnbP8f3v/cdLokJCTGgW13radNdvwk6M7V9s6jYS2ND2+PBM0IS7n9EVO5QxidJvLVieHgITz/7PDQBQW5ZpSSoUX2xCjoxMbE4cOSA8/n6StANDYywSU5oaBj2Hj4APxU8bLtuc60k9b6iG2Wk0Yis/DwEaO6KSrLXrq6pRXBwCPYfOcT1lM4yNjyCuvp6+Pv5spmAu4Sfec6Mns5OTlNJT0mBv5Mrtvc7JNAcdY+uwO1d1HdJtTgrsaVZRWH/vv0cPKdMk1xbOTl+N1DS3wC9LqUTb+W1qU8qCUB3C0v6TLSKTjP7giAIDzokKBYWratSLimLiGos//mb/4jyigrOAjp04BBe+MxnkJKegnMXz2PRauVyFTJXC4sItR9pYz1HV4vFio6mZp7QjYuNReAGonKgt1fday1c1xkS/mC2wSB/CTbUCw/dtAwmJDQYhfv2ICM7e00nd6MS1uFh4Vxa09Hcat8KZOVkKdFthI+fHz8oq4Zi7g9+9EPkKcH/xa98GXHxtpXnldBKMK1Y9vT1YGJyXISl4HZEVO5QyH2UHhnpmdh/aC+nCboDCjy0QkkppI8ee9TmEuekQQ9bk6uAYVCi8JHDR1aZ2QwNjqCzvR1joyPsKvfo0UdXCT9KfaXPQ3UIBXn5HPCcXaUkoUKzslT3l56W4dZ6R3pfc/S+ggJRsG+v29xk7wfoum0FEmE0K0qz1ysJDTewVbpBBUCCViupAfS9ApJNgtYZoGzGWnUp7oBWX2m1UoSlIAgPMnQPm5s38z3aAcV18l/4vd/+HRRfvwZPL0/86ld/BV/+1V+G0RjOpnxUE0n36v1796t7+F1BSTGQ3NzXyzChdiQNjY0qLtxCakoKgjaok6S2VNZ5Cxv4UfroA40LMYzbrKyx0kvjCmrvsrS8iMqKcixZbd8ZpcEW7tmDtLR0zJvN7D/xuS98Eb/85V/G0596HnEJsfDxXru8p6m5GX//t9/E3/7V11BeVW7fKgjuQfpU7lC81E3HoAbx+YUFvLK320nhtym7dyFI3eiS0lKQkJTIPSKdhWYyg4KCkJyaqh7Jq5zdKkpu4uo1qteYRFxcIp7/1KcQELSi/6S63/INNlm9bnKiumG65tzqHxCIhMREJKqg5uPj66wO3hQPFXypx1Syel9B9xjUPOjQ90XC3dkeoCvhY3apY+ln9Tfj2LZb/bxL6bLGxgYsWK3Q63QIiwjjvwsH/DwPx7GuzXtRnzV+z+p13PY3r6Az3Vb/Uduc3bvFtEcQhAeL0fERvP3zt+Dh7cGTzB4r763qfkk9oc+ePsMTaJ984ZPYc/AA+zAM9A/i8oUL6Oho577Qn/385xEVEw1PNcYg1/Ou9i68/tprnEYbYjDwvXslVB5y4cJ5fj0ymKPJ3fXQaLTcTzEhPh7BK4TrgwjFT2rT4kwY2kWxkuPj6mtH2xaXb8E0PsEGRrGxcfydUHzTanWcgdXR1cmTAv6+fnju05/gVGaKgxS0PFWsurd3OE3md7a1c3rz7aXbiIgxIkTvvOGhIGyEiModCM1E0syXl6cX11G6c3BNNXDq1sd9BV11kqVZTrpJUlPllYJyXN0wrxdfQ2VVJTunHTxwAHlFeasEBQscFbR86dhNit/vxXazBvdy8iaLbvddDg4C1LR4rdSVjxNKGZ2doX6fFERWB6btQm1paA6VBgV0LZ1CHUDfmWlqWn3x6lg1AKFA6K0GJUEqGNbX1bGT77R6REVGs+nQ7hXp2bRKOmkycY0IHXtvYNwQ9drkTkyzuzQIWjV42gb090t//6apSf7f2HozwYIgCPcTw8ODOH36HF579SeIiDBy6qqvfWKW7mkkJCkDqbujm1NPTzz5BIyRESxWmhqacOr9k/xzYdFeJQwPKvEXyPfzadM0qsvL0dTciLz8AuiDg1eJSupxSauYra2t6nUjkJmTwzF4Pfz9A6DR6VWM0LDhzQOPuhTOjL9YgKoYt1b2FYnEBYsFrW0tmFPXMicvh8dGnt6eavsCJicm0dvdxWUfefn5CAwMUGO0XZwOe0sFQxKW9O+seUa9jq3mU2fQY8m6hOraGizMWRGfGM+GQYKwXURU7kBu3VriGrB7mxZvF7ppcSrp4voNfdeDB+Tq2JUpNw4qyypQVlaG4aFBpKSm4Ymnn1GBZXV7COptxek1pG5chF6bau12MrUVVairrUWQRsOucO4SzlNq0HDtyhWYlTjUBOt5QsAZ6JrTsVcvXITFPAdfFejIUZaCobenlwqGVk51Gh8b5VTqcKORDZ8cTE6YcPncBUxPz/AKNT2cgf5GhkZHcPX8JTZ28g/wg3bFebdL8bUbKL1RCh8/X4SH2Xp6CoIg3K9Mz5hUfC3HT155BUHqPnzk0aMINYSy+KNJOzLrWVhSMV3FVo1Wj1QVg6NjozgbiNpiVNwsR0V5GZvnfeqTn0JsfBy87H2jyZ20tLREiZVdeOT4MfY5WHlPZPMZFYw0gYFITk1hg7yN7pnqNJx6uyMEpYIEpbMxgmL2WpOn9D3RhLp1bp5TYaPiYlnQE7TqSPG1tb2Ny0Z2q+8wJT2VJ+1JqHJKrXp5auN27coNHiN4+/ogPDwcuuBgXum8duO6+t78EJcQAz/fneEJIfzikBHRDoNWUKxW60ciolicbbFmjQQliVy60a2EXOEa6+vR19fLtZRJCYkwRq4u0KcZtzs3SBdxiNmdjkkFjQElyqm1CaUbuQv6expU56UZzYGeXr6ertDd24Pi61fR19XDtTeEt6839h8+DKMxUgVLD9SqczdU13LPUwf0nVHrmIsXzqO9pYNnyZ2F/l5qVfA888EpdKvXdeXYzRgZHMLJ906qgVYFhtZoWC0IgnC/YLGYUdfQgNMn38eCdYHTTykOk4ikMQL5HCwuL/J9ncRLYlI80jPT4O/nz/fgjrZO1NTVsBlMYkIyklKVYFH3b8JqWcDoyAi3LouLjeH+lJRVshISPwEB/kjLTEdkVNSmngPungj/RTM+Mo7aymoM9A5wNtFGUB/tjpZ29FIP53uuQ3BIMB45cRyZebkk0++gDdZxezT6bmampzillVz0yTWW4MyaSRO6urpRpsT/D37wPbz/1ruoqaplg8WjJ04gJSkZZ06/r8YQJvWduy9WCg8nIip3GJT2SjeSrQiwjeBVSnWjI4dNV6GARaJwLaHbXNeE9s4OviEmKkGZkZXNRegruaU+y1bbTBDbaY/xoJCTXwB/X1/0D/SzG+16DZddheo3YmNiYTJNoUGJf5rxdAaandWpYxPjEzAzO4f21lZMjE3a9qnBS0RUONLT0qDT69Hd3cXpUWMjd/tqGUJD2IRgdGxUCeVaDA/f3bcRJFKNxgjk5ORgfGIS1eUVGHSj+CvcV4jkpERcL76KhgZqjSNBWBCE+5N2FQvOnfwAN8tuck9E4icv/xiDg0PsAkqCkqH4fM+E8aQSI2SeR624qOa9ID8PWr2W79+8f3wSjUqwennaWmish7MTkUsuTlg+CFBa6sVLl3Dj+jXOvtkIyto5d+4MLp4/B+vCwqoxHJXuGAwh/O+9hEdGIC83h2MfO+SXlWN6apb30TnGRsdRU17JY7CsjEyUlJXi1ZdfRnlpOQKDAvDUC8+hSH1/9D3S2rIgbAcRlTuIxaUF7kPk7lVK6l1Fq0wrV5KchVaJeEZU/XvvKiWd79LF8+jp6eaUzQQlQJJTk+x7VTBappVRJZKVoHRVJFMgowc1/XU3m804/iIIDtEhOjqGg1Fzc7NbVytz8vKh0Wo5XbWNrOFdCP4Fe4rYjKexqQkd1CdUfacOHjl+nNvSkABta2vFzWslPCHioHD/PsTFxHErmHpayXRhxbFg/14lhmNQWV2FhtpG/ht2BzFR0cgrKMSwEsA3rhazBb8gCML9yM0bZThz7iy0Wj3Xxv/TP/0D+vr7MTYyZnPZVtD9fJkfq+NaU30jWlrb+P4cFhrBxj1ktOZgbGSEe1brdRrEJtgE671Q3HY6U+ie8cFOgMpRyDRnaHgEg7299q3rMztrRlNLM0xKgK4XZ+kqrXRWDwkNQVZOjor/0XzMWSVKx8eoXYjtupNrfk1dHdo72/GZz38Bn/zkpznN9nvfexE//+kbXFv7hS9/iVeabWcXhK0jNZU7iOaWJvX/d8HTw30tM2iFsq+/D1PTU3wjcsUwhVYXBwaGuIcjOcWtMmJRAayloQUnT53E1OQE8vILsf/AQYTZU1/JfnxkaBRz5jn1eXarYObC66pjx0bH+Gbq6bV28ft2GB0eZQdZdxvibJegIC36lECfmpnh2oro2A/3qdoKVJdI7nO9/b2Yn5vjFChnaysDAgO5bqN/oI8HMZSq4zA1CtQEYkINboZHRzGg/sZ2e3khLS1DfQ5b/ST9O0mzrLU1/PeQnJZ6Z99mkMPguDp3TU01u8ymZ6vzusmIwNvfm99XWXk5dPpgZGVl2fcIgiDcH1Dpwuy8GfMzZh4bdHZ14sjhI/ij//KfEBUddeceTuKDvA5WihiL1YILZ87h2rUrSrSEcoP+vQf33anlIwb6BpSwHEZKSirikxLsW+9CgpIFq5MTeos7LPWVoLrF1uZmTIyPcZ1janrGun4Hu3Z7wmI28/dk0OkRHhmJtVvBUZ3mrlXfBZsBqa+PSkmm1VgtKsKI0IgINl3y8vZCQEAAbly/gYV5C579xHPIyc/HbvV8muwNVM8p2lNkn/AlwyDXxluCsBIRlTsAq3Ue9Y31+Is//wu+sehCdOz66g4sFgv+/m+/gVMnTyEmNg7h4WH2PZtDTY9fevH7eO+ddxFpjEJo+F2LcLN5Hj/6wQ/QrUQQOXQ+fvwEcgvy2dGMoJm4n77yKluRhxrCXOpZRYHszZ/+FFevXkWILlgda7Dv2R60Qkl9FT94/xTf/ElQrJWO8ouC2rssLixgZGQE01MqsETFsCB0B+TqNzI0xKmkHkqwxicl2vdsjiEsDJNj49xw+dbiElIy0ux71N+quoZjw8Po7u7m+h7an1uQZ99rC8pkRFBVXQU/Lx9k5jgv4HQhenWsBRWV5ep/DxpkZbtH/JFQJpv3HhX8x5QgTstOh16rt+8VBEH4xVPfVIf3fvYWTp89zY6vX/2VX8Fzn3qeU1k9PT15ko+9Cij1lYTfikWq6vJq3CgpYdfYNCWEnnz6KTbZWQnFBBJJcfHxd1JiV+LIStms/GR2dg7fe/FFtLe2IDw0HP6BO6s11/DAIMaUqKRxTlJKyrrut3QNyRypsrISlgUrkpOS1zSoo++LJvdXikoSrGSyVFlZwa1hqM41OTkV4cZw3keT4BSDa+tqkZKShsgoI1JVHN538IB6T0lsokf1rjTBYHPLp4cIS8F1JP11B0C1ES9//yV0dLQhJMwATZB73C6pqX99fT0qqioRqYJSYIDzN3taYayvbUB5RbkSlEb4rTh23mpBa0MzGhoaYFWvkZdXgITkFPgG2FawyACgub6ZUyLJudPX13lhRDfFzvYOdHR2cvAMctO1IG4v38blixeUIJ5DoBIW5Lx2P7Fr123EJyYjNMQA6+IiTCZbDaM7CFDBLUkFOb1Oj4HBwTupNc5Aq4bJyclsF0/povT9OqDayQw1MElS+yfUvvrGBnR2dN+ZNQ9WwjA1PR0xMTEYVK87PzfP250h2D7ooQEV1QbNWyz2PduD+rGlZ6QiP7+ARTbVJwmCINwv0EQzrUQGh4Tg+Weew6/+619D0b4i6PV6FpRER2cXTr/3AUqKSzirxwG5u5eVl6K3t5vN8xLi4hEeabTvtUGTvlTDR2Yv5NZ6L1Q/2NLYhCY1ftioXIT20X1/YKBfxauZLTnL3+9ER0WpMYw/+xIMbJACSz0tNVoNotTzBwYGeGJ4PeOiJXX9LXNW7hNKkCClOPv4ice5lIhM++pqqjHQb4tNWr0Gjz31FGeMnT51CsNDw+p5QQgPD1VxUs8r02SaSGUi1DlgUX0PVE5FD0FwBRGVDzhm8zQam5tx/uJ5HNh3gHtLuWv1jFJe33/3pBKIZuzZt58FgLPMmGdx4exZruPILyzkvlgOTONTXEs5OzMNX39/FOTmrlrFJEFK+81KLOfmqH0rjt0MujGS8KPawkwlKPQG9zT1peA3pETN6Ng4p2BGqBu/l31V9X5CowtSg4c9OHzwEELDnF9V3gyaxaT008OHj2Dv/v08m+kslH4cl5yEJx5/AoV794L6ejogU6b0nGwlLDN5kELX+MKZM0oU24IZHZuojn1aDYwOHD685gBmPSh1KCk1EZ/+3Odx9LHjLh27GYbgEBw5cRT/6td/HXExsfatgiAIv1jIPGx6dob7OecrIfnoU08gLT0VuhUrjRRj68orUXztGkwTE9zT2kFrYys6leCcMk0igc3zstSYYnWLD1rUXJkuey9DShRdK76K6qpq+5a1scxbecKPfBeC9VpeUdtpRCtRHqrGIQsLFrS2tNi3fhiaFKaJ15ysbJ607Whrw6wae61FY209Pnj3PQz2Ddi3AL5+Pth3+BC7qhNVNVV8DlrZpL+FmLgo7Nu7H/2DAxgeHOEuAZxea4/lZMJIDsEWtb27rxenT5/Fe++dwuj4CO8XBGcQUfmAMzI2iitnL/AgnxoWU6qnx4raxa0yNTuN9rYOXLtxTd2I9iEpLdnpVMqZ6Rl0tXWhvLIceUowJiYnwN++qjenRF9PVxdqamv59yx1A01UYiVQY1vJpNm3HhXQqFg9Tt2MY+Lj4efkSiWl2w709qFDnd9oNCIhKQm+vu4JUtOmGZTeuME/Z2dnQxd8f6Y7kvijWozUzExotO6pIXSg0eqQkJKkgtPapgwbQWY9KelpSE5J/pC/HDu9ZmRwug65AN8ovcF/PwsLNmEZYghGZm4GUtNTXKrpJUJUMM/Jy0J6RppTTaidhYIxzeDvKSpAyH36tyAIwsPDwqJVxddZTCgxaJm3sEFMTEw0YmOj4ee/OoZSbK+sqUGAiss0Qeq4r1Ia7A0lNIeHh6DV6fkeFxP34UmzRXKKXcdYh1xkmxsbeWyymZ+BeWYWnd3d/PrJlK3kt/NEZaCKw4mJSYiLVdcyZmOfg91eHsjIzkKWit9U97p2TSWUKBxEfUMDmuvrMTczx9togpZiaUF+PvT6YPT09PD3MDxkE4UkLA8fO4bDBw5yi5KVHhcOSFjS99fd2YP3330X3/vOi7h86Sr3OhUEZxBR+QBD/0Nva+3AuQvncOTQEaSkJrullpLMeYZHRlB86TL//tiTTyJYr1M3/s1XesichyysqWE+zT4eP/E4gtXA3rGyNTw0ivKymzwLSr2vDu0/wCk51BSfzFioRq3k+jV+7r49exGiRLIzRjs0azo5MamE33We5dtbtIeFH83+bRdKMRno7cGIem8kICjF1Mfn/m3O7KGutTs+973QOUm0buXc9B066kDuPZqCYVxiPAdDLx8fTocqvnz5jgU7/e147LYZLrnqbExBmR58rPq7oL9td0HviR7UPFxaiwiC8ItgZnYK7Z2tXGpSWlaOSRVb12v9RfGZsoeuX7nKq5U52dmIjInifRQ3BweGbGYvJhMSEhN5YjZIt3pycqWD91pMTk6qWDnC6ZwJ8fEcM9ZiWYnS6SmTivnDCAoMVOI1fsfVUzpISknFiSeeRG5hvn3L2lDspjZezzz/AlLS0+G3zqQ47aOMqY7ODvT39tm3qlipHvsOHbwjXptbm9FUV8/jI4qBMbFROP70E4hPiltXwNPfDq1WUtzt6urAd7/9bVy7VqL+rshR1rX4Kzx8iKh8gKHathsqOBAvfPpT0GmV8HPDKiWlQPT3DOBq8VXkZuciJy+bC7mdwaqOJVe4kpslXCuXlZ/FxecEpaa2NjbyeUk8JCWmIC0nGwH2VcoFJd6G+gc4nTcyMkodm7fuTfVeSGyMDg2irb0doYZQZOXluk34TYxPcJsOammx/8ABTjF92KEByEbpTxtBToMrLdEJskXPzsvjvwk674VLF9TfYB/Xd6yEzCW2+rr39mFzF3QtqAaF3BYFQRA+DqjejVy1y8sr8bOfvIGv/dXf4NWXfmRzclX3pLWgFcaWpjbU1TcowReHpLQ0aOxmMOa5eVw6e55XGD28vJCRlr4qK4Xu2bQqNjs9i+UN7qX9Xd1cP2gICYYxOtq+9cMsWBbQ29OjRPEs1707aj13IrRaSeMGZ/tHBwb6KxG4a91YZ4wy8jiHavo7WluxZLVNau7y2I0wYxhSk1PU9Tdwf+i6ujpMTd1tMUbeGLvUfzRmWu/8CYlxOPTIIygsKMDg4AD+x5/+V5SUlGFM/W1InaWwESIqH2BM01NsP031aPlKRPk62eZhM2bnZjGjbkLRMTF44pmn2JLaWcg0iCytI8Ij8fgTVBh+N1B0tHSguqYaFiUutVotnnn2mVVilbZT/aYhJBSPHj0G73VSP9aCZtYmJybYmOeRI0fg4ek+57IFJWxmZme4mX98ctK6M68PE+Tot5mr31o4+o0uqEHJvcIyNEx978eO8ozqvPo7uH6tGAN9d01wHH1OORiuM2jaCE7tUce6c7WSoM9EJkBbFbuCIAiuQJkR5Kb93X/5Nv7oP/4BvvPit9nU5bASAhRTqT59Lag39Ks/fhnz87NKNBxBVIyt/o4mxsZHx/Deqff43ks9fuMSExASFsz7CTr/lfMXcOnceUya1k6HpHshxXgyCqLavrCI9ev6p5XwNKnz+Pr4Ii01za017/cjyyreLd92Pm7Rd0KxcD2oN6VWq0OTEo693asNgKi2MinR5tDe3tGG0uLrd+In4ZgUpn/XgowI9x/ah6/+2q9x+dPMzAx+9zf/Hd746evsLi8I6yEtRR5ggnU6FOwrQnZujtscXwkSgoYwqkXLR1Jy4rp5/WtBzzWEGZCTY6ulpPRAYmbWjKsXL+HMmQ/YnCc3OwfPf+qFVYLV09OLc/3T0tO4ZYUr9XP0uqFh4Uij2dWEWLcKP6olzFbvNz4hEQFOrtg+DFCQ2tLsMsU2dSwJ/1W26D7e8PXzR39vP8ZGR9DT24O4qGgYY6JWTTBQrZCH/XUdadXOQjVD/J7VYe6ssbTl9Kr3JT2+BEH4CCHBVnztOv78f/wv9W8xt/2ith5PPf4EHn3i+Lpxk1NflWAkkxfKIqLaPUfLiomJSVy/fBWVFeX8+ydf+CRSMzLv+ChQyuv4+CRe/+lPlDBd4vpHcg+9l4HeAVy/fp2b/ufn57P77HpQayaauI6KiEByRvp91Z7ro4JizkZC8V7ouSTU1zomMCiIe0B393ThlhL8K9ttkTP97NQMp0J3d3Vh3rKAPXv3cIx1xEyK3/TzRjE8MCgAKWmp8MBuNLe2sGP/wSOHEWmMkDgnrImIygcUmqlcWlpk1zbqT+jhwo1qI2gVh2Yk6b7j5+frkqCkmS9erVEDbDIGWHkjvHG5GMXXr7FYoFqNz37uCwhWwnUlt+jmuWs3fx5XbrwE3SBpXO/t6+32lUS6FiQWfNWN2n4/fuCYGDexRbmXt7o+blzFpetOIpDSbhzNtJ1GXcye9i4sLy7DP9Am1n28vHnFsqqqGvNzZlgXlhAabOB0HweOGde2VptrILWOcQUK0i1tbbwCTS1r3AWJ3eGxETVAG7P978dXJiAEQXAPVM82ODSghN0bePE73+b7F5UHUJunR489iqNKUGo2uJ/RXdPTwxOJycns5K3VajjO0mpVT1cPfvLaT9iRPU2JyUePP6buueHsdUBY5iyoq6xCqxIWe4r2Il7FcBIo98JtTNT7SUxMQHhk1Lo9GQmOq16eCFDv2ZVxxoMMT8S6OD6h72it8RD7DKjv00eNAen7MEbbVp0JmqwNCAjE+MgY2tvboEZm8N7tieT01LvnUn8QlAZLIycqDVlLXNIEBZkdxicnICkhBSdOPIa09BQVN7XqPCIqhQ8jovIBxWKZt/V0UjcGdwlKYvnWMotKXg1y8eZHwYluTvTvyhWkwYFhXL50ETU11TxzWVRQhL2H9q8SNzQTSqKSzHpcXX26m8ZhK0b/qHDxbd1XXDx3Do0N9VxPoQ8xuO2z9Pf14fKFC5idnoFGr7/j8usMHW2tuHLpMqZMJuj1ISwsKRgGBWnZFXB0fAzDI0MI8PNHRGTEKvFIgvLs+x/AND4BbXAw9+hylpbmVpx+75QaQJm51kWn1dr3bBP1v8V333oXN64Uq4FSEKKiIiXwCoLgFhYXrejp68W3/+VbiAgL53s5OWSTyDt64jg3tN8o/lFspUk48hqgUhnHc8fHJlB2owQ3rl/j2PuJFz7BjfF9/W1+BhSbTZMmnDx5kjM9jj16QsVx/ZqvRSLFL8AfOn0wt9za6P0scdx2fZyxE5hTIp0E9WbZMnSNpianVKyaVdfJU4nvu8KPvitqQRIZE43QMMOHjHd8lBhcWliEaWoKQ0ODmJ6ZRm5uLvzV343je5lX48jW5jYUX7oCjU7HqdP3fh/0u5+PL4INwbY4HBCkjqdvehe/J0FYyfr/ixfuW6hQmsSfoz7NXdAqJYnCxS04WVJqDQUsetxLdVkZ92datFqRkJCEvQcOrOp7RbV1ZCCwlTo5B1up73uY8Pb2hnl+XgnLRkyMjdu3bh8fbz/uCdrY3IT+zi7bSrWT0EzqlAp01F6mQ/190OCFZsZ9/Lxx7LHHEB+fwM8jN8Ka8iquB3JAq8ZUu3vjZima6xvZRMlZfP39uJbn0sULaKpv4obP7oIyB2qVeC8pvs41T4IgCO5BCTZ17/rkpz6NX/rqL+OFT38an/zkp3Hk+KOIjonaMI2R47M9Rq+EJmOpHq+sopzNeZJSUpCZm4MAe+YIQauU1OZrYnwMqcmp0IcEr+tZQHGYRCsJSvEe+DBzs2Y01zXg5Ntvobezm53lN2LePI/aykqeuB3s67dvvYufEv604kwlRfe68np6ebAHRFZGJpZVfOzt7cXFsxfYkMkBCUMyXrpw8bxtonV2ds0xHNXokkt/gBKk9Dczp8YSFqt6WMzqd1vsNZtn1M/ui6XCg4msVD5gkMOkxTLHdQ20MuJOaNBONwxapXQVbtdAK5z3iIrBgQG8/fY7bH1NDm8H9u5Dwd7CO2k1BM1W0izqVkSyY5XSkRIprA0JuP7eHiXiZuClAkR45Maz2s5CNTe0Sjk0NISpKRMijJF36nQ2g2pq5mZmuXaSRGFYRAT31qQZWPp3zmQ7b39/H6ftGiOjeYacIDt1swqG7e3tsKgAR69L9bjOQKua82qgRAJ7wWJBRJQRhg1qf1zBP8gfo0MjaGhsUO9Rp4RxjBL0O79WSBCEjwaK+Utq4E4rlT5ePoiNj0VYeCh7FxjVfdxgCGGxuREsKMkc7Z44SbWUlWVlPMFGdZBPPvYE0jIz4LVi0pdWMi9dOI/ZOTOefuY52yqlx4djB8X/tQTJWpALKqVdunti/H7HOm/lGscbpSXw3O0BQ3j4hj4N1K6qvrYWzS1NdNGQkpa2QdymlcPV+8g9fxd2c4u40eFhdvbNSMuALphaxHnwRIQaPWGgtx+lZTeRmZmtxKNuldfFvdD4kL43HrOp/2j1um+wDzU1dWyGR68pMe/hRUTlA4TZPM03bRJ/7rwZ00rNrHmGz023CadRNzkSt9TvilZO7xWUVO9x6u2TqKqu4nOTi9jBR45Ao7PVfdDMGs3E8Wdx8ePQa5Hjq212znURvBE0e0g3S3eIrvsFEnq31KCiX4l8qq0MNYQp4eaeekJKdSLBOqQCF82IxiUkfCiFZj10wcEYHxlFV08XlhcWkZCcfCctmvZNjI6hf3CAZ1DVHxnSstSAxz4jrw3Wc/prY3MjPHd5ICklecNguBJKe52eMPEqqdduT6RmpLulrodqTZbU/y6a6uvR19uLpNQURIRH2PcKgiBsDmUjUc0crQLRhBvF0gV1f6RsIioR4LYh6meqYdzovkUtmCj2OkpaVsZZmoytKq/E1atX2dDl/2fvL8DrTLP0UPS1LYuZtpiZLDNTGcrF1Dw9PZNM6ExOTnLC9z4nN+c59zlP7iQzSebmJhnqaaju6u5iMDPKlmTJYmZmZsn2Xe/a+l3bKsEWuMpl/2+3yrb2/mH/+/vWWu/CqMgYjX66e7rpNQywTKClqUmbAbJJy0JdWqnH7ckYIsFlY5nlZLU8K2DvAT7aivIKjfbFiK70FhK3EFiTyuim6u2hYW3K6OT4ZbMdW/Cr1RnVNt8dnfcOG+X98rzLqyp1/ihHzwUFh8LD0+r8ZWTZz88fhfn5cq0R1d+MVC+mw62BB1mHsjZ5b5XlVfir//mXmBwbh7OHK9xcXcyeAs8pTFL5LQE7vt0rKhLyNyJG98ZHhvVqQULZ09ODosIS7b7GWgvbKOJiIKHs6+tDaVGp5u8723RvI8lsaWrDu+/+Ar3d3YiMjMTevfuQlJasr5MM9vcOoLKsDE4uLpqeOZ+gnA9URmxxXVtRKQJzIxzlumvVyZMKr7GuTpTwQ60peZaIpZeQv57OTvTId0ZFFSMkbC0+n3btEx3TIeceku8lyBKshNWe75NNAGjwNNQ3YmBwAKGi7HwDrBFH1nc8vP9Q63ka6mrVmRISFCYK0aLndhXFNTN9XyOd7R0diIiIhMUSILpu6eta65Fm0NzUiJbWFu3sGyDHrsU64tzVqclp3Mm+jXXyXDZlZpieWxMmTNiF4ZFBNAqJo7HPdEI6TykjCUYtSS4ZEVoKJJPtrR2i33s1FZJNemzBKCUjlLdv3dTxHwf27UPalozHSAlBOZyYlITYhATtwj1XrpNM8v54b/ZkDHXIPTGrhbqHGSjPE0jU1q/boDqnU/RlgK8fgkNCvxJhtIWjo7PYSr3o7GqHj6cQwhDW6s//fqap6ncgP8b3yBRZdrCvqa5Bf1+vksCU5BSdZ8nzMFrJfgajQ6PIvZur8y/9Av2tUc5F7AM2imxpbcP1S1dgCQpCT1enziAvLymT83nAz99Xx8U8SzaUiaVhkspvAeitbGlrwR/+3k8w2DeAyJgo+PpY0wBXi6HhQbz/69/hL/7n/0BMZCz8AwPU+2kPRoWYfPje+/jlL3+BECESAUGWR6MfBvuH8MmHH6KyqlLrOU6ceBlbd+4QAmk9NyOUJz/9FGfPnYGvpxf8LYFyrH0Khkr25Kef4dKVy3BYt15THxfrMmcvmJLDoviP5L5JNiyBTMdcu+6g3zRY5O/i4orO9nb09vfD2cERluC1iaL5BvhjamwC1dWVmvKcnrFJlYk9xJJrbnJsDOUV5ejt7tJRNoY3PCAgQOeZ1QipZMOBNjn3nn17H3nn/S3+eCDkkMqsr7sb23bt0Foeexwjfn6+YhABV2QddXd0YufeXXBeA/Ln6uwCB2dHDPb2a5pTWHgEoiIj5HmYNUYmTJhYGL19Pbh69Qb+n//m38DLyxce3h5wcbKmttJRy94DU3YOn+8VIvLx7z7EpUsX4eHuKXIobPYVK65fvII7t29jeHgISUnJePM738FGp8f1qNHvgGKcMnc+eT4+PoHWpha7yh7otP1c9H529m1MjI2rY/N5g0YrhYg3NDQoyWTWkIeXx+yrXwVLTNYLTywvL1cSt3vPnnnTjwk66+kw1tEhNjqQtZOeQvTuFdwTu21Yv0s/uS51IMF/xyXFIy83DxWVFQgPjYAlJGjRaGWf2BB3b+fgV+/9Cq1yX3//j/8BQoJDUVhQhDNnTmFqdEK7zXrIdU08PzBJ5bcA3WJo/9X/+EsRCPn4w7/39xEdEwkXMVxXi1Ex5Csrq/Dn//W/InPTJhw88oJ2EbPHIGfKa0VZJf72p3+DhMRE7D90CIFCDvQ1EoSSMrz//u+0Zi09IxP7DhxEUGiQes8mJ6bQUFOHz774VIXQ9p274O/PjqRLE5CJiUk0NzQKGT2rHjUOe/YN8FuTCBPPfeqzTzEsQnf71u2Ijot9lIr5rIDd4vDggXqKE8SQ8PJem86nJJDsBEdDgQoqOTVVFZI93ynBiDNToniOtIyMR6RyvTx/emqn5bupralW77uTkOGwqAh1YDBFbIPDRlW6Tk7O2Lxti0bx7VnD7JrM+ya5dnRywtYd29aEVBKcE7ZRzjnY14/tu3cgJGhh77IJEyZMVFSV47e//DV+8Yufw8PDE8dPvKip80MjQ2hqakJPb58SDHtx9cIV5OTkIj42Fjt27Xqsdq+ttRUXLlxAWVmp6O9kHNi3H5Fx0aqfbWH0O1gIYyLvSwsK8cknH2mNe0RklMjwheVcbVUNiotLVKani45gTeHzBupFb28fnflIPezj7Y2QsHAl7guBnfEZZWzraEewPDMvOX5uYybWzDbWN+I37/0aDg/XaY2s0RGWjZU8vbzQ0twiZLAPzS3NsPj5W/XobLSY5/Pzld+FhiI2MUHuy2tRPcrjvHy84e3uhWvXr6K7vQuHjr2Ardu24eHMA9zMuomJ0XHs2bt39ggTzwNMUvmUY2h4APn5BfilKJqDQswOHjkIfxEGazFGhILld7/+Deoa6vAHf/hHiI6N+kpb6oXQ1tqOD3/7W21x/nu/92PEiEIimWDqRUNdIz764EO0t7aoIf3O2+8gLjH+UYvyns4efP7pJ+gVIfni8RcRFRcDJzuN+T5RrCdPfoGhoSFVhDHx8UIuVp8KzDrK6ooKlIqgtwQEIHPLVhXCa8BVnypQ4fv4+SE8PBJ+QuQXMwCWC0ZBQ0QhRYsRwwivvSSKxNPJ2UVbo0dFR8v9eT9m3HBuKUSptrS0oLenG63t7cjIyISHl7uSSqb30JiJkXXkH+Cv17WHzFJhkvyFRYYjLikRQQGBwmLXrYmDgkrcy8tDm15ERUTC3f3ZiXibMGFi7cBeCVl37uB90cV59wrUwfsHf/R3RRZGqJPt5rVbOHvqNKaEwEXFRH+FTMwFM4MqODbpzBktEdiz7wAi5Vy28vizjz5FfkE+7gth3Cq6jh1kDf1sgFFKHfO1SEorG7xcuXpFyNEgjh47Dg/vxeV+1o2b6OrqELJswabNW+Fkp73xrIFO1NamJqo1BAcFabO4xZ4byyd8ff10jnPG1i1aNjL3/fyeOKYk6+YNdPf2IjIiSnSpNaON+pSZSuzgWlVRqem0wvvg7emFsIgvI9iMjAeHhsDH11vtucX0KK/PkicfX1+MDA6jvKIMzhudEB0fh9RNaUhLyxBbIEZsjVB5r5ml87zAPqvPxDcC1lPUNzSIAvhYu7u99tabCPQPxMY1mA3U0dWJkoISbaLz0osvIS45bskOcga6xbAvyr+HsopyHNx/UAkjjXOivb0TeTk5qK6pVKGzT4hffHIS3Dzc9PWB3kGUFhSgobERGWnpiE1MtDvqynq98uJidAipiI2JQXxiEhxtutStFEx77e7uRKE8CwrR7Tt2aCfRdesWVqbfZmhhfoB1jthaguejMuLPckHl5CfKKTAoUNOtbMHxM2yNvnvXbq2n7epox9WLF9HdZR2NQoeEfwBrU4K1+YR8ofp7e8A1HxQchNCQIDWw1gob1gl59/JBtJBdppMbbddNmDBhwhZZt7Px23d/pU7e48eP4a3vfwcpojO9PLw00njpwjkdn+Tj779g2qMBEsrR0TFcPX8RA2LobxHCGBnL6KHVqKd8rK6qRUlZKfp6epCamob0zE1KJuaCUnSxZjqMjHW0temokYiICB2+v9gYkZGRMfmMrapj2QnexWZsyfOIHaLPDuzfLyQsHhvWL66LqVv5fDmOjf0A5hvpwt/xtaSEJI2AVpWXY3hgePZVq/OWTvjNmZvhHxiImtoqFBcWorW1ffYdgKuLq56D6bKqS5cAiSd7EdA2TU5K0Q6y+XdyVP+lC7GMFVI5OjaqPUFYc2vi2YdJKp9itLW3Ied2Dioqy/HqK68hlhE9m2Y4K8X4xIQOj79+zVpgfeylF7VGcykPKDE+No7ailrcup2lNYdHT5yAtw8jeus07bW6tEwUYbbOpGQB+oHDhzRFgsqQaa+N9fW4m58Pb28v7NqzV/9czENngAKuWY+9B3cPDxw8dBhevl7a7Wy1GB4a0nTdoeERREVGIjwqas0J1/MGNpNYSXc/ayfgh9qAh55yA/7+vti8bRvS0jN1vWTdyUJZYRH6+wdn32EFuyKSHC772rKOJqcnNQWXHRbXEjS+JibGTWJpwoSJx0CZQGdpoBj5x4+fwP7DB5AUn6Bp/6UV5Th78hRGRK9u37ETiWmJasQvBpZwlJWUo6ikCNFRkYhLEXLq+SVh5IzCi2fPqmOW3bXTU1I1O8QWrMvraO1Ed2e3Ds9fCL09vairq9O/00G8GKFkLWXJvXuiawe00yjrO5f6LM86gsNC1eFuLf1Z2hHK50uH7WIddkksd+3dCx9vH1RUV6O5sUm/T4K1nHTQ7t63DzHRMRrZLC0tQdHdPB0LYgvaW/yxZ3Y402CZqXb8lZcRHvpl1NPL3RNurq6q/8ZF/42Pj+l6N8nlsw2TVD7FYHMeepISE5Jw4IWD8HBzVw/QajE6Poq2llaNVh7Yuw8JSQl2C/iJyQl0trWhp7sL28XIj4uP0RREoqG2Afn38tHY2KAKi5Gl+IQEFWTElCi81uZmDIliyUjL0BEQixWC24JktlXueWxsGAlx8QiNDF9UiS0HgwMD6JJn4eLirLUnZqfO1YNK0p728vPB2k3wcSVHIyvQEoijR4/AV5QwW6Nfv3ET9dW1QmCtjSuoJPlDJWaPl3U+cC4YSe1ag+fV+iRToZowYUJAA3t6egrJyYl47e03sO/wPkSEhWtHdqb6n/z4M50vuH3LVmRu3aw9BJYCR2GNCEkNDQ7Bnv375Zgv5+9OTk6ioaYe2TnZovP6kSaEMjYh8bEoJR157Ap748oVzUZi34X5wG6v9SQtcp+MOialp82+Mj/YxZvvZa18ZEQk/FhqYEJ1wv2Hy9NV1G3qfF0AwaHB+oz7+3tRWV6O0eHR2VesiIqL0u8+NCQEzc1NuCs2W1NDy+yrX4L9C3T8i526ND0jFUdefBGZO7ZqLbCtc5bEdmJiQp2rwyNDshaaUF1XJfbcyOw7TDwrMGsqn2L09HTraIJ4Efxbt2ye/e3qwZlXHNPg7uKGfSSrdg6rJzj3ql+OZUOTQ2Lgs904wYjR5fMXcOPWDa0XSE5Kxjvf/x6cXZ00iknMTM1gdGhI60T2HjqoXix7QQE1NT6hhGHv/gPacGYNgpQKRsU4X9FisSAxJWnNzvu8gwSPUUXj+18WRGey5pFHGvWV7ExILzeb33R1d6O5qUFboVvEqGHE24DWlggJtR67PCcM52+x/oPXXKsxNQoGYOV/zAYw60tMmHh+QcfSgwfW7IVx0ad0FjNTiF2jCc6Mzs7Kxblzp7Fj23bsO3IY4TZ1b4uB8pZ15aFhEQiLCH3UyZ2ZG91CUD//5BPU1FTriImXXnoZ8SmJIpO+lEeUnVlXriOvIF9n7kbGRD82KswAs444lJ8dQNNS0xAVEzX7yvyg7GtvadUa/pSUFO32bsIK6hl7srVswfcvdoyzi6uOD2N0kKTfqK004CXrjZME2BOD49k4wzo1PU2d/I/0tegsOg8YxWTNrNZYyq8X06ls9OjFfgrr5P6Yqi0H2OpRzThra8GNqzdw8ex5BIRY4O7upk32TDwbMEnlUwp6Mb08PZGUlIS4+NjZ364eJGckdZZgiwiRVHjKNewFFRONdUuQBWmb0h8RSiqi6xcvI+duDro6OpCQkIwXT5xAREzEY4SCxnSAELeUtFS4ztZg2gs2JvL29ZNjU7QD3lra+zxfeGQEQue0XH+ecF++w/tCrulRXMvmPfTE2qaiLodgcl09FK20jn8qyVwn6289omNiUVVZhcGhQTQ2NsJVFBKj3rbRdvXmykF0QhD2RsQJKlGNlsp9P5TbXYumWASfLUnr5OQEpqYn4eRoKlITJp4HsD8CySTFH+XLmBj7TNWfTxpS1nF8CLupvvLW6wgLC519ZXEwomSk/rOrt205CyOO5SXl+O1v3lO5ePTIMWzZsV3IxZf6n/KJ4yi++OILHWq//8BBIafzX5tZQq7u7tpkhs3Z3IQYLAYSoLDISNHfaUpoTHwJfh9cGMtxYjILaJ0QN+op1j/O1askdq4ubvL9hWsjHs7ytoXOgBa1TLLYUFeHvoF+JMQn6oxoW7I6NT2F2uo6fP7Rp2IjRcn37GqXLqWe470xMj33c7H7bElBET77/DPk5uTCR+y6oKBAuDg/3zW2zwpMUvmUgl5Mbmh6i9YSVFZUZtz0y43iaDqEGOlz69UaG5pw8ouTqKwoh19AALZu2YKDRw49dn4qrJmZ+1aNuUzwehSiZurgkwMbLly+cBGDfX1LDmNeDrjeWLh/Lz9fjBzOxvoyHWspTIxP4m7WbeTfzVPFGSCKh8qTs07pRe9o70BnexumZqbhuGEjYmycL0yJvXn1Bu7KtaeFLIeF22eYEUy1vn7tGu7cuIX7og/ZYn2tUFFdpbPjmptbtduy6aE1YeLZx73CfHR0doAdOKlHqQ/nA52+dKVRxmVkblJyYK+eZqoiM4nmQ01VLT744H309fXA28cX3//BD60dR23kPKOPNy5fQVVVJXZu34nE1JR5o5QE75+yy9vPB64e7ksSohk66BZJ2XzesZJoJWta+/v6tVZyvu/JW8i7v9hjGzZufCwabYBjSWbGJ1Au3/fY6KimJ7PPBRv5GeBa7WzrFAL4qfa0yNicCTe3xR0IBmhjcp0wEGG7PjjqhLPW4+MScSfrFk6dOonRwRFYQoN0vIqZyfPthkkqn0KwU9a0GMoLKZ6VQlNIJ6dEwD9er2YPSOyUVMqPLXifv/v1ezpzaWpyEjtEGR158Tg8vR+PgJJQ6ryrZeoVg1CutEbOhH2Ynn6gcyDbxPCZkTUSFhE++8rqQEXZ1NCIyqoq9PX2IiQsDK52pj3z2LqaWhSXlGgzpeDgkEcDtqkwRweHtHV6R0eHenuDgkPhO5vmQ29qgxybdScbo8NyrBBlNpSyB4xM1tXU48atmxjs7deue0xPWwuwmVVpcQmuXLkCFxc3pKamzr5iwoSJZw3U5V+cPIn3fvkrVFdUwd3TS6N784H6mY3CxicnVH5puqG9hFL0MnXkfDYDZ1Leun4D2Tl3sNHREa+98hpS0tOEiHBAvtXY50itfpF1nDfJ8UcHDh5SB+B8REezOGYjr3zdnggb9bhG5EzMC6ailhYVobiwCHEJ8bO/XRh0IJw7dVqbIm5ctx4R0V9NP+Z3oxFM+WFDQ+O7NkA95+jsgvtT06iprsKQ6Ek/T2/4B1ng4mx1djLavUF+OCe6rLwMbk4u8Av0XxaxZHCkqrIaE1MTmo7N+dLO8qefvy82ZW5Re+NO9h3UVtcqsWTTKqNPh4lvH0xS+ZSBwprNcIy0vbUECaBGP1cApsOQkNoqBtZm3r52C5cuX8ZAXy8yMjdjz57dOmLEVhnSA0pCuRJPJa/HSJMdesvEKsB6xcmxcXR3d1sHMvv4agrVWsDJ1Q2dba1obW/F1PgkYuPj5zVW5oIKkWk6fT29aGhqEMU2hdiEBI2i0vPq5c35WINgK36mwlI5JqUmP0qDdXRx0bqS4uIiajckJC3dPZHg2nUUpdrX1Y27ebnYuN4ByWmpj6WTrRTslDcpe7uxvg7NTU0IiQwVIzNk9lUTJkw8C5iemUJTSyPe/83v8MlHH+ss5Z279yApJREe7l/tYWAQSjb0oiFuL8ZGxzQbxHD6znXajo6O4u7tHJy7cB5Toq8ZHXrtzTfUwcbmZwamJ6fR1tKCwoJ72mAvLinhsYiVLUhcl5pfaQuO7JrrjDbxODgmq6ioUNZME4IswXD39FhURz4U3Tg8MKgNncbGRhEUFAoPmy6/c3Ffvq+50UqSTCfRcw4bHLSMZKC/Dz29vYiNidPO+oa+48QBf4sF1VVVqKuvR4BfoK4fzspcErJGhodH8Kuf/xLlpWUIDAnSWZm8JkfJ0cbgyJsgSwg8ZV9Ex8Vqkx977AMTTydMUvkUgZ6/8fFRUUhfVQ6rARUWCaWmri5DYRGPIpRyrK0S4flamlrxwfvvo03IAgfg7tu9FxlbNsNlttaSUAV0f/FuZQuB17ZGKNc2Ymviq6AQd/fwxMjQMHr7+9Er5DIsPGJNRtiwqZKzGChM12lv7xDl4YGAQGsq61JwcXUVIuiItrY2VaBUPOxuZxBOzvcaGRlRktYvZNjd2Q3hURwavgFu8vpGJ2f9LJXVlfD28EFoBFN7l/aCshOwo5OQUiGWJaIM/QMCNYV2tfWVG0VRu+iQ8fXIZ3fFgSGkpKfI8/nqMGsTJkx8+zA8Moh7hYU48+kX+OTTT5CSnIxjL72EzC0ZCBaD2Rbs9MrGPA/uW2u4l5NFREdvYX6RdnSldmXDk7moKK3E9etXNRIVGhKKl19+GXGJcY8RSgVJItbBWWRt5vZt2vNgPnlkRCmX09lbU3pXoP+fJ8yIPdXR1oGm5maMiT5LSkn5Cgm0BaPDTCNl+Qe7+MviQUycfK8L6RB5/3zRSl7DScjdevl6Kior0N/Xp78jSfXy9lQ9y3NSl3p7+qCkuEQDCGyOx6ygpXSp2nCyVmoqq5F7NwcPpu/DN8BPySR1KfWhr4+vplFbQoIRLOdlFJPntcc+MPH0wSSVTwFGRak0tjSiobFBNpODbrS1AIV5/2A/7uUXqJdyo+NGuwxqhRDIgYFB5Ofe0/o01ngYm5yCoruzS7t3ZWXd1PfuEUK5a99eBAYHalRyfGQcZcWlWuPBfH978+R57rGxcVSUlMh1Z/S6a2VsM2Wkt7dfI18kOmvZkOZZAAmkm5u7Nltid9V18l2sRX0ll42bh4dGEkkO2zvaER4WrqRwqe+Wa87Nwx0bROk1NDWiWZQuG/W481hRfu5CUNeJQm2Xe2a35J7eHsTExMPTy0M9rexsTOJZUVEupLQR0dGx8prnkvuAr1OROjg4oqK8DHU11ZqWxOutNmLpLs+Y63pseAQXLl2Et4+f3LNZX2nCxLMARpu++PATnDpzGi8cOowTr76C5NQk+Ms+n4uy8nLRk+Wiq+8LSXC3Cks7wXTBM1+cFLnWrEZ+oOXxkSPdXT24cvGijvnibOctm7fg8IvHtMmOLbngGBHNznB0RFhEhKY+2tZaEuwCyhmY4+PjcotMq5x9YRH09w2gpbEJE6LPKcNNLAymJVOPcTY56yTj4xLg4r64fmSkcHJ8Ur7/VgwMDopOjVg0u4hN82jTrV+3Qc9rrAEnsQt9/PzQJTYdm+i0t7XD19NLmypSBxJ8v7/FHxPDo+gVUhki+js0LGRJPcp1RfvB1y8AE6PjKBfiOjk2AW9fn0fEkqBONGal070hRqTqfrO+8tsHk1R+w6DXr6m1GR//5gNcvnhZ51ExOmNPncJSGBayWpBfhD/9k/+PplSEhIZoTrs9YMpCSWEp/vzP/zMCRSBwUC9z4YmB/kHk3cnBh598pFHIuIQEnHjpFUTFRKoQsRLKEnz04ftwEUM5SK7ruHH+VJq5mJicRE1FBd7/8AM51gmW4GBRdvbN0FwMTMEZEEJ5++ZNlAtJiIqOmY0YmbCFs6uLPveW1lYhgO1CdmLXhNjT++kqimNkaEjO3YLB/gFExcZY64aWWOt0sjjJfTE9t7q6WmswIiIj4azRREf5Ht1wf3oGNXW16OvpAQeRhEaECwF0V0OJDoSZyWnk5edjvayDqLhoXZe2KdrzgXvFWT47xKC6dfsWNq5z0GZAVICrBetKPUSp1lRV4YvPPsPxl05oWhybGZkwYeLbCaa9siFPRVkFNm3ahNe/+xaioiIfjQsxwOhNW3s73v/1b3D7TpZGaNg4xx6nL3XuyMgoTn7yOWrr6pGakoxE+TEIAMEOs7euXNNzDwxyLnQ6Xjh2HP6Bfo/IhAFriYm147WOYppHHpNQVpWUolbklW9AgGaPLCa26cDNy85BdnY2JoSIxsTHzb5iYj7we1+/3gHDLOcQ/Uhbi8RtKduHo0MG+/vR3t6KmelpJCQmzqur+d2Oj0/g6vmL8t05iK7x1CADQT3INFgfLx80NtTr6JnxqSl4uXsgKCz4kROV52UjRktQCEJCguHj47WkDiV4nI+vtxBLf7HB+lBYVKQ1mmy85+P91V4Fmh0n64eZeySkXI8Dg3267s0Z4k8/Vmcpmlg1+gb6UFRQgvd++xs1gF3EeN6wbvVfC1Nj6msbcPLTT1Rg0etkj8IieGxDfSPOnjmlx1iCQ5QU6Gsz0ygT5fLpF59jWgigi5sbXhZCGR4ZrpEj1oW0Nrfg2vVrGBMhxjRHRorsAYVJR0sbrly9qv/29/eHk51kdClw8G5tdRVq62v1347Oa3PeZw30YrP1+9bMzap0BmV9cnD1WoCKhXVFHOLNGkiuM3vBtbBj9y5tkc7ZWpPsYHzfmhbN6PjWHTsQGxOvXs7z58+i8G6+zlMl/AP8sOfAAcTHxaO6tgZjw+OaamYPgoKDsOfwQTHKMlBZVak1SkxZWy2Y4hMhe+aHv/dj+Wx+6OnuWXG9swkTJr55cAzYfdGPgQGB+NEf/B7+8I/+DkIswdi44XH9R/nBTJBP3v9IDOwCREVEako/9f9SoGFNgscMosLiIkRGhCN9y2adD2iAJJHD7K/euC56vF67V+ssybivNnNhlJL1kcw2mks2DTBK2d3RhY8++RjXb97A0GA/5KjZV+dHV1snGpsaMTDQr5lOJpaGh7cn0tLT4STEqaKqAkOz+msxUKempafp3NG2jnZ51tPzphqzjKizrQMFhfdw/twF1Te2TZ0cNm5AcloytmzeCv9ACyrLy5Cfn4fGuqbZd1hBXZqanqxRcXt1qIGYuGgcf/klJAnxzb17F1lXb86+8lXwM0xOTmnzoOGRIdy4cUueSaWSSwZiTDy9MCOV3yDYGS47Oxf/9c/+FFFRUfjn/+ZfwkeEAwfHrhb1TQ24cv4SsnNy8Pqrr+HgkYP2FVYLmhqacfXiJeTdy8PLL76EPQf3Poo0FuUXi9F+DjWywUkojxw+gv2HDsLN01rP0drchpvXrmm3z/179ykRsDc6Sg/ZzeuiCBsbsHlTJnYf2KdetdWCXq/qsnLk3M3VZ/DGW+/ofM41CAY/k9CaipBgpKdvQoAoj7VMEyaZj42NQ+aWLTqHdTkRUGcXF/XE7tq9G96iTG1TtJjeFRQYJOs9Wz22VEDhIWHauZVNATiLNDUtHYeOHBIDjJ52+yOCrK9MTk/F0WPHtCZq4xpFE53FeAiR+3vx5RNISkiU67guGbU1YcLE0wcSSs6eZLkHU/rYhGQhdHR14De//DW+OPk5tm3djre+/11Ex3yV8M0HkoaGxib85z/9U7i7eeDNd95GVHTkY3KUztmf/dVfo7yiXDt3HjxwCIeOHoGD4zy6VMjkUk13+vr6kZOVpfV+jHgmC0FljfxiuHXjBurr6zRL5PiJlx7rs2BiftCB77BhI/r7enW8R2hwiOgqBgMW15Euru6IiY5Rvejm4TavDqGu9BAd2d/bh8bGeriI7gm0WDTbxwCdCtFynuaGBnR2d6O1rQ3r8FA7BX9F58kleB2uu+XoLJJgdkCOjY3Htp3bdDTYYmB/kTu3c/AX//2/4/NPPxMd6Q5LUCA8Peyfr27i64VJKr9B5OTl4uPffYBJMYJ/9OMfIzExQQ3g1aKnvxc3r97EF198jnRRAm/+4B1rxzk7Nv9A/wBuXb2Os0Ic01LS8Prbb8FoH83o5bXLl5Er5Iw1ABnpGfjh7/8Yru4uKliGB4aRfSsLd/PuIjw8HMdffhlurvYZyqOjY7hz8xbuFdxDSEgQTrzyyqyRPfuGVaBR7vtubo6Syx1btyE8OkIU/xqc+BnHWpJJA+vWbVAnA2uHrd/tVwc3LwQqMHrzmY7zQIwgI3pOUGkypTRYlHBVdTVGhocwMDSkzQXCwsPUUcPaXh7L8zC93J7UHYJ3R2cEuyGynojXWov0dILnIcGlIciUJ7OGxISJpx8kkUPDgyIXXDAxMWp3x/b2zg7cvHYTZ86c1trwn/zdP0Sw6Dt7s4h6+/rw6fsfoaurC9//4Q8RGx/zmNOWmRS3r9/ClWtXMTQwgAP7D2L33n3wmyftdWJsUqOQwiytv5gHfL2xrh7XrnEEkgve/s53tD5yMfnX2d6FgoJ8vZeoyCgkCymx9/M97+DMSZYqJcTGIUbsQReWXywBlkw4uzrrn1ovu8B3w9+HiF1WI/qRDgJG1P38/R/T8xschHy6e6O/vx8tTU3WmeZTM9pV/THIkjEincvtMcA+BySGHA/GrLzF1gYdNMzkiZK9wtIWZiG1NrVovWlEROTsu0w8TTBJ5TeEkvJinP70JKpqqnH40GHsO7gXbi72zf5ZDKxJvH7lBj779DOEhgTj7e9/T/Pf7RHqTEe8euEKLl26BD8/PyV2TNGjMBoYHMLFM+eQdSdLu5PFxyfhne98F5ZQi77OtNecW7dxO/uO1py9cOSIEkt7IlFMzbhz4ybyCwtEQTrj8OEjWk+wbt3Cys5ecEZX7p1sDIuCCwkKxo69ex7Vhpr4+kF9Z/zQO851yT/tJZbG+6x/CDHkf2eNJabw+Pj6ae1lF5v2yM+DmRlZj56qxIxjSeBIDK3HLr0++R7dP3I8a6F4VSr/tSSWfAbszEyjwCSWJkw8vRgaHtDurr999z04uTlpVNIqiZZGV3cX8rJzMSVy6cc/+QnCI8K0LtxeUGp5eHkhLDgEKRlpGn0y5BrrKJubWvHuz3+Ozo52NboPim0Rn5KIjXOilD3dvbh09hwGhKR6+fgueA8dbZ24m52to6Z27dyFmIQ4OCwhM5mp1NzarCmZu3bt0iYwJuwD9cxG+S48fXw0imiPjuFbrBFD/uuhHDN/9JC/Y38CZyGfjUIYhwYHERhoke//y2gh3+Ph5Ynp8QktUWG0kmmolsAg+Af4f+W8RoSb980oPe93KZ1KEmpkCvFwPaPo8IU+K+/Z3csdUdHRGmG9V1iE8pISjIyOITwyVPafGQV/mrC0RWXiiYDD1TkbiGmeew/t0yLptQCL8msqK+ArguKgkLNIIYX2pvr1iYJhDQbrOpm6GpcYq0KEhvSdazeQl3dXvUXxiUk4dPAAImK+9BT19w3q59no4IjtW7fqvCF7CCUxOjam6R5UzDyWrbHXglASHW3tGB4Z1rTiXXv2arTJxNMD68iY5YM1F/fFMOP8LdYFEVRmHt4emurFNC2uv6LiYty6cV075BmgImRUgTUhJJjLBe+ZY3bYXXktwdS2iYlxjYKYMGHi6QJruarrqnDq5Fm89/N3xbgtwMjQiGbA2APKC0Zndu7bg+98/3uIjYteVnkH6ynpDGO666ZtW+Alxr+tkd/V0YOrFy6KHm4QYuKEPaLvYhPj4TSnf8D01Ayyrl5HaVkZRkdG9JzzgVHK1qZG7brNms2MzZnq9FoMfBaso6RjjLWirM8zsTzQXltOeYYtqJsW02lsxBSblITQkBCMj4+hu7PjsdpKguuFdbqZmzYrAaytq8GZUyc1DXo+fc2I9K0bt3Hz+i3tLrsccISOzmaVtbaYPvVy90S82IXHXjmBdxgtd3OX613T1G2zxvLpghmp/AZAo7FfBK+Pjx/SN2cgMS5+9pXVY0Q2+MzMQ8TFJyA5PUnHJ9gLtgu/P/MAMTExSMlI15RZCijWUZ4+cxr1dbUIsARh985d2Ll3D1zcvqwbYSOcB2KoR4SHa7oLO2/ai8mpKTwUI52CLjUz066UD3tBocPOe4nJyQgKeXxGmImVgZ10F3AqLhuGp5PGEf/On7ne0AUhh/Joq1Ekx8p3zailh6cHHB2cMDw8rC3a2W59nbwWFRsLp9lmGLbX5dVoDNkTzSd01qscrp5VuR7Jrb3HLgbehzFHloSY3e/sdcyYMGHiyWF0dAiFJUW4cOocrly5JNt+PY4dPyF6JdGaxrfEPqXBTEcUy1v8/H016sPooL0p+NTDlFHMJqLMYp23rZzs6elFfnYOzpw7K6RxCnt278HhY0eF1PmrTDRA4726ohJXr1xVUrpl6za5H7955QzlKcd7TYyNITEhCdGxMbOvLAyWJfR298DP1w/xiYnw8fOdfcXEcsHnzyaH9qpDW/D7JFnkOeZ+t1x3ri5u8PX2ho+/v3xHPo+tEcLN3Q3rsUGnAHAGNDN/vNw8YAkJ1TKSR2tP9CBTv69fuqL9DHx9/OHt46XlIvaCOo/qeGJyXEeD8XxarjUH1LHeXl7wDfTVUWeBgYGIT4jT9G/V4yt5UCbWHCap/JpBQ5EzI71lQ0dGRsDfz29NDFKCEcUN6zcgMDhAG4Ash9hRWemxQYEIDQuFq6uLnq+roxO/++1vUV1dpXWUu3bsxN6DBxEQ9GW3OQov1six8Ds4NERrL5YD5vT7BVm0OQwF1lqCpDo4NEwL2E0DfXUgmeTssfbWVq3f4FzLtQAJHlNnunt60Nfdq/Or7FUQfNvk+ITOZGtvaYevGGxUkGzG83DGOperualBiaWPp9ejxj0Er8vmGq3NrWhv61RjT41DO65NRTg8OqJzN9vaOuAXIPt4LdaXKFcan129Xaipq9Hn4GE2JTBh4hsDIyF5Bffw8W8/RP69AsTGxODYSyewb/9e+Iget5dQMjuCkRnKl+XofCWUs8fPF4VipKgw7x7OXTinze6YJvjGm++orLNNe6We7usfwKcffSJkcQS7d+xCbFLCgtk7dLexdo3jtyzBQSLzl75n3l1wSAgsQUGaRrlWts1zC1la9qTA2oJ6jd1duRYeyrHsNTAXbFTIcW3eQihpf80llQTtR6eNG3VETi8b93S0IyQ4RHSd/2OditlxXUxFlBSXoKerA/4BFnVYGCNL7AH1aVNTC3KzstHb0w9PH895iSXh6uIq9xGMuLhY1Zf8D50zmnq7zGdlYu1hksqvESSUJG80ZNULJQJ3zQilnJutxqm0lnteKioWZDO1wfD48HdMp7l07gJuZd3S8SEZTNXdvx9xSV/OnGLqIYfqPpT387jlEDdDWT4QiUSB8KRIH+WMSShXDzoZKsvKdPbY6PAwwiMiVSGtBXq6urUWp6ikCJGRUZqCbdd3JkqlrbVdj83KykJiUrI6RDjext9fiKUYYq0dHbKW29Hezrmb8UJavzR22oUQXjx7HpcuXkQKuxo6O2sNhy6aJcDrnj91Fl98/gVSN6XDzdVt2U0L5sP4xAQK7hXiz//sz+UZbEBkVIQqUhMmTHz9mJgYw2/e/bWmlR48eADHXn4RmRkZVjmxCHT0kIiRxwjlMsB0V6bEkwwyFXW+1EP+rrKsCjeuXUVxUSGCxOh/5eVXkbIp7bG0V+rpsZFRFAn5LCoqQGJ8Inbu36dNUxaCNdL1QFN07SGUBOddUm7TAb1Wts3zDNqJXDsTE1NKFu39Hm5cuar68P7UlI7hmptmze/oS/0qthf/O4dYslswZ0s7OziiorpK52FyTFdIUCh8A3wffb/8kyNxOHuSKdXjo6PwDQyAp4fHsvRhQ30Tbt+6heKSYrEHNyAkPGTRLsoGrCm/7HVgVdu0s0fHRuDkaM4h/yZgksqvEQ9EqYyMDqugWEsYntCpmeXPg1LFJUSXgstICSQG+ge1k+t77/1K0/tCQsPw+htvIl2MZyNlh4pqRn54jpV8JnqAKQxMfDtAJUTHRVNTE1paWrStvH9A4JoQS6Yp93R3o66uVs8fGx+vsxzt8TzSU9ophLGqqhLVlVVITE7RaDnHl3j7+mK9LM2yslIMDQ3KuRt1KDm9sDw3070Hentx89ZN1NXWIk2MRVc3V7sMoompSfR39+pM1vLScmzetkWJ5WqNKRqrw2OjyM3JxpnTp5CQmCTGYqA2sTJhwsTXBxqo1NuuXh7Yd2A/tmzdCovIvKXAhnmdnZ1Yv2Gd1XFqDanYDepUTT1sbNKU0oWay3W0d+HSxfO4cvkSvHx8hOxm4vXvvvUV8kHd3tfbjw8/fF8bm7zy+uvwkfcv5LgjiSWhtUP8PsKMENC1tm1MALUVlbiXl6dzK8MiI2Z/uzgG5b3sccEurj5enjqaZCFdqt+YvDZfba2Lq7Ouq7GhEZ2D2dnepnW1jEb6zUltZo+NYbEb7+blYmJ0HKHh4Zp1ZC+Cgi2i41zQIHq4sLBYqW58EiciLK1PGaCgHctP09Xdg4KCIvj6epsd1b8BmKTya4Ixx8rawnvtQELJOonxyYnZ39gPKi42K5matHrBDAyPjCL7Zhbe/fW7Qjan4ezqip/8/h8gKTUFTrP1jhqhFAWyEkJJAcDrUdma+HaBKU2cLcWGTu2iZIKDg60t5hcwTuwFU2m9vHw0lZURgQExgCJjHm+XvxCYiuMtik8Wls6nnBHiGxYRoQqRtUeuru64Pz2jc9MGRMkODQwiPCpKU4D4uoeXNxzWrce1a1eFgK5DRFSkdlVcCu6yL7x8feDi6IwLF87BZaMzQiNFkcp5Vwum/sQnJiDn9h1kZ99G+pZMMQ685LOubXq4CRMm5gd19ujYqDrSuKf5Y9RkLwZmGlRVVeNP/u//gPrqOkRERy6rFIU6lSO2fvnTn+Pzzz6Ft8hb/8CAx1IOCdaecSTZrVu3lBRs3bwF3/3h9x+bPfgIJKYiS6MiopGalgaLGPAOCzQJoo1CZy8J9XLAKKWJtUdVRQVKy0vR2taKlJQ0+R5ZTzv74gIICLKgT8hVa2szxkZHER0Xt2hpEe2xDXLS+dJgmb0TK8ezueTg8KDOEXdzdhGiGgQPzy/XNZ2pfgEBGOwbQHVNLdzkPhNTkmZftQ+BlgD4+VvQItfgaLrp8SkhlolLZgUQvPO+wX5k387B//3//r9w/doNhMveY9NKU29+fTBJ5RNG/0CvdmRl3QU9f2sFptEOyAYfGh5i0v3sb+0Djx0aGtJaDLqpbAklO7HeuX4Lp0+fQm9PN1zc3PCHP/lDpG3KgLunm5LJkaFRHdHBjb4cQkkyycL/yalJ+RfTbK2/Xwuw7fWYKOK1qvMzMT9IHt3EQHIRA6e2rg5trS3wdPcQ5eK16oglI4u+vn7q4W9uacKwkL9AIa2uS9To0gPLdFlPT2+d31ZbU61jRfz8/GXNeuisVL7G2pC+3h5tOjA5Kq8HBMLHx1vJJ2swqQyLS0owMzmtynFJL6tcl+vNV9471D+I/Pw83J+agU+Anyiy1XVz5t5ydnFCdEwcsm7eQnlJmRJlDo8203pMmHhyIJlkF+ZxdmIWgkU1Rf3N5jxLgfqztLQUP/3rn6KnuwtvvP02QsNDv0IIFwPPcf3SNdy4cQ0J8YnYsn27zuqbG2k69cnn2hylW66zZctWvPTKa7CEWOYlBixRofOZTYW0sZAQgLnn42cdE7nIX1NX2wM2D2Ikle82o5RPBnQG0BZrbWvXspOE5MQlnbh8nd9zd1e3jg+ZENuIQYHFwDXSUNugKae29ZBcT1y/YSFhaGio1/pK6lAnh43qMLFd23TSBlqCkZGZgbiE+GU1iiS4LlmP6S+EtaO1DXn38hAZHS12ga9do+B4PPUmR6BwNnnOnVwM9PXDy89b65/NqOWTh0kqnyDa2ltx9co1ncHoIAazvxi5awGSwnsFRTh/6gzamloQEx+rm8ke8NjC/CJcPncBzfWNiE2Me6QsGe3MFkJ58fIl7fRKw/qVl17RTq/u9EiJ8igtKsX1K1fR1d6ByKhIuzcp895rq2tw7fJlHaobHRezpGC0F0ODwyjKy0dhQYE2NVlOyoWJ5YMzGj1EQDuIudXS2qpEzdfPT+eSzbFTlgWuBydRShZLIFpFoXD/OG3YKKTNf8mIJQ0kpq1SmTS3NMt9tcDVyUWVkauHG9zc3ODt6fmo6UDfQL8QwGl4C4n19fXRY0PDItDW0oLK6ip4urrD298X7nLcYuC+Yw1nWHi4HNuGsvJy+Pn6awMEzmtdDViXxPpPdtTLybmjpDcoLFg+Y6CpHE2YWEPQiXVZdNPAYD9cXF01SrdcktQusoVG7NlTp9Db24cf/PCHSM1I1UYp9uq63t5e5GTl4MzpMwgQInnsxEsIjwx7bMQE51Hey2VjnvNoam5CYmIK9uzejaT0lMca8xigI5jlBfQg8z50Ru8cQc3yl872Tnz84ftwFNniSfluR/1ei9gft67fwEBPL4LDQmd/a2ItQVJJZ2VnVyf6+noRFhquztKl1hQDAg9n7qOrqwc9oqMDAwK1QeR8x9Gh0NrUivNnT6vzgdk7dLYaILFk/a2Tg6Oeq62tFWMT43B4uB5RNrYc/3R3d5PjPXTdc53Za5sa4FpnBDQwyFqnuW3nNvj5fFnDuRjo/KET2t8SoPtibGQYuXfzhCzXYYPoU6bEmnMtnyxMUvmEwAglCeVnn3ysaZ6btmSKcbg27bWLS0px9uQpNX7Dw8IQn5xo98YtKynHxbPnUFNbi4iICMQlxiupnJ6ZRvbNO7gshLGyvFTnS+3dvRcHXnhBDG9PVUTV5dW4fvUKmkQBB1mCtO5tKcFmoKmhSecFtra3i9HtK8cKmbXz2MXACCUJZXlVpRDXGREkSeqhM/HkwKZKjo4btR056xEnJye1QYSPfK+rIZWEKiUPL1FeDjo31cvLC6ER4XalwfJYjhPxEGXa1NishDIsMlKVI5sOMArqJgqlVxQzh3nzT44aIWllq3Jvby94uHuhRQw1i8WCMLmuPWmw3Hskpm5y36ztDBDSFxYRBs9Vdm3lc6bXmC3UH0yxxmoYcbLnwsPC12TvmDDxvGN4ZBC5ubm4cuESTp06CX+/QFiCAuC8zPplRm5ybudqhg/nIr/08svYuWenGuIb7EjdI0ZGRlBRUqH3MSOG/RtvvoXYxJjH7mVqegoNdU344vNPUVlZITLLB3v37EHmtm1iyH9V75FQTrFfwiKRRxKKXiGFVy9fQkVlpcoXdnFfilSyE/i9u3fFDqmU927UNEUTaw/qF2cnF4wMDek87zFZJyHyHbm6ui2qb1Uf0tH7kA0iJxEbyyZ1XvPqDjpQZh7cR1FhoToqGABhmYttxJLN73zEhmWJCruqs/P52PgkfDx9dNqAAZ6f90wiqo4ZuUeSy7mOjMXA6CcjloFiZ0aIHl4/ez57OuHy2nTocmxPUGgw3IRklleUi33ih7jYWCG9S+t0EyuHSSqfADjTKjvnLn733nv676MvvohNGRl2E7/FUFtfh/MnT2uaXmpyCva9cEgNWnvQUNeI86fPqBLgsbsP7Nc6Eaa6FOUViUI8g+qaSq1P27ZlGw4fO6bjSSgMWhpbNELZ3NqMqIgobN2+3VrHZge6Oru0Ox0JpSUgQJTtLiULqwWHOJcXF6OkrFRrQ9PT0hGTsDZk1cTSILH08wtQ76eff4AoubVJy6TeINHbgPVCCsPVcLK3ixzXqq+QXTdnZ4SEh4tiCXhUO0RiGRIiyu/+Qx3Q3dbaiiEhavw3STGjlf6BQjxd3BEeHYUAuQcqVbuUobzHP8APLi5uWpMZFBSokUZ7lOBScHNx1ZTa4NBQBIcE6Qw4c42bMLFyTEyMqi7Lzs7Fb979FQqLipGYkID0zHStX3ReZg1W/8AA7t7J1ijO/v0HsGuf6Dgx4O2dQ0nwHNXllairrcORF17A5h1b4GRzHySUbS3tuHj+LG5cv6Zkdf/efdi5dy8sIV9tHjQzzdpI6+zfxcCGQMX595CTm4MAkeM7dwsZFrtgMRlzX85ZUlCodgjrL9NS0xBE2WriiWCD6DCuyWYhfHSIxkRHw9t3/qijLaijfeU7ZUCDqarUo/PpM56HkUVGNuvrG9DX063r10d0L8mkAWvvA29Np2XWT1d3J0ZGhjXLh06Nx+6Hy04uRWJpNAFaDrHkvfqIbctGfPy/6lI7iSXBEhKS4wDRxaz/DA4OQmhoiD4TM9PnycEklWuM0dFh5BcW4W/+4i91qP8bb7yF7bu2alfI1YDjHFrb2nDq0y+QJwogIT4eB46+gPj42Nl3LAxG8NrbO3Hu5CkUFhciLi4Ou/bsRUxslEYo6fnUWZRCKCkUtm7eigOHDothHa4ezr6ePlw6e14IbS2CAi3YsWs3YjgjaAmQrPb19+PKhQty7iox0gOwa9cuRIrBvlqwlqOxrk6eRZ58hhmkJiUjYwuV8NJ59ybWDq5uLjq3yjZVZi3Adci5pYxaOjhQIdnv6eSxFjnWWxTSBlGIerQoI31N/s1OxvS2sglHc1MTunp64OywESEREdqIg15X1lrqcHK55mOKchHQaRTGY/18RKEJoZTj1mR2pYCRVM7mojNmnWhYzoVdjoI2YcKEFayZbGxpwrlTZ/Hf//t/V+fP0ReO4OU3X0WCEEtXO8YY2ILN8rj3Z8R4jo6OxRYhg+ysuhxQV05PTmmE0t/XF3sO7YPjxi9r1Vg+0iE6nEPmv/j8M937mzI349jxFxEWGfZIvhGMTrJ7e3tLmzb92SiybSEZNi02Sl11Na5euy7/eoDjR48hIiZ6yY6bPZ3dyM+7qzXsEWHh2LF7jz5HE08GXF8OGzbCRYhln3y3MVFR2pXVnhRlzSrSwANHkiyuNzi7kr0M6hrqMTo0oo5MloDYri9mAzk5umB8dETLX9gDgT0M2O3VzX1OqvcssSQmROeylwexnBpjgnMs6RuxJZa0ie2pc2bUMjoqEsFBQfo5mNqusznlHKYOXXuYpHINMTk5jrKKcvxf//7/FHI5gt/78e+LsN0GH6/VNe2g0hoYGsRv331PhP9VJCcl4cVXX0GKHZ21qFSGhobxwa9/q2MT4uPitU4jMSleCSU9nz/7m79BVXWFbrCMjEwcPnIYCSmJSijHRyfw+Uef6Oyg4KBgHDh4CAl2pLlQSZJUn/7sc5SWlSIkJFQ9uDHxX864XClIKDvbOrQGhjWim9IzsHn7tkW7m5n4doIyn552q+xfphKgQpP/yNGiRHic9VhGLMPCIzA9MYVONh3oaEdTawt8hMCSyBoKT5tVyDlIDO2OOMzenypBMTKpvOxRfPaC92ToaRoaplI0YWJ5GBoeRG5OHn72079BYkIi/t4//Ic4cOiAkDm/ZTuBjO7rU6JLg4KDtP5x3u6rS4AlMhvWb4Cvnw+iYqN1bxug/OPoEPZm+PiTj/R3EZGR+NGPfl/HONBxZsBId6UDmR2pHbAeARbLgg3smIHEshQSg7TUdOw9uH9JJxr1L7OW6uprNWp16IUX4OvvN/uqiScFR/kOg8PCkJqaqlk49s6stIURtV7oO2ZEMVDIF3tmNDQ1aOSSJRe20UrCL9BPG8axDre7s0NHgbk4uWgdpJvbV4klZ55WVVYj59Yd0aUsRbE/+8iAQSy5V4ZHhzEwOKijw5a1Z+V4Omho+3K/8T6nZ6bEdp8Q3Xpf7skMSqwWJqlcQ/T29uCf/pN/qt3Y/sW/+tfYum0zvD29Z19dOQaHBpB75y7+6q//Etu2bsPb3/su4uNjHhmwi2FkZBR3s+/i1+/9Chnp6XiVdRpx0WqcNjU049fvvouigntKPtmu+pVXX0ZyeqoeOz4yrmkx5y6e1/rL4y++hFg7IqME53SVFhTi+s0bQiiDcPz4SwiPirTnlpcEW5d/9OGHGJXPtmvnTmzasgWOTqYweJaxamIpf9p2p90o64Upr0LLUCMKcVgUVF7eXUSERcLfEvio0xyvy5+VEDgqwQf35VhRyGuRBmuAe5deWipFRixNmDBhP7gVOT9yy7bteP3tNxAZHrFsA5cwCOXY5Pjsb1YG6l4aymyWMx844uvqhYv4SAjl9PSUEE9//PEf/xNERAmxmNOYh6OT2Cn68uWLWkO2c9ceBAYvPFczLzsHxcXF2mjsre9+Z0lCSVSVliPnbo4+yC2btyBxia6iJtYWDtRN8jWtRKcYumyx75nOeW8fX4wMDqnTnqO95stEYvkT02pZrzg+Noby8jL4eHnDMkss5yIvOxc3bt5EQ32ddmMPC19+Yyfq1Oqqavz65+/ii8+/0C6z7h4ey3YG8TlMTXGU3n2tIy4qLMb0/WntFWJidTBJ5RpBhyTLT1R0DPbu3YeklEQtdF4LY9JBDEd3bw9ERcTg4NEXtK7K1pO5GCg8PLw9ERYchgOHDyM4NEg9Nayh/Pjjj1BaWoL7otBSUjPw9jvvID7hS68UjWFPLy8EB1iwa99+ERbsOmnf5uUm95BjXZ2csWffAfVsbbBJoVgV5DSWQIsYA+GIjo+Hy+zsTBPPNlZLLNmQwnY2Gx0R/oGB8HTzQFVNtc5kJcF0d2JKb4C2RyeUWDLqKGt6OTVShBGx5J5aS2LJe2IXSO5H/pgRSxMmFgfTXsfHR9Xh6eLsrCmqjHSsZF+SUJIIrmQ+tC14Do4ao062yqnHwQ6bZz8/hfMXz2NoYAChoeH44Q9/pM35Nooss01LnJyYQm11NT744H15zQkvv/IKIqMjH9WzzQd27I6OitKZuPb2OWBUtrurS7uQZmRu1o7dJr5eWBvg2F9faAtG5NatW6/rhY4MrqO5YMorbdn4pAS1AedbQ5xryaY3ocGhKCwuUucIx5e4O7P7aqDWaNoilFF8B0dUyRptbmyAs5OrNrRbLpgB19/di3sF91BwrwBxsnY95D7smWU5F4y6X718FR9++AGybt3GyPAIfPy94S37wsTKYJLKNQAJJT06HHrMjlUkUF4enhpJWC0YkZiSczPK4uvnqx0qbduLLwbeE4WGptUE+OmxDPszBeHCxQtKKAlGKEkoo+NjdFagASo7Huvl66ttou0lshpJkc3KYujAIIuOdHBYpjG+GGhEc+A+O5FxMK9pTz99ePhwnXYGbG5sgour+5rVXDIjlencl8+fh6OjszbXsWtd0mCTn76+flw4dVb+vh6esh/oUfWW9U1iWV1boxHLnp4erJf3enj7aPdGPVxIHDskfv7Rp3Ka9dry3N66ECrxTjHCTn76BR7IYnVxd1l2I5D5YBDL69evo6ysDI4uG1edam/CxLMCprWNjY1obeLU1ITOnSSJUyePGNU0QpdrlLPjenFxKSamJsVoXl7tpYHJiUl0d4uMEUJIPWk4nuaCjXnOfX4at7Juor21FdExMTh65Ci27NgOFzfRezaEkrN1G+sacPr0aR12/8Khw4hNSNCu2fM5nHg9piRSdjLSY8+ICgPrNjggMJBNT8LgJnLQXrvAxNpCnYmii1Zi/9TV1OKW6I1+0XWW4JCvEEuem/qNe4crkwTSdr0R/DdtUaZAh1iC0CCEcqCvV/tobJD9ZQkJUeeNAW28E+APZzlnvZDKhro6JZYhocHLctYyi4hO36CgYNzOykJ7cysc5Jwe3h7a1G454Cfy9PWCt6eP7LEW3Mm+jcbaemxwlGv4+8j+MR0my4VJKlcJEsopUTCTorRYg8hNRoNxLeqopsVgJLFjWJ6Sg3UR9gpwKk8qLJJKGp/ciOPj48i5cRuXr1xBeUWZCo7MTZl4+dWXtR24kUKqdRlyXf5JUPnaGwkhoaQRbfWGUZCsbYTGAO/dWmw9+wsTTxXoDCm6V4gGUR5she7t7atNfVYLVhQO9Q/g9p3baG1u0iJ8d09Pu9LXuDaHhDRevnwFHW0tcqwHvP18hTi6wcfPOm6Es+a65IeKcWZySoinjzpjuIc4I+zs2bNobmiAu7snvH287CKW9Ib29vThi88+U2Xu4ekFL1Fka0Usb924hUtCsmdmHsh5PeErz9qEiecVQ8MDKCkrwY1rN8TQbUZkRJhGN5ipoBbyCkAH7b2CQlw4fRZlJSW6hyMiw2dftR8cG1JVUY2LZ85heHBY5+kxE2kuSCivnLuEqzeuobGxEWFh4di9aw+2796te3wuhoeGUV1egfLKcuzdsw/pWzbDjfMx54kwKaEUWUgdv27dbN23nUb9jBxHW8DN3V2IrZ0OPRNPBOqIkK/t/vR9se0m9Lu293vs7+tHaWkR6hua4OXmpnWUc4/l92zYfexLwFcXIpbsss7xXOxR0N7eipHRUTiu26CzS211pLOTk6xfH7jInzVCKuksSUxNVueHvWuJut7F1UVHhnh5eKGsvEx1souzOzx9PJfdFJNRTk/ZU6FhYfCQY9kIs7S4CKMjY1oj7eZqjqhbDkxSuQp8SSgnF6yHWCk0QmkQymWCCpCEcprEUIxOYnRsDHeu38KFS5dQVV2pqQlbMjdj/6FDSN2U/kj50Ht5X350rtUKFDA7zWoqj4nnGg9FGbHrYFtLC/oGBjAh68/Ly2fVxJIOCp57hHOy2tuFrHUrsXTzXDr9hXthnaxzdrejV7Wvp0ebDXh5ewt5tM7Ecli3Xlv7t7a2aCOA+7KH2GXP28ebGhTjYryVlJfKsb3qZSWxXKgJhgG9Z7n29PgkCouK0CuK193DU1uwcw7lajEt+621uQXFRYXyr/VqdDJTwl4Dw4SJZwFMb61tqEVO9l2c/eIUcnNz4Cb7Kz0j45EeXAmYgVRUXIzTn3+B6poaREZGIjElWUcILQdWQlmDS+fOo0j2Ks8THhWhRrkt+L68nDycOXtaCSXn6+7auQs79y5cH/nw/kPNaGLnWo4Y8RDSt1Daq1XHU0cvPLtyPjD7hM5qE08PpianUFNRgaKCAqyT75XjcOzBRkcnjI2Mavfejq5OHVPlt0izJe6f+0IaGbHk31WXzhJM/slO6Ywe0hHb1y/6s7kZw0IsXUW/Bodx5umXupllJZ6icz3cPHhiTbHVhjvLcFDwvU5yzcBgC9yF9DU21GuHdI4g45i85cJdyGSg3D+dPH6+/pgcH8e43H9GZqaWsZmwHyapXAEGBvu0+xQJFD1+a0UoGZlsa2+TXUpPIofR2nle2Zgcq8GxIUypIRk0IpS8v0ExhO9l5+Lzzz9DfV0tOKR+S+YW7DtAQpmqSqa7q0cuy2EFcrgcM186znzg+Xt7e0WwMBVDBM8aEUoqMBZSs/5lOR44E08HSKTYxtxVlEVXZyd6+vo0Yunh4aVebnl5xWCLdKbWjAjpI7HsFqXo4uSsRI2vLQR6XZnOExQaglHZEySWba3N1jmQPr5KxsLDI7Tj3dj4mBDLVnR2d2m7dL/AQASIERkUFoqHUzPa5bmjrRXOzm7w9PJQz+mCkOuyIyRTwUUzK7Gk0nX39JYft2Wn7MxFkJyX9cvdHZ0oKizA1MQk3ISwmvMsTTwPoB7u7e/RPXnh1DmcOnVSu69v37YdW3ftgEX27krAusnhkSEUl5Ti0w8/VuNbHbGHDyIhMX72XfZhVAxUEsqrFy+qU3fLlq04ePSIlpUY0SDq0v7+QdzLuYuPP/pQDWXOi9y1Yxd279uro0Pmg2YUyT73lPeGC1Gl4844pwHaA8NCVidFn4pAkp/lE0pGT008XeBorJLiYlRUlqNXdCy77Duz++oSCpZ6ks14SJyamhp09mVYWIS1xngRnTE2Oo4u0TOMWDPqaJu2ylIUOkCm5J76BvrR0dGu9xTgGwCvOVk9JJaWEAtCRd/6+fvqNblm567bxcBr835DRSe7uXogNDICwUIyHeW+VpIdR6JKYhoRFYEQ2Wscm2exWGad1Q/lHs2ovD0wSeUyQOXVP9CHHBH6NdW1mi7qukqD0AC9oZyddfnMeWxwdBIj1EkHry8FFkdPiBHZ1tqOaxcu6rGs9eAGsSqpAeTfycG7v3pXB9V6eftg987deOH4McQkxGgtRntbB65fvqIeUxdX13nTceYDCWS7XPfmtWsiYJzluqy7XBsjloSyVIzv9uYWnVW41nMQTXw9YKt51lV0CPnr6OyStdaCyKjoJaN7S4FKMSg0FBOiFOsb68UAa4SrKBOOBFmKSDHVhmk54yOjaGxuQm1tHTxl7QYL2XSSfRcRGYUHYoQNDQ+hs6MDTS3NGBTlGBUTrS3/g0RxP5iaFnJYqMrcw52pM6FLNvIh8QwKlfsTey4nNxulxaXqFWWzgpV0n7QFiSXTgDvb2nHlymV0tXchLSMdnkK0TZh4ljExMYbc3Lv4sz/5U5SVlyAuJg6vv/0WDh45pDMUVwqd4dzYhP/8n/4UA4P9OPbCEex74aDIh4jZd9gH1lBWVlRphJKznndu34njr7wsBrj3Y4SSsyXzc3Lxuw/eF33eAmfRxdu3bseRF48jPHr+axqZRbQDKPfmkyNM++3iXMmcHJEL7WIwh9ttdE9OTmFQ7ku7Ta9SRplYe3A26EaHDdoHgLqKXVipvzZsXLpemMTOzd0NA339ss4bhSx2IC4xUWc1L0Tumhuace7MaVlHnfAPsCiRtE2J9fD00BrLqfFJHVPT3taK8soKRIRHwt3LU2zML0upaKPyHriGeQ7j98shlgTXPNNUmTnA+dD0mfB8KyGWBM/nJ4Tb389fz8G+BYy2MGDDe+PPxMSovM++ngrPG0xSuQzQG3rzZhb+7b/+l6gXQ3Trjh0I9PeffXXlYDSuSYzb//Qf/gTXrl9TAzcwJESb/iwGKhIKfQ5F/q9/9p9x6/YtOK53QIgYxx4eHlrHlXXtBv76r/9SFNuEGPIuePHYizh87KgY1cHaDr29vQM//+nforKqQtuRBwZa4LnEdQkSSiqqd3/5M7n3Zh2EGxAYoJ7V1YKfqfheAW7cuoH+wUFERkQIGTZTEL6tILH0EHLT3t6madjTYmSFR0etWOgbILEMDA7Gw+n7aGlt1s5zKWlpVg/qEucmsQxl57mZB2iWY+vrG5CclqqRVY4biYqOhrOjM7p7ujVdtVn2Z0N9I2Ji4+Ef6IvwqCghsS4oLytDVXUVtm7foQp6qRQeelZJfElEi4sKUFRciN1791iPXYIMLwUSy4CgQAz1DyH/Xp6m9iZrl0hT+Zl4djExOY68vHtob2nGd773A7z65qtISU5edc0yHZstLa3Iy7mLH//4J9ixd+eiKYILoaOjC6c/+wJ19fV44fALePG1lzRCaQtGKG9cvoL3hVD2icxxEjlB5+/r77ytunouGJ1k24apKTYeWjjqyIyjgYEBZN24gZtZt7TJ2dbt25Z0vBGsBadDOuv2bayTawSJTWLi6QPLM9ycnNVhwR4GXm7uYotZlMAtBdprAUIOOQavSfQnZ5W6e7gvuD7Wi36rqarWaPugkNGwyAh1GtsSSy8fb838YcYMHbLDgwPIvZuLsOBQ+ImNSL09Vz+TWFqJm1x3Nr2WuXLLJZhsemV0RV8NsbQF74Vp33QyGdl4JMpubi5CLDmexYxg2sIklXaiuaUJJz8/if/6X/4MMTGx+Gf//J8jLjbmK/UQy8Xg8KAYl6X46V/9FUpKivGT3/t9HDwupC/YsqTg5wzKEjn2Z3/7U5SXl+K773xXI5AWMS4ZGbp83jrbiiNDiB98/4fYd/igenQ4g7K8tBwfffChpj/s27sPh48e1WOX2siMqrLhyIfvvy/KsA+ZGZk4eOQIAiyBq97EQ4PDuHn1GvIL8uHp6YVDBw/qoPq1ioCa+GbAVJvwsAgE+PoiISVFFNHqm9QQVFBUbFGR0VpknyjGpD0GE8GIfHB4GCIjIuHl7o60zIxHdUgcAWIRwhrgH4je3j5VuqzfbGhoQLAlVMfrcPB4YlIq/Lx9sHXHViWU9ihBzgFjZJO1XkGBQdixawc22pkdsBRYH8rh6Skp6XLebfD3C7D7eZgw8W0CayjZ1ZU9DXz9fdU5k5DIEQieq9ZDOoNSDF2mp+/cvVNHc1iN5+XvJabPOWxwxJatW5C+JUOzemzR19uPsydP4ez5sxjo69NsogP7D+Ct776jJQS2BrtGJqdnMD42Ln83RiwtDJLI29dvICc3R8ckvPnWW/CW89vzeO4KobydcwfDQ4Oa8RAda9+MahNfPxgwYF1gTW2tdlZlhJ5N6OzZB86uLohPSML27dvFhgsQPbZwY0ZGMdl7oKerC7V1NehoabWOdZtT/kGyGhwSBieHjaioKAfHdZVXVCjhZSkJI5RzQRrJ9c3aYGbfsdnlSjN4SCzpUKEep429Tv632mwgkssRzuOUz/Ev/un/joL8Aq0N9fL2ENmwNhmLzwJMUrkE2Ja8pLQYn3/8Kb744jNER0bhf/vn/wzRjGTIxliN8uru60HO7bv41S9/gZ7ubvzoBz/C3hcOwN/fb0myyjrG2zdv46MPP0SXGLzvvPU29h8+pISREZWLZ8/j+s3rGBsZUU/WH/z+H2Dzzu2qpIYHh3Av9y7OnT+HgYF+bT++a+9e9cIuZYAODQ+jUI69eOkiRuTvrFvZLYTU29d7VWND6BUlEb5+5SpaWlvh5uaGY8eOK6HcOGfAs4lvH7hNOK6GA7mZYr2KbfMVcM26urspCaTnkPkv9pA7vofRQRKxgGCLHCt77iGPlh8x5HgukuHQkFD09/dr7ebwyLBmBrDBDlNZmcIWIgSR8y+NKOWS1+Z1hbyytpTHss6T/6ZndrXGMD8PU/J9/DkOxWpcU5na8zxMmPg2wNogbwITkxMaTWR5II1ddjvln6vdQ2x0x2wZNsnjnmZWg4P8ySjNcsCUVtYwMrLhKYYnie9cQklZ8vnHn+Bm1k30i04PEIP9RdF7h48d0zo022Y7NLg5EumD936LnOxsHenBhnsL6exB0fNXzl9AQeE9lbsnXnwRYVERIiOWfj7VFVXaYXt8bFSdbpw1bc6jfHrBNFh2M5dFJ/ZTizZsCgiYn7zNxbp1G7Te0cnZWQ5/uKi+4O+55tjNneuV12prakZ0bJzuE8MBwj9ZhkUC6uvto+O6RkV3MnLJcV2+/v4aEX0MGpoEKsurcOqzL9BQU4egMOtYkpU4cziBoKOjE+/+7S90tJmn3+rnT/Kx0FZ1kGfG3gg5d5hS3oENzg5ybk/NDnreYZLKJXD7dhY+/t2HKC4tweaMTHz3xz9CfEyszkdcjfLi6IIbV29o8xwqrrfefgdbdm+Hn9/ShLJDFvHtqzeFFJ5X78mbb7yBbbt3grPzivOLceXSJeTdy9NNzzS+1199HZnbt2kKaX/vAG7fuInb2bdVOR8+cBCZO7aLcWwtll4Mg4ODyL55C9m52aow9+zagy3bt8NLNutq51DWVdcgS849IkqM+eyHDh9Wo92eFA4T3w5wfZE8rdLmmxc8N0kg9wNrjPhv/n0pMsXX+V4SOzlA9RpvkEcpsZT15yHKghHFmekptHd0oLevB/19A3g4NS3KMUBHjvBAbW4lB/KcS15Xrsl9ztpSpuww6qDHyjVXTSxFnljHGq3TWigqVz53M03HxLcRrF9iE54zp87C2c1JdQLT0WxHhDCqsdoxXoxOMsVtenrmsSZ5lA/LNWqpH0l4eZ8EsyIMpxNBokknKhsA5eblauQnJjYWRw8fwY69u3XWtWGgEySUXR3duHD6DKprquDm5o7N27bOzmn+qrxgY56rFy7qaBUfH2/s270XMYkJSo4XAxvy0AC/fu0qBvr7dBbgzp07ERAcNPsOE08r2Nmc5Uvs0MoyED8hbvZkeHH52P5QbxJc9/OBvyexZCbZQH+/jhFh46m59ZXcMyS1/pZAeAnh5ft6u7sejetiJPUrJV5yaY7yqK+tVdLW192LAFmDJJbLjTRa9+A0srPuaPfmIdHZrFP2E1vXdi8uBzrfVvS2JSQI8QkJeCB7nLKppLBYG2J6eLuL/br8FPlnCSapXARszFNaxhk4jUhNScWBYy8gJTFxxQvSFoNDgygrLtGxH4dfOIptO7fZRewIdnErKynF1OQEDggp3LJzuxq0d25k4cq1KygVAsyZlKlp6Th86LAOS+ZgWG74seFR1NbUqAd1x/YdQiiFbIpwWMoIJnjOqooKnfm1TYTItl074e7htmojmGhraUVXVyd8vH2wQwgy0wPteRYmTMwFlyOJJfepPev6MZBYkpgydUaOVWIpZJUNejw9ffBQjMGe3h60NDdiQPbwxOi4KFN3NdyoxAgdZi7nWI6c4DFKTOU4K7Fco7Uv5+S5SS5JldVAXoP9asLEk8bo6BDqGupw69YdnD91BmfPnkJa+ibtcrrU+CB7wahkfVMDcu7cxQP5n5PjRgivWhHGRsd0n3EPU69rV3ja51Yb/RHYRbWhrglnvjiJrNtZSt6SklOxf+8+zSbymzOqhISys70T1y9fRmV1JYKEOBwUvc7OlBs0M+OroCyqrqzS57Rp02bEJSfprOrFQEJ5X8j0hbNn0d7RrtHNraLnw6Kj1sTmMfFkwe+I0WSLJQg+mu3GhjuzLy4DqoN4HPWR6EGWT839/knw3D08tB7TzcUF0bExOlbEllQSBrFkBJ51n4PDQ2huakJ3b682w3N194CfkEtbsKcBu8Tfl715J/uO2KwjcJNrubm7akTVXvDajPR7evnIOYZRUVWJtuYWbJBz+Ph6fyVrwF7ws9Nm5pxMS3gIvNy9NNOQQZyklGQECwl+nmGSygXAeg0SL+ZmB4eGIik1GbHRMbOvrhz0hnKTrt8gBp7DRsTExSEtI/WrqQDzgI15GHrnBuecoaioaMQmJqC3p0ejj0xnrZGN4+nlrSND9u/fj03btsDFzUUL+w1Dd936DdZZW6kpdnevpZJipIONRsJCw9QTxu63a4UNGzaqZy06JgbBIc/3pnweMT01g4G+AQwM9MleoJNj9oUVgscbEctRzuPq7KKbUb2MS5IqUabWt6zDyOAQ2ElVDkZoRAh8vP10CDQbDjU3NqJNjK/xkTFR5q6iCN11f3GvULkyst/U2KKGmrubm3HSBWGQP/LLwZEhbYDFUUH0AK/KcUNiyf0v/xufGEd7V7s2HqITa4MZvTTxlGFsbAQNzQ0oLi7F1fMXcfLkKU133bZtOxJTEtXxuFpSaYwLqa6uxcXTZ3Hp8iWEhoRpiupyDFcDTI+vKq/WTupW/Ty/buRQ+MrSKly/chkXL54XUjuF5JR0HDxwAJt3bBMy8LiBTbnYLbKLfQZYL8fxKCw3SUhKXJBQEtT1jCZFic3CMSP26GqVmTMPkJubC2dnFx2fQjK6VOaUiacLTIVVrOMYjJU5J7l+GOUjCauvqdXO4nO7wpJcsSFkaHiYZtxw3fM4+c9j5JLHsHs/mwexkeToxARamhp1RA8DI15evvDy/nKuMtcby7RYe8mmfmw6NzQwCF8/psy6LWt/8p6Cgi1axsKZ03UN9agsL5fP4oKI6IglI/eLgffJrDpLSCBCwsIRKj/BoUHwEKJMpfu8ZgaZpHIOmBL6QIzACTG+6FFkgRX71F0AAJ9gSURBVDq7Kq52ACqVGI06psMwvYb/Yv2jxRK4oAIyQCOVHd5IKOn95L+ZcucihmpDbT0uX7iAzz77RIznEZ2zx0HJh44eQUJqokZZSCgZeTE8p75+vuplsUcx67VFSDBdR/6lKbSsvbQnrWI54Gwt3pc95NrEswcSyoL8PBQWFCDAPwAuQtJWu8bUSJK13yLk7Ma1q+rx9BRlZU93WO4TOn84quTqpYvW2mQvHwSHB4uSChFiuU4JGmub6+pqhTw2wFOUCaOWTs6O6uGtrarTaMTo0Ag8fHzUY0sltxRmZqZRW12vtVajo2Pw8PKAm47rWZ2SIrFsaW9F1o1bOHvytHyWELgJYXVaocfWhIkngbaONpw/fQ7v/eo9NDY1IzMjHcdffhlHXjyiUYClIm5LgfOg2dW5tKQcJz/9TI3WlOQU7f7sK/JhOSSK+pwyoCCvUEctNIm88PMPRKDl8SH01J8cGVJcUIQLF87jxvVrKoMSEpPx0ksnkLFls2YTzcX05DRybt5CZU21RiiPHH8R0bHRC8ovpgRTbvG+2FHa2pHafjlKG8Vpw0YkJMSrocy+ESa+nVCCJ+tkpQ7J/t5+3Mm6hRs3b+jsZktIsNqMtkSVfzfSUqlf1q2zZsLMjVgSHNdlkf3rtMEBw6Oj6OzsQGNjo+jHIfj5BWqzH4Mw8rzskBwVF4vp8Ul1qJDABQpBZL+N5YKzMJmy6ursiraWFrTKz669u5SArzbTTvsrWCxie4dpkIYp9OQRVlhLcFiCMj09Kc/q2XfQmKTSBlwIjExy8DnTV2hYrgVIKOXkSibZqU5T3ewAI5P3hdSR2FFJTE1O6d8ZzeD8ybu3s/Hxxx8gP++utiCPiIjAG6+9gV379iIgyKrUSCinSERt6k+WgkEkVSgJ6E01/m7CxJMAo4mNDQ064qahoV4ImjvcPDxVCK9G5tOR0t7aisqqaq1FGhBFycwDNhUgFiOXOq6nrQ0FhYWaUj4iyi84JAQckcJaZRb9cxQAU9k546ugqFC723n7eKtSbG9p02YXrMueGptQMsrrqjNnkeuy811LcwuuX7+uBiimH1gbFsgeX22EhuMFyotLtdFW1s0sxMTGyXN2VaJtayyYMPFNgDq4XvZ/XnaOOkRff+tNvPTaS0iIj39UJ7waUBd3yF69de0Wfv2rX6JfG9W9gFfefl2Mwi/lwlKgbmYkp1/20+WzF3HxwkUljrt27kRiarLuJwO0Kbo6enQW9MeffKTZRIa+/v4PfyDvT4WL21fJG3U3o5HDQyPw8vDQEWbBofOMF3kgupnqWX5YsmN1AC8fHGhPJxzHPrCr5aOIl4lvLax1/iQ1DzAmOoglEPY6GZg+Sp3HdNXa+jpsFMLIEV5ziaUtGPxgsx/uUw2EzLAM5cv3MkXWInrQQ/QkHTusJW5sbNA+IQF+AY/NsuQP91FcUrxG/1LSUxEoa5NYTG8vBHexKYKEWCYmp2iaapAlSPcXHSmrlSuPQfehkMhZcknTuX+wX0eXsfM73/Ask0uTVM6CX/7k5LhsvDH1uKwVjE5yM0Lq2E1uOWBkkuSWC1SjjLNoa23Hpx98hE8++0Q3JRVUQnwi/v4/+kdISE6Es6uzksjJiWkhsLJllvl5lLjKNa0Ryi+va8LEkwLrJULCwyHqROdNcg4WU0/9GLWU9bxSUKH5BvhrB9f29nZVYBXlFTrYmFH3xaJ/9MD6ixKLjIhSxVpeWY6KsgqNpLL5QGRMJJKSkjA5Nq7RSrZNLygs0O7K/v6BSM1MRVxcIlpamnHt6mUdgM7GF4zIL5adwEgJW7snp6SitbkZFy6eR1lJhc63ZJbAaiI1zLgIl/sODgrF5csX8dEH74uC99CmWKvtjGfCxGrAkpPRsVE1IBNSErH34H6kyP5iJGCtwJTXk598jl+++wuEhobjxz/5CY6/dEwNzuU4VUgomcXwN//zL3EnOxtRkRF48513kLl9s866tUVtTT0+fv93OHfhvMiGQW0WkpaWLvr6f0FEZPiCsoD6l47oQJU10TpYfj4wOkmnM/U2IyIrgRJKOp5NPHO4P30fjbV1+PCDDzA9OanzRumwWQokd0GhIYiLiVeHbEVlBTau36DE0kqOFsb46Dja2zrR1dmuo+ZsweZ37NQeIjqoubnxUWf1wqJCOAvZ4mu2I0qoo8PCwzTThySZUdCVZu0wEkq9Tx1sLTURgifnWrMeBraYJZet7a24cPYC/v2/+3foENudEVNvLw/5Dp5Np81zTyrz7t3Fe798F7W19WLUhq5ZjRHzxc+ePqfeySkhdZbgxzfWYqAH5+JJOfbqdVESUKVi4Prla/js009xN+8uJsfHEShG6ksvnsB3fvA93SiDg8O4cu4Csm/fITuU1y26uO0Bx4XcuHIVd3NysE42m58Y42uF5sZmXDp/AZ3tHTpX0IyKmJiLDbPKxhIQIEqmW9uBt7c2w9XVDZ6iCFa6ZngcR47ExcVhQghgV3enzs6anpiCj5+fRgAXAo9lSnZCchI2COFtbmoUwluFSVGaPj5+skd8ERkdjQgxUJtbWzE+NqZ7v621DTNy/rjkRO2MR+JWWlaKElGcD6Zm4OXrC88FjESCo0F43YzMTfB299I5tHmy5yH70tvPR8jhnK55ywCjMYEWf2zfsQvDA0MaSW2R/enm7YFA2fPPQ4qOiW8WwyODYtCxP4CDqKkZjI+PYkz0mUFsHGWN0gBc0wiCgFGDh7K3EuMT8cLRFxDDWdNLlJ/MB6a8fvL+R6ivr8OJ4ydw9MQJrbneaLN3aFCeP3kGn3zyse79qYkJrbvi+998521t7qURmTmpgnQC0wnN4/WGF0F5SRnOnjqJeiENgRaLdoNdLkxC+WxjdHgETQ0NKJE12Mpxbc4u8A8MtItYUv+5uLsiOjIGDfUNqKmpxlD/AHy8RX/N7dxqg8a6Bpw5fRpFhUV4MDkte+PxWeNc8dTp8bIPZ6amtDPs+Ogo6uQ+e7t7tLuxrd37CHIg9wUdKJQNy+3KPBfMGtR5r/yH7MO1ljcEaytJpNfJda7duI5LFy6gtakVG12d4OHhpvXLzxKeW1I5NDyAjz/6GB9/8KEI/HJERUUiKiZKU2xWA6bXFBUV45MPPsKFC+dUabKoPsieltyiQIqLStWTeu36Nd30TE/zD/RHV2c3Tn/2Ba5evyobu0bfnrl5C155+RVs2rpV59JVl1fj/OkzKCi4pxskKjJSi6PtQV1NLc6fOY2S0hLloJEiBBilWS3YaCDnVhZy7+bquBA2LImOjnlMwJgwQVCgc817eHohOCRIi/OHRoZ1XE1waJh6TlcKKkcaXExBZepNb18fhoeH4efrt+Q612PFyKWHl3WTzc0tOq+SEcugsGD1oDKiGhEegYnJSXSLguzr69U0O0ZbeZzKANmLLS1tct1BWCzBCAsL0dSkeSG/pzeW+yVAngW9upwJxqZcQSGhiIgIn33j8sHnzOgPjYKY+FhsXOeAItn3Xh6i5BPj5TVzkLOJJwPq3dt37mimTe/goGYocJ0z0qaperPgGl1LA49RCUYXaYw6a22XRcd3raRmkOdgBpGjozMSk5OQKfrXT/SvQSiZ7spxIRxFduvWTTQ1N2nUkY2GXnzxhI738vYTQilyxSCUzI4ikeSfzC5ieu1C4HMiCaRevXbtmsibLk3lixcZYw9RIAZFtt65maVZFR5ei2dsmPh2g6NGWDfPbqttsi4ZtODf/QICZQ0v7VDhHEtX2afM9unu6hC9F4iouBhtBLUQuBfcRd92dnWivLICfV09CBEd7jTbIVajjbK/Oa4rIjIKPqLz2diOa5m6mXqOndXDRM8ZNZsKERF0xHD9GyVZxYVis8rfORbssffaCRJLnmpsYkxrPLNu3oGnr6dmHKxFBJMdaN3F5oiIicSmzC0YHRpGzt0cJdz3Zx7Czcv1mRpD8tyRSnpI8wvyhXydxYcffqgNMI4dPy7EbBN8vX1XtCgJprk2t7Xg+uXrGpFjqlxaShr27t+P6LjoRTcgj21v78SVcxdx9cplTTVgzvf2HTu1tqFCSO+1y1dw6/YtLTL29vHRGZE8d1xCvCjLSeTfycWNG9fR1taq3Vm3COGMEkK6mOeSHp8+2cC5Wbe19qujox3BYnRvytiEiGgh2Cvwehpg6m59bT2yb99GXWODGubsnpu+aRNcOYZE/m3CxHygw4EdYP38/OEjBk9YRITsgy+7w60G7FLnFxAALyGHTIG1COFjd1UqpcXqNLS+Q/YDhzYzmhcm+yQgKEhT0qg0eF5GPVkX4iIEdGhoCK1CAhm1ZDSQKa3RoojDQ8O1GyNTWUnqNFKxyHXlRSWW7EpJIhoeEanNCnxFLojGW5XhzXvykvP4BvghMjJaU4wCAwN1rII509LEWoFprTQW7+bl4eSnn+P8Wc5arEMIU+BCZf+xA/mXfHJNQScvG9dMiY6dmplSA5KRSZLJ5ep6oyyE+prywtPbQ8kpMw4M2TTCcV/F5Th/5qzqVDYj8RW5sHf3Xhw4dBDxiYnw9Hk8wjMyOIyK0goU599TYsnOlwuBxjTn/N26dh3ZuTl6P8lJydiybZvWoy0lDzg2hM2/rly4iLKKMiWoYSKTHJdIZzTx7QUdBoz8B4n+YHZbZ2enjsVi4zovH19t1rYYuKS4vt083IVQWhAaFiZ6j7WPC3dS597y8vPVTs19QhBr62rQ39MHH15PbOH1DpxCIPqLut7TXfZIgOq0+7KvOM6mQ/YN75FN7rx9veHCDuiG/p+VFdyPQ8ND+PyjT1BXXSu/X6fNgFbSyIdygY6WyrJKnD59El2tHXBwdFQdza63qwH3JEtWWF7i7++H0IgwREfF6XfhH8j+DEKq5Tktagd8i/BckcrOznbcvJWFk598hptZN7EpPQNHT7yITCGUTF9bKaEcHh1BTW0dLp4+h88/+1Q9Q3t27sbeQwfU8+8lhvFCoBJqaGjC5bPnteZCliB27diBZCGk3M1VZWW4JfecnZ2l3V0TRIHs3rkLu/ft01mOnZ1duHHlCu7m3xUF81C72G2X12MTErR71kJgM5DWpmbcui7KKSdbLiWkLyYWu/fuRWx8vBraK8WIKK2Se4UoLLiHvoEBuIsQyUhLR0p6unbhMgmliaVA+cr24WwawTTQ1bT+ngt68zl4manhTK0luCbtEer07CqxFEKpZJS/lP/wSAdHB/hb/FVBOjlsBEuZOc+SjYfofX04fR+BliBEREdq52fjevxzqWuTtLLOkuN21IilB1UOUcVsx30vBKbZ+vr4aIdrKjx6kvl51vO8JrE0sUr0D/SioLgIN6/dxKnPP0NZeQVCQ0KUYKVmpGq0f7XdXOeivasDNWJkUjdyzA8bh8w8WH5vANsRXsbf2duAP9yvNKr5Y6BNDNHCu3m4dv0qsm7dxNTkpOrrfXv2Ys+BA5oJRaPXFj3dvSjKu6fzKrvFiA4WuWJZIKtJCaXIkeuXLmv5Cztkp6WmCqHcrrJhKTnA++9sbUfWzRtas85IKxsgBcjeN5vyPNvgGnZ2dREZH4BhNpbr6sYwSaW7O0LEjrQH1JGsR2RHYeoHKgrqofl0F9/LvcEAiK+PH4YGh9DQ1ABXJ2fVu3MzBNj9PzDQAm8hlk4bHbUBFvsJsL/C1MSUkGIXtQfmjhMZFzu2V/Z5cWmplqaw5MRBjiexXK49zwwDnm9K7NfsuznobOvAtOjsDU4bNNK7FnKKTY7ozGbDrUDR5erIDQjUZ2iNvH77R5E8N6SSjXgqq6vwu1+9JwZeLw4fPIQXX3tZG214r2JcCD2hTIUrLSrDp598hNjYOBx/8SXsObhXNmvIovUa9LSQVJKAff7FF4iOitLuceExMehqF+EviunqtavoaG/ViCUbd1BB7dy7G5YQC8Zl8ddUVGqeNlN5dm7fju17dmuq7VIbivUr1RUVOlzW19cP27Zuxd6DB5X0rTY1tae7S0hwts7YCw0OwZ59+xEZF6NpgiZMLAdUTk/CCWGcl/qQwpwNLqz/XtwwI748Vg/W4zmyh+k8/DcjEUyzZcdG7gF2mGQX2aqaanUMbVy3AQ5OTiIb2JaI5G29noNY7Po0DLiv1cgVuUMlqMfOstpVRS3lvDw374P3zPPraXXWmUkuTSwf1LkcD3Ln5h2cOnlKCdPBw4dw8OhhbN68GSFrMB7EFpztypqxu9l3cen8eQz09iJqhTWTExMT6OnpRX1dg+wzaxdWRvWMfWELzp5sbGhG9q1buHzlEsrLyrR5Xlp6Bg6I7tu5d486m4z6Lx3xJcS0q7MHNy5fQV5+vhrLKUJAk9LTsFATFKbG9nT14ObNm1oHfmD/fmRu2woPz6XHcLEMpbW5BbezbqK0vEydadtF5yckp8DNjuNNPBtgxC8wwIIxWbNcj/5iN3LO5EpAXWHoLeohw9liq8MYiSSxpD6kvRocHAzfgAA4z6bB2oJOWUuwRR2v7OkxMTkhe6QDlZUVmJT96OTorPfPjCHjGnSCBgkpdhYiySy9iqpqjYxytJfhjLa37pJ7kCOFQiLC4eLgpF2o78neHBse1agrX6MTdi1AuRfo7w8fsetJzLXRlsgWyhjrM32IVvk8ff09+nem9vIZfxvwXJBKpt8wZWVweEgWsyu2bt+Gl197ReferDQ6SZBQkhjq3+/fVy/Ma++8hcTkhMe6V80HY1yI/l3WEJuA7BdSxw1w5eIFUU6X0VBfBwdZfGw9viVzC976zneQlJqkm0oHu8ti5J8b5M8XX3oJCUKQ7UlZ5T2rUSxrdGZqGi++8gpiE+I07W0twBQbfqjw0DDsOrDvsfQgEybWCvS8j41PYEJ+2ORntWuMxJICnQqLtZHj4+OyjIUscq8sRthUB9DglL/w2LEJTWPz9vVFTHQ0pienMCZKcVKUJPd0RWWltmp3d/WEo4uz9fz8nxw7JoqXYz8orwwCuRhILLUWTW5veHRY61Imp6fUS7xSBchPqjVeIjfpkebcTKbzDg0N6r83ioIzYWIhkEyy+Q7XMPfERifqsEi88c4b2JS5CYF+/mtKJrne+/r7UFVZrc1z7tzJlkX8EPEJiQgOC1m09GQueM/c982NrdYRIB99CA9nV43mqa3AvS6wOl+m0dfbj6L8Apw6dVLn+fUJkWUmQ2bGJrz59ttIzRCSOKd7NQklG9d99snHaGhsgI8Y3QcPHsJmIYiuC9gNuscFNNLpvNonhDIiJsru59jZ0Y7bQnpJKL29fdQ5HZ+cbBLK5xAkZhGRkYiPi9eu35qdskJwH9AGpT3b2tyKqakp0VkOVjI3qzP5JwleVHQMgkNDNOuGq5naaS6xJFhSwnnr7H0wODysHaEbheBx3jTtZC8fL03nNWx39jsIiwoXMhqMybExlFdUoEnen5icqg6X5dgF1LfMbohLjEdAIPs6DGjPFZK/yOjIVfdcWQy0y0kuKVeY/Xj61Blcu3RF2PYGIbz8rBxFIjbBU+7kXTc5NTMrJp9NkFA+mju5RiCZJLgA6E15hFmjcjEoCZX30SCenJjUf09MMRW1DedOndK0XOZacyPQKN2UvgmHXjiCuOS42TOIEp2Y0nMYisZeGASYDQsYgTBh4tuM3u4+XL18SWuKd4mRFB4VsWZpspwBW1tXi5CQUOzYu0frGu1VTtk3b2mH2NDQMOw+sF/TZO9m3cHlK1fEiKzXLpDci+zAd2DfAZx49RVRlEIwhaxlXb+FosJCbbK1/8ghHSFim2K3GG5evYmC/HztaHno6Avw97X/2MXQ2tGGs5+f1gZE3/nR97ApLUMMkWerY52JlYEjp+h0IBzF4KJjZnJyElNC9NZyNNdCIKFsaWnB6c9O4pLIAu7RQwcOYv8Lh8WIjRASZp884H6kY5gOnXu593Dx4gUhYh2aqveDH/4IUTGRuj+N95J4NtY34aMPP9AZtobODhZ5sVdk0bGXTsDVY34yO9g3oLWlZeWl2LplG/YdPgQvr4U7aRqdWTkveiWgrVF6rxCXrl5Wg/973/sBPLytNXEmTDAzbTV6k+urt6sH7733KyE8Djh+9CgS06wR9/lI4yOIrawzKWf/SbB0zADH4nV2dOE3v/41yspKMSF2vKOTs/b8OH78BNK3pGtDIFuH7+DQMGoqK1FfU4fv/PB7Wi9qrwyYD6yzbGxo0tnTSQkJWgtKMJDzJNHe2YFzJ8/g5MkvtHQmKioGb739Ng6+sB+B/gHyuVbe/f1J45mNVJJMzm1TvhbQ6KScj7MnWfj/GOwglFRcU3KsenHl3w2imM6dPK0bkoYoDU4qp9279+CNN9+SRXRYFFuARjBnpu/LcTPWuZPL5IS8FhU+ifASt2nCxLcC42PjaGttRUdnl6aqtDe3qrfS2cVl1Wu8q6MTtfX12kK9lt2WZc8Hh4U+psAWAo8tKy/XuV4V8ieHRm/dtROZmzfDz8tbMyY4m2tclGSdXCP7zh04bXCEn5DMvp5e5OXlI+v2LZSVlsHRwQnhkeFLRiyJ5sYW3M3L1SwHjhpwkGPDIsIeeXRXCkY/G+rqcfHSRWTdykJPZzeCw4PhqbP9Vq6wTXy70d3bhbt38/Cbd3+NiooKpKalqL5lGpyRFvekMTo2InusGj/96V8jNSUVv/eHf4Bd+3YhIJCjcexf9yTCOVm5+N2v39P0UhrHr736Kl5/+y0EBwc91tm1rq4Bp4QU/ua9X2tEhPNpOXty3979eOOtt7F9z04xqL+a3qdpr/LDDCOO1YqPjUeGyAQavgvJFdoutBlWMy+a1N7Z2RXR0dHYvHkr3L08TEJp4hGMvWqv03QueJyLuxsGe/vR2tKs9Y0DvX3aW4BRx8XAemdG39mFmKlzPJexb2jzsjaSI7kcN2zUsSNDA/3aUZZTChpr663d3G2ikWyqYwkKQnxignX/y6lYFmJvCuxcMBPAL8BPs+3U9uf+ZbbACs9nL+iITk5JwdYd2xDkH4jaujqcPv0FPv/0M4yNjCE0MuypnSv9zJDK0dFhWczFKC4u0kXGjUICtdxo3nxo62wX5XkP5eUVCA8Lw+T0JLS2wg60t7UjP+ceqioqtbEO0wN4bzSGr5y/hNOnTqOwuAD9fb2iQGaQnpGJd95+R+sbWcxcK8dxBhXHEjwUYqiw4yNx5mRFcQmqK6sQGh4qZJSpfav3HNMrxTSHarkvjisxR4OY+KbgKIYbO6J6e7hramZbe4cYfLXo7+mBP9ulO7H2YvbNy4SPv7+26ach2NHZibqGOtRWVWtzDHbBYw3iQvD09tFmJHwP6yIY8WyoqRXF5IU4UXapKenw8/VFjyheKsmx0RE0NDWipaERnh6eSN+UobUujfK7wnv3UFNZIwrSURUbU4cWgo+vN2Li4uDr6Y2Kqgrk3c1BTVUN1st9uHm4WbtsrgCUQ5zhy5ruSSHyp86cwt2cuxgbm5Dn5A2PZQ6ON/HtBbun01nyxWdCqn71a5w6dQrtsu+iIyMRmxC/ZpkCS4EGHvUlS0hcXJ0RH5+Eg4cP6qgdkrTlOlLo6L18/oLs13bs2L4dr735BuKTEmTPfdl1uqmhGZfOXcC5M2dRUlKMQdm71OV79+7D66+/obWTmk44h1DSqCWZNNIESSApG9j0hI2/bN87Lnuqqb4B58QuYFMVawOdlettYwalo5OjNmrhnyahNDEXXMdaSrXeAS1NzWKP9mvDG3tGjhBc4xz75SkksE+O5fir5uYmnc1Iksc1v5DjhETt7MnTuH3zpujbh3AXfWI08uHeYK0lyWN0VLRmC3BG7GC/kMvuLlRWlKOvqxfusk9p9zM1lPvV2P/G52LfAV6d8oJZi/bKB5JROnQNGUC7n+mpmoUh90b9PjwyohkAa5nSz+dJGeHu7oHwmEhsE3KZnrpJO8sHBAboKDAfIZX2OLm/bnzrSSWVXGFxIS6eu4iTouhYjB4cEaoPfLnRvLmora9D1s3buHj2PLLv3FaDKnVTml1Rg6bGZmTdyMLVS5eRl5+ng12T01JQX9eInJvy+8tXkC8GY2NTgyz6+4iOicGLx0/gwKHD2l2rtqoKudk5ms89PjaK1PR06wJa4jN1dXYJic3RDm/FJaWYmBxHUkqKbLbVLT4W+jeJ0ZuTdVuJO9s9BwVbZCM/vWF4E882KOhpUOooDyGRriJwu4VQsjFOe0urNq9iLcdKwA6x7kLiAgIs8BcCyAY7HA/S3t4Od1c3Oa/nggqXv2crcs6uDAm0aM0nh6S3tMo9+fgIQQtDqBi/EaKEvURO8Z4H+vv0/AODg1pzZbFYkJ6xSQ3Ce4X30N7WAnc3L3j7eH2lc54BJ/n8TNMNDA5GTHSsZlSwSyQHX/t4+8HL1wuuKxi0TKLAujSS1tDICERHRKNclHlJcYnO3PK3BAgJXv1MWxNPN7p6OvHR+x+pnmWDNxps+4VQHTvxIpLTU7Q28El78A0yyZplOo3vP7yvNVU+fj6y3321KY+9UQlm7/AzMGuIcyxdZF+npKaKnk5V3cb9RLBhz43L13DtymXk3OV+qlc1nJiYotHM7Tt3q5HHFHYOOSeYVcSmOjRedf4kryU/Bii7GPEwjELu8+7ObuTeuaOR0vb2VoSHhMo55Zna6bhlLwN+Dp7b+DsNagO0W+yxXUw8v+CauXD2jM5a7+7s0IZOdH7YA+o9ZtsEie4icaONSN3GueTsMWIQs/kwIESUmUG1NXVy3U5sWGedV23sJ3ZN9qKzNjwcQaLrN8i+amtrkz3WpV2Te+SY4f4huIrt/JhNyo0qW8wa7X+Azq5uFOQV6Lg7No5kD5KV7AmSS/ZIuHLhEu7c4uigLjg4bZRre6ypY43yw83FVb8Djh/hWLLI6CjtB6N0QO6DfxoZQ5Ni7zvMZlV8U/hWkkqmggwO9Wtk8vqVG7hw5hxycnK1NT7HaYRHhsFDGP5KwBoNtj7OuXMXWdeu49r1axgYGkRifIIOOQ4KCVpwEVI50ZuZn5uHrOs3kJWVpQ0EOGuPx3S1deBubi6yhKAy1XVkeBgRskm2b92OXbvYtTUEne1tKCstUUJIDwg75qWnpYmhGLTgpuSGYe55WWEhcoVQctjs6NgYLAEBSEtLR4AlcNENvRhIJpn6xohJeVmpjghhikFiQiJCwsIXjZyYMPF1gASQCohzI72EVDH9jmN8WN/EVuUrBfcMj+dYE0YNSCZHR4YRLoTQW5t8fdmMYC4o5Okc8gv01+7KTo5OspcmddBzQIA/fPx9tKaSXlw2LnFwcrZGW1ubRRn3qsFMT6W3fA56aGmkRkVHa3c8ekQXMpwZhWBEkwY2x54ECalleh7nzhqG8kq6xDJlz1nu0cfHG0GhQQgNDdd29G4eHggTecvIq5kK+2yC+vahkDfqsts3b+m+2LlrF/bs2yc6cTPi4+O1zudJEMrxiQm0iU4sKS1TEsY0VI023GcToFnCJOtZRw3Ysa7Z1dVaCmL9ofHLvUYwKhloYb2SdW4t67NKC0tw4+o1IXo3tHs8DcnIyEjs3MHPvxebtmwWuROgWROUBTOT09rVtaaiAjfEfqCBx2gDa8cWAklrtXy+22IvsEM09XlKUooYkHF2z3RmOQ4jTPm5d+Vajo+aoZgwsVywfKOjsx29JGvd3SIAHqrjltG4pbYYdaKn6AiOCqKTl6QtNj7OqncWWcfuoud8RIcPDw1pZhDHcE0Mj4gO9dRUUI1Yyh7y9PJQXcxona+Xj6zxdULoOtAghJTyabBvEFOyBxmVf9Sgixthllxyr92TPcIxff3y9+mZB0pYqVOXSy6Ztdcte72qshKVVVXqyB4YHMB9uRjn37Nj9Ep07XygbKVD2FfsDtoEvFdenxFYZj+wMRpTifMK8rUUYWCwX66/Hi7y/Fdq+68U38pGPZx9de3aTVw8exbVtdXgQPGUlBRtr52QEA9Xl5UZkkoKW5px9ovT2jCHLYzZMCMjMxOJqckICwuZfedXwWPbWtpx9uQpIbjZ1gUlXzwXAQkux44UFRdhQsge6y+YHhcqRm+CkLMERhLlvZfOnUNFZbl6YTjLJiY6BsmpqdoxayFQAfXK5rh66ZLOnuIC8vMPRKwYoInJyWJYBs6+c/kgobx3966mO1G5k0xSWDDyye5hHIlgwsTThqHBYVVC9I6updeQQryro0MjkGzpb6uElhLcTHvvaGtXkukuRIwwmhTQgK0qr0ZxYYHs4Rq0CrHkLDESZco1ygFi8/ZtQiwjVcnyelRYSzUhsNadtsHX3xcBfgGqmPVY+VltswE2E6AhzQgV6ys3bnSSZ8J0ITO97tsIlpCMjo/pd8lGTNYafGs9HyMYQ2yCUVur6Z2MpNPJ8qQ6EbI2s7unG83NragoKtbI+Fvf/S7i4mN1Xy8HNLo49476mc3xgkOCtE6KZHJueQxrJvt7B9De2o56IXi5eXkoLyvR1+ikiheil5KSivjkJK3bNBqL0OnDJj+tjc0oKylBfUOD3ufWzM1I37plwa6udIBduXAR9woKNMoQFBSsXTm51+3pyslh8UP9gzoerLKqEh0dTN/dqQ5wGtYmTCwXI6I/K8pKUSzreHh4UOtxU0UPpWVkwFf2jb06lfqS89DdVV9Zo+S0ixcCo/XMtKuQ61bX1mBMdNex48eRvnnTV2xNpp+ODo+iXGRDUXGxBmkYGSWioqKxbYtwAbnnkNBgdYQaupqOosqyChTIvm5saoazEMrt8t74lGSEhocgIGB5GTfsjdDU0ILie/dQJnuQpJjPau+hg0hPT4GXx8rHFS4X1O3vvfse7tzOgp/wh/RNmYiOj4FFCLglMFCzlb4OfKsilUar8pb2Vrz3i3fVM7Fn1268+Oor2L1vN6IihOisIK+ZKTVk/FSoTU0t+OzTT3W+4v4DB3D4+FGkamrP/EWxRgoNjTd2ifrt736rmylESCM9Cu3tbSgsuKczdJhKEBoaiuSkZOwUwb//8GGkZKSqF4cpajduXNMQf2ZGpnqBUzPS4SnnWAi8tjVK2YHr16/Ke72RlpqGvXJsQkqShuJXg9GRUU37nRLCTE/09h1UVlvUS2TWUpp4WkEvPQ2yxYgePfs0KJezjnk+ptbQG8s9b4wg4e9JrrgfeV7OeVTCZ3N9KjUvb2+tCZGD1ONLzyKjLlTS/qKsg8RodRdD0CCL7DBZI8qS6eZTPKfYv3JJNYbXb7AOX+c1ee2R4RGtCxMxJvf3pQLme3z9fJUEM7JjO4KEMo9/chTJ5NTkV45dCqyldHezzgKjHGKtiabjMNWeMlU+58jokMiPSXXQmXj6MDY2gv7Bfp0nWVNTizIxuNbJ2qIhyHXG7uYkPjTiGDmnceLn66et9Rm9XmtwlE+bEKPqmhrcvHIdFy6cR21tvZLYqJhYWcs+ds2dJJFkl3M2mWpv7UBh3j18/vlnaG5s0OwAX19fXe8GRkdH0dPdpzqc5SPnz5/HxYvn0d3VqSmo0dFx2LljBw4dPYKUTWlao2zUQvLZtDW34c6NmzqfuaOrAwH+/ti//wASU1M1WsA9agvuQR5HuyHv7l3MyMZOSkzC3v37kSi6mzJmKVDWtLe0qeO3oKgAfb198PLyUUc4M5tsnV4mTNgLR9GfLNFght3IyLAQpz60trToWA1mv9izNgnqP6NE5DF9KXKDBJKZeNRfhs1u1a8eCAkLQ5AlWEfnBAZa4O3rbdWl1Juze45/Us+HRoYjMjoaG+nckvePjY2hraVZs/U4guQhm4ZZh5fofTMLgXPc4xIS1HnG2tGSsjK0NDUKEQtQEjp3ry4G6lVmAIUxe0nsb3aBZvO9cflsCUmJWn6zVtHKpcBn2S/ybkqIPOtZb9++hdu3stDd0SXPYB2CQyxfix7+VkQqjQYzjAZOTk1gYGBQ29yziUakEEnWVKwEJJMKWawkglSeQ8NDKCsplwURrxGBhYwsfoE8jnO42DmOyqG3pwfnTp1FixBIhsRH5FzcDByETFIWI0px557dSEhOUm8v739KrsnzsEC/ShZ3bFKCKKHF888JXt+6SaHt26tLyxEea81d1yHsawA+E7aKJhhhWcuojwkT3xRojBXfK4CHhweCRYFRMXAe7GrG7BieWDbGmhJ54COGN/eMvWk1nLNZKXt4cmJc9rAbhgcGUFBYIAqvVMkllRX3PFNmOWZoN+fMpSSKktioaT6UWXQCBYcGqdKkombNCBXtYmBKa0FBkc7HpNKxWAJF/riuWKYaIKmfkOecn39P74MRHnd3N1HqZg3204CJiVHNPmHfgJKCUtzJuoWy8jLZE544ceIE3vrO2yvO+FkpqI87Ojvwq7/9pXYx5r6Ji43H/kOHkZFpHVFg73iAETHqGOUsETJ5/eZNNY7d3NyxdcsW7DlwQIzHoEeOkKmpGdG9FfIMsrQ/A+u0DL3N57F96zYcPHJEU88dNj5+fdXhQl7f/dnP0SiENTgoGNvk/fGpKQtGJ5VQyl7m9anDu7t7VW+TyNsLRihzb2bhTm622kOuuscScEjuk3VlJkysBYyo5d38PBzafwBJ6Wl2RdAXA+t9mWLL89K5k8C9IuuXqeIGaZwL7ns6gG1fVYI6S3C5D1tb2pAtJCr/Xh46ZQ8bOjPAYtEgzq49exAZG6VE1xgPRGdScUExGurqkJaxCdt3b7OSQPlZygafD+QBZaLH2dAvLiFGiaZxnic9hsQWlOulRWUovJePQrEjmB35p//lzxAbHSOf30k+3pO7l6eeVDL1Znqac6+m5c+ZxxbVakGSyvPOPHi8XTe9nEspLx5LEkpvbltrB3JFId28fQs1VVWz77AiJjYW27ftkMW6S5US60KYKkOFQkY4N/3GHnAumB5vA25Uc/akCRNLg+Tt1u0sDA4OaKOcxLh4JKdnwNdv9S263/vlu9r5joqE6e0HD72gxfX24Bc//SnKKsqFKDohNiYGew8c1NrQ/Nxc3BKjv72tVZUkQYM3PDwcR+T8O/btxXu/+KWm7LMF+9bNW3HspZeQlJxglyH+3/7sz3H2/Fk9dt+efXj59deQlJQIN6MmZYW4I/f9W3ket+VZZ2Ruxvd/8EMcOfoC/Hz9Z99h4psA0yyvXruGv/mrv0a5EEkaX/GJSWo0pm3djOTkRI1Af51GEEFSybriv/z//YX+e+/BA5ruuhwyaeDapev467/6C3X6sonUsaNHkJa5SZtNkaxSf3Z39agRevXaFbR3dOhzILh3meq6e9du7N6/H4EWf9Gtol/nZDXQkJ2RH9oL9TX16oD2DwzQ+53POJ5LJlcKEsqBnn787G//GuMTkyIrorFjx06ERUbKdb/e78zEsw8N5oxNaHTeQQiZwxqssfycuzh15rTsiQfqdDy4/yC27NwJd7nGYjDIJesmWcMYJSTR2Jfcj/dlj3V3duHOzVu4ev0q+np6HulMZgGynOTAwUPYvG2zZggaYGCG+57OWKb0M5WUcmIlxJLygDBklsN6B2vX5Q1fb7kY5Slrxtm4kA2Qdu7YroEyEmrKqidVpvJUkcq29lZUVVWjIPeuNpr5B//4Hz2Kjq2EfBkYHBnS0R5F94pQX1uLzK3bsGvvjtlXF8fw0DAaGppQWlConR8zt2zB1h1bNU2GIztYY1JbV4P+/gGtg+ICpsHHnO7k5BRdpK2trZpCkLkpE5nbtz1SOIt9JnqRGbYuLS7SFFqea/P27WtCHFlz1lRfj3r5oQf3uz/6oRmFNPHcgBF4po0V5Odrx1V6Fyls2TE6LS0NMfHxK64X5t5iTUhFVSW65NysjyZxTUlKRkp6uqaiLhS55JDjssIiFBQVisHbpR5Vd3dPJMj90DnV292NwpJiHQTNbtIbRSky2kpvL+vK2XCgq6tbmxxwfEhQUCB279yDzTu3a3OghWrROjs7UVJQguzbt1FUUqTd5oJDmP5/UGUdyfFKIpeUYXUNDci9dRvXrt9AV3cnwsLCsHP7Duzat0eedSq8vXxn323iScNaPnJfdOsobtzIwqcffoiIiAhs2rpFvu8gHfDt6ixGhxhAXxehpOHDLsVMGWfzHTpaGXljajYzCBjpXw6hpAFM0lZVUY1S2UsBQRYkpyRrIx0aU4z611bVITf7DsrKS9Hb2/dIb9Obn5GegS2btyAuKVEb97C7tBENYY8BI1qiZJLGqtwvwXQ+gkaorX6vq6lFUUGBGrCpcm5L8Mp7HBjgmJBpMaoLcnM1SyEoNAxunqxpfjJGogkTJH+Gw8Koi1wNuWS2EEfn5N3NRbXY0ISXpxc2ZWRoPTADMAuBWX11NTX4/PNPEWwJwu69+3QupYu7yyNiOTk+YY1C5t/DnZxc1NXXaBYQx4xxX4eITtsleojzo5lSb6uTuX+5d/k7ksvmxmYMD49o7wBtdue8siwekssZkXE/+8ufwj8gAMnpYmsIKfbx8pl9x5PBNANzQi6NzBN+PspV1sqy+dJa4xsllYxC9vX3orKyCuWl5aiurER9Y4N6IbaJovvRH/4YPp7Ljx5QUbGNf0NTE5rrm7QBRoOcl40GWBt55NhRHHrhkHz6eeKeoiRYIMzaynpRCIw8coYcU1vZgYlKmOFjtiYeHhpAV0/3Iw+nf6AF6alpKujZZa5/cEBT0qZnpsQoc8UOIZS79++b1/tBBcU0GqYFNItRyNl2vAa9ymyasF022o79e1ec2kpjt02eR6P8cHgsI7RMH/D19tGa1OWk3pgw8W0HiSWHCHNfs56ZMyFJgmiYHTxwAJGxMStytDBjgHt/aEBkQ0eHyLZKtLW3i6KbQVREFI6eeBH+/vNH6igDxkXx9ff2o09IZYUcW1tvVbgxUTFaZ+3q7o5W2cNlpaUoLC6Sa7SrPPEWYsn0IaYRubt7ye/W6Rw9ZkZkbtqMV954HVExkXquuWC2BWsyBweG0N7aJvKyUMeY8H52btuB1955U9NmVgI+U3bEY3dqdpHOE0O4sqpCmx39r//sn2LLpgwzJfYJ474YMvyO6Y2nzGfGT6/o3UEhb+yayvE3dEI8SU/6lzq5EcX3ipAkRI9d2p1na3zmZgstBe4xkkfuV65/fi6NAJLsybVIHml8sv6StcsNNfXaeKe5pUXLUzpkT5JMEtTbmzdlIjUtFSHh4bJ/2NXYGjEZE/3dLPutuqIKYaL7I2OirI22ZsnkXJBcjogxWy82TSlrteRaNGbpTNl/4JB85vDZdy4fJJO8rjEmhKmJTkJ6KafMCKWJrxt0sHCuJOst6ThhQ8tQWef2OmSpg/u6e9Hf16d9R6iDSfpeOHQY24TszRftJ5ghyEZaly+eR2t7m9YJ+vn6aOCFDbR8RBc6uzopwRweGsFAfz8aRffQGctMIKa30yEbGGDtvp6cmIRNYl+HR9J5+mXNoXH9W9duIft2lurDsLBwJMp1ktIS4e3tvTxHjuxdcpCf/dVPxb6vBzvLx8XEqrMpPilOZYTTbFrukwblImX+k4hWfmOkcmCwD7m5eci9fQc1Iuy7e/oQZAnU9uQR0dGIiArXekkWuS8HVF5dsmg+/t2H6BCjrkWMJC5yttaPi41FaGSkDigO0VTUx41GklymxHzx8Wfo7u5WY7CnV8jj8DCmJyd1IXLRGZ5NgiH18PBIOXeMekDy8vP1C2MEkF4AL/ldWGgYoqKjNLebHoq5pJLnoiI6/dnn6BNDkClABCMc9MSw8J7zf1bSyZXe1QoxQKuEHLMDLT3CbLjAZgvBwcEIDg2FJSTIjFSaeC5hkMtBIYGdst8Ztdu2Y8ea1BBz71Fh9rKLZVOzppdSeRlNv+ZzLhlgt1jOuevp7lKlzXSV7bt3iwHsr4X47Pjc3tqKRiHE7BhLTyw7SzNLgnKDQ5I585KyiErz5ddeR3JakkZMFkvrYdS2u7sHbc2t6Gxrg4OQjq27tokMirI+j3XrVhTFYgSpt79Pz02DoK25GftfOIjEhAStP2Edi9k19smApHJsfEy91V83+ocG0N7eqeuJHUqpm+nYPH78GLbt2aHdxO0BU8rooOjp4rpvQ4ucg02zktNTdQyIQSYZYSB57unq0/Q4poy3trdqBL9F9hFT3ukEpt7mbOiYqGjVzYz2cW+xIzOJJGdG0uFUWlKCgaEhPS4jLR3b98ge9J+/iyJJbG1VpTbeMRzCbJ4XIYZonNg1rN92d1/aeWsY23XV1RqtDZO9xxmztjMnTZh4GsAOrIX5eWL33tVu5WEhoUhITLR7rRNM5+7pED0nOoGNtaLFTmfkkaCemksudY+LfmRjKs60rBbbls4iOpUiIyKwY9cuxKdYjzcwPDAsMkH0sOhLNtKpkn3KGmgiMChYy01op5MU07HEmmvqa4IcoqasQkd1dIo+5j2xKWhkVJR2pmX0UkcaLQHKMEZo6+sb0NrUogEr1j5St1MOpaSl4ZVXX55995PFM0UqqeAIErYzp87g2tUr6gXnFxkRE4XQkGAdp7ESMklPAAVyY3MT/vQ//EdNZwsUMsZFymHjgaI0mH42F/yyeRzJY3V5Nf7Tf/wT9fITNNKIqckJXcxcUIwKBFlC5D59dOh6ZFSknD9SLv8Af/OXf6XhcTbmIWljJytLcJASzoVAUtnZ3oFfvfuupqh5sYFIcIh6RklE7d2c82F8fBI5WVmo15Q4F201TI9IgGwkT++1HdRqwsS3GZQBQ6J8FtsXjPjTOGeEgLVT9u4f7sNpUYSuspc3rGc9A0dvfHks5UqPGLEE59rx3ARlA6OXJKhs/EHZQmcYf8+shb7+ATTW1mkaEUd8kBSySYkhv3z9/VVGxcfGISY6Wvc9U4v8/H11jiav2yIGP2Ub04A8jI7RIkuZhsiusGw2wLlbrCvTUUlgd1ohlvLv5pZmjc74+vrYncbDDp8cF0HHFrvxaZrRBmsNCxUsmx5193ZrtIlGtZeHp2ZrmFgZpuQ7nBCCQw//14m6xnptAlRZXqZZQ4yGU79zzmNKRrrozQghd4u33OcIkD627a9v0ggDHSzMOmKmTWpyCnYd2CfGYIh2qaVDuFdIZ0driw5dZ1S0SX54HMG1zqgkRw5EMeoo+yFc7oFr16jLovHJZlt5uTlKJtn/wM/XW9PlYuPiERQWMm8DHu6f0dExZN+8ibx799RxFESHsFyDtY6c17dY6QoN6/HRcb3XRjF6OXuPURjukT179iBczmPCxNMGOmCa6upQWl6q5WHMGKDDJkT0TJSQrkixvZdDLmdEt7I7LANBVufnlzqSgZcJ0W8cleMuhM9Iw+XsybamZtTW1Oi/GTFNSkt+1H/FthZ6csLqrK0VgkhySTLaIHKKDlkXOSenM0SGRyKcdntICPwCAkRX+lHVKYmlM7SxoVFlC51If/hHfxfJbJhHvSzyxS5wr49P6KgvZkG0NDRpTTft8r/zD/5IdSDxJEsQvlWkkqSRNRs0bgi2BDaK0ulp0yYz8u/BwSGdCcl233HxMUr+lgr90lM5NDKkrfOZssM5WYR6KfFQjRsuahamFt0rhre/jyoxtvWlITgyNiKLdkYWubsuWBproyNjmu46LPfT0damXo87OXcw0NenhhtBYskIJb+I4KAQ9Wpw0YVFR8FblCJfJzHleZjDzRbkYZHh2sWV98P6UHrqmRbLWY+2MDq40oBiDQhD9wFCQq1G3MJfDdPsONScxxEcCjsfaCizgys9OsGhYerxNImkCRMrQ+HdfLS0tqoMCQoKUgfTRkfWNrqrIlwujK6xTH2/evGitkQPE8UWGCzGqxAuKlA2zCGhs1VahveWBJNy7+wXJzV9aFKIKzMphoaH9XXKPSOzgsqe6TuUX4zShEZGqEzKuZWlnl863ziKgArb3Ut+XN21iYJqVBuwNoT3w7T+MyfPqqzkuIfQiFA1uClvPd09l12bx89EhcpMiqzb2aitrtHnzJRB/wB/bR7jKaTX02P1DZWeJ3ydpNJw7rJBTnZ2Li6fO68OBBKshKQkdZRGx0QuWN9rC+pUpouVFJbgww8+FCI5ATfuuwCL6t8A2X+MVjJC0dvdhSohg5wPyQgEO68TRuSe86KZIhcRIYQ2LR0hQg6d3ayOa6bJGZq2p7sXd7NuawSB86WTEhNVz7Nu2dDlbOTBhiIkkgT3lqbeii5vE9nQ0dqun9PezCIdDSIGJuvEmpqFPMvzYoqyq+xDRn527N4t51q4xsyEiW8aJJdsKEeypdkAE5MaVDl+/ARCwhees24PaOs6OKxHeUkZ6mpr1dEYJfrLW+xsygPqKBJM2t+0s5mSSj1E3UjnrYHJ8UkdG0g9yigkiWR5UQnKyss1s6C/vxe9fb36eyJUdCXH/JAcs3EXs5eM6CXrLGuqKrWRV2R0uF5Tna7U0bO6muUFvC9mBy2WJstZl50d3UKC1yE1NVntAepCnoM/lC9jwqn4+Tw9POHMz7tKwvlUk0oaFozisX08SQ7rCDvaO9EkbH69GAff/c7bs0RSCOUylBqVE8kjlSGFLsd29PcNqKExPDiozQWSk5NUmLP49THDR4Q/PQE8hp726WkqnV40VFdreD02IVEMno1olntkSgzrHuZ6NJnqStyfmRFjzBt+fn4afdyzbz+S0lL0NV7HUCwEv3zWrvCzcnHTqzIk12O74qGhIaRv2iSbIVpvdWbGSljtbbxDcsj8df7JiMeIkGumyDBdj9c99tKLs+80YcLEk8Ktq9d1MDPlC6N1dBL5CFljijpT6PwC7R8ObQtGQE9+9qmm19B4ZZ2Ir483oqNjEBEZBT9LgJJLKpy5YETx5Keform1GdMiK51E6Xh6eik5o5Lsm3WQkXxqGqTIRco4EuKQ4DA0NzfKe3pEWbnCEmhBakqqpqVGxMboiBIa1PMpRcqeD997HwWF95QUc0YeywAo5yKiIkQRB+uzWUmTn5NfnMb1q1dQV1crstgR0ZHR2rmPHTxZixciJMWsxbQPa00qqdvGqJfFcCRo5NE5QX1IBy9LLLiGmxkx7OwWXeuEMDEs6ayw1dNa5ynrlWmrNMg0O4mvy7HUoTwH9XVZUTnOnDklayBKI3/BYaG6npvrG1AuBmFlZYUSSYLr2lHOQ2eEp4cH/EVnh4txSCM0NDxM1xLh4uQs+8TpUdMdgiSWe6R/YECd4oGBAXIda60mPzM7SVKXM+soLTNTDV2+tlp0dXThwrmz2tSKsoNkkimz23buhI/f/HvPhImnEbR5a6tYT1yq+/fo8WMICQ2dfXV1uHDmnNZEjo2Oyt7bgIjwCC2Roz1PBw5TUOemyipEplAu1FfXak0/iWFyaip8Ajhv11Ft8b6eXq25rhHdzu7tnKHJzMWpiQmVNXTIxsbFISM1DXGJibIv/ZRDMKOI+5M/yhuErFFHU9bm5eSpkzQ4NASu7mw65qjvs7ebNZ23PNfo+KjInUZtFhovpNMin5UOVo52cXZ2WVEd5lNLKlkzoEOTq+tQXlyC7Jxs/VLYdYnevB3bd+BP/vQ/zr57eWDH1vraBtRUVaO8tBR5+Xno6bWmhzF95pWXX8VLr7302JdDpUAPKRUCW+g21tRqsTw7GhqEkeBMOhJgW3BBqGdDFgE3Az2h/JMefzYY4JfA4a9bt2zD8ZfluvL+uZgQJcumH7VCXrkwm5ubHykdLqTNmVvwwonjWG6zHRLJwb5BtIjibJJz0lCkB5fNP6iMmS739/7B3599twkTJp4kOtu7dIh6Y6OQsYF+kXcjKiuY1vrW229rlGIlXZrpPGPNR011jc7rY/dYghke7Ep58OgR+AnBmw9MvWOdmdHsrKWlWWQU02TvY8e2HQgMCNCUwIrKco20KskUGcg/DVAh83/62mx2yXfe+Z6OGAmLsBoGlDdKmmdl2ADTbxuaUS3GPRsh5N+7J6TCet6f/PgneOn1VzSth1iud7VByG5NZa2QiiLczrmDtrY2fc40Cv7Lf/v/6vzAjQ7LV6jPG9aCVLKDIL9TnqO9sx0NtY0oKShQArljz25s27Z1yWY7StrkHCSeBGdCM1Opu6tbHSZbd25VfalEU97HDrAkniPDo0q8mGbX2NKkNUl0ArMDMmHoYjqCGZVMEOMvKSkZCSkpsFgCNK2us61DG9UVFhViZGxM6yMPHH1BCex8MMhla2OT7Mdq1Mq1+/r79LWI8FAcO/6SXU13GGVhHhUhFsZX5ILRfOfC6bNyvT4kxCciRu7fzUhDN2HiWwg6Yejg5MzU+brFGkGSdRusesQeRyyPYfO70qISlFdU6H5kLT5t/r/zd/4u4hLiH11rPty9nY0Lly5oUIZwEkLGshDWMoZHR4p97yXy6aGmuVYUFQtvKEa1EE2jp4qhKylvmEbP9HvWcEbHxQtxDIaXj6e+Rh3KMYO/+uUvZzuxOyMmOhbpcp2o+DjVpezabqS5LgVOrrh09gJOnj6p8pHZn2wsliwENyElXp1t5FvLwVNJKtnUprahFn/53/4nrly9osXxkRFRSEtNlS83AbHy8ELDQxCwzJlkjFCyyU1ZWQX+/f/xf2i0kfUI9NgnJVDgxiNSFgDZ+twUGo7/aG5uQX52Lj759BONUqqXUc6xGJhLHR0Vi6jICP2iz104pxEIelgDA4I0hZZENjQ8HEHy9/mKcg1C+bOf/e2jaAJbJLP5EFNuIuSeA4NW1hCHUYwv5PN0C6mmUUUS6S5KmHUeNGAtTPE1u7eaMPG1gEYqW6wTdGDRy9kiBJOpa8dPvAy/gJWPyaDiJGjUDvT1K1Gsra0RYzNBh0QzzdaoM7F1bBkKjyRycnIag0L2WuV+amtrRbZFIS4lWeSRBybGmfHRh7KSEpSUlomxXP2oe/V8YPpgfFwikhIT1NiNiolCWHiYpuYq5FmQWJBs0JAYGBxCY22DnL8YiSlJ2LQlE5YA63xeytblEEsSW6YB8rPRW8sMmLqqWlSUl+GtH3wHqUIcGI3duNFRn8mTHOj8bcZqSeXg8CCqKqtx9eJlqzHX16vfOZ891+Xxl05g+67ts++eH7o2hKSVFpQKSavSlLOhoQF1mDBFLS42Hv/4n/0THc3Fpj50rrDeqUn0OSPpBPU59Z+tgcf1yXTx5KQUJCYna3dWLR2Rc7Y1teD82TPq4LU1CH39/LFv7z5kyNqcD8w+apFjObKAjmHqcxqvnAsbHRWt1/ENsC8jgfu5pbFZjeGw8AhNBZzbxZVghIf3yEiqGZk08axC01FlL+XfyUHWnSytvWQ2QVpGxpJ7ynDQUPfS3u4XvVtRVqYO2CPHjur+4l5diFhSp7Iuk/WXBffuobOrS2UQ8cYbb2Hzjm1y/fWaCs8MBdZ3MsOwobZOG3aRZLLbOkE5smE2OmmUxlkCg1TXsrwkWGQFbQO+n7OA2XtgeGRUeQVf/4f/5I8REGBfkzI61ngug9sYI8cogzMzNuHN77yN7du2zb7bPnxjpJLEcXJyAuzOR2OFH46prPQMULiT5JQWl4lR1afpTh6e7poGw1qaufOuqJgYXeuV93a0dcBd3rt16xYhaBvVc6keTPnheenxZGrVpTMXhEDGaBEsU216ZPHQ206SGS7sfGigX9NjjJ8hIaPsnMp0L9vIpC04iyoqMlrJHpvWsJbT289P02WcRUFNicK6df26FuyyNmhGFiLPySYDjFRu3rH9MQ+DEYmkgmCE9sKZM0JCQ7T7FXOpee88Lxe67YYhURyWBTs+NqqRUG6ohdIE2KSjUjYP661YOExSSULNc889rwkTJr5e0HCkwqKMYiOehfbjyOgYrl28JMZ1v6atBFksmlofwFROkYe2jX+oQJmJQG8u66a51zl42shy4OsEU/BIqMqKS1RRUj7Tk+nl5aVzB9fJa2GREZp6SFlBg5nvGROZQ0N2ZHgYWTdvolQUH+UcI5EkmYYRTtBwZ3SQNeIeHp4if1y0rpFzu1iLyRoaHkfjwF9kqS9llIcHouKi4CvvMYxkpvMw1ZFeVd5LXm6+ylqOh4iJjdWmZIEil6lHQoJDHmvWZpRDjE2M6Z902DHtkqNTeG31EMufPDfJBxWm2dzHCntIpRGJtE2l4jPn7xgRuHU9C79971faIZFpZ6EREYiIjpL166mODurP+WCsI+quqooa/Pynfys2xZh8dzzGVb8n2hm0LWhXkFROyHfM2kX9vmfTtQ2wUyPJHbui85qMwDNNmzqWBhtJGQ1XOiPo3HjvvXe12Q27zPI4i6wrRiq4RugcZiqtbZ8D2jnEoOjne7m52vSKkXbWUzk5uqjdspDOpbOJtlCf2C6tbW2aacA5uCyh4bOPFwJ++OhRjd6YMPG8gvWXZcXFuJuf96h+kfMg3UW3cF9ztI89I72od0kuGRH18Hq8uZ4R2KFu/OSDD1WH0tYPlf3uyl4BbqIfRKcO9g+iW3hFpBA9nY1JHSLHql6R40mO6BTqaG3TABf1HTNmqmuqNGvQVjYxU0L1jugt1v4zM4Pdn/1F/rCERNP/BawD331gr/IL6i3bHx5TVFiisi1AZA6dt6o/Rbaw5IafgwST8ond3ynDktKTEGIJUblknIe8q3+wX2dfE8xwsm2k942RSqa3kijxBggSKJI+o46QiohRRQpwGjG2ConCtLysUrslsUkMG0hQsdAA6R8YQowopLd/8D152N6qPPhlsZsSPQmsFWysq0VVTfXsBxdDQcht/4AQRzmei8nb20ce8KgaapNilLD7m9Gh1QCVlLHQjNRWzqY5dvSYklIuRNYf8b55Daa6lhcWoUwMrCkxEgkqPM6apIHH+qDX33hT86mJr6SyyH0xTZWKx9YA5O/ZLIdeFXo++Fmp6PlMeI9OsmiocHbs2aXvnwsakHw/vSdsBrLUZjNhwsTTB8qq7Ju31GtJLyMNbsodjv+gIoiNjUNSauqCTbcWAuVDTWUl7ty5rZ0yaRg7bnSyOp5EttAJxhl5zJYwlC3BdFfKy8K7bAmfJ4Zwq8pAymNGCSnvaRAzY4Ny3zAACBJNemj5nrHREfXaMqWHI5S8fXzhIQqUqYj0xtIRxqYKVJBUlhwoT53CzqA5cs/1jfX6LFxd5BhRxm5uVpLy4isvI5FDrW3I5VLgZyJBoQIncTHxJamkUTQmRgmdruyUSt0+QkfvrAM2MT0NWzI3Pdb0jpiantRGFu1tHVansXzXJH2MGNBApE7jXFbWOrGLe6TodjqJ6WQhKZuQaw7KNRn1KyoqxNjEuJ7byfHLWluSPM6TM8pSjAY7rPHlmhgTHc99Mimvc82RpNFpzdSvl9983WqQzRJYA2Oy39gZmR0WeY+8JnUvGwmy6QWbeezatVv2nLVHAh3Dhk5Xg3VcdK78aXRstielPSfrjkZguG9YZ8zaLw8PL/j5+WrTj+iEeDMSaeK5BrMWhoUDdLW3aYp5W3srenv71ZnEfZyakoYTazBaw3DMfvy797WTMsF9TD1EGUbH5InXXtX9yH+T2Cpm7XYDt65cQ3FpqfUfDzkDV2SRyMHp6SmdMEG5MjA0iC7hOSzRs838YRCL/Q3ogGWphsPGDXAT2cbsRdZ8ewnZo0x1FYJpZF5++v6Hyjt4HF/jPEwff391uCanJqk+5zOkbCWoK20dtwQdrA0NDbhzMwv19fX6HhJLT7mPkPAwbZYWExktunZ5toY9WJRUjo2NaP1ES0ubKhl6EVm4ykG7/GLIpPmw6Gnu7OjUiBrraSjwGfbNyspCq7DpVjGiWB9hS/j8AwOxd7ewdfmwNAIo7PknFR2b/bDw3shlXgr84ngeGjT6BQ9a5zzywfKHoALjPcfFxOHoiRPqSejp7tHW5ASJGmfVZd26gZ6ePiXU9HTTK8+ogrY5FvKZkJCgbfpH5QtlTYd6c0UZ0YgJiYjQcxG2EQsqqHZ5hufOnbV6EmwWLb2kjDxq++UY64DxjfS4LkIeeT591vLM5gM9+KwbXUgJ8liScNvvw8B6UYK2EZO54Ea17To7F0tFT1VZi7HxYJa0zwXvfbEumjyecwXngz33rmRerj8f+NxdXBZuKrLYtWnMWtMgFr73xZ47sViUizDGUswHPndHWeMLfef2rJnF7l2bZS3w3JZ67ry2EcmbD0ut18XWzFLPfan1utq9xufOgvmFYLtm2Im1p6sTfb29St6oFLgeCRrEjDBmbtsmRMzqtJq7XilTuzu79L30hjKldKPDRm2409fdrd2xaejTWcVUQx47KNehZ3Pvnj3a3ZUylqBiYmdZOgOp2C+dPYeS0hJ1crGDnSE3ef9+vv7wFqJLosBr0JHI8+v9y7/nGvO2oKwMDLCoV9ZT5Bwjnsw0oRzkOVjf2d7Rpg3N+D3x9wZef/1NpG/K1NEnVPh0CnIklIf8m/KbKZn1tfUq29kRj3rJ08dLiEiAphh5e608DflZAtfB2LhVr7JPwY0rV3WGszG3eGxUCJabizahSEpPVyLFfeHo7Ki6nPptamoC96etc9ZGR4bQUN+gabBDsga4HtjBkOssJDQEMfLs+V52LBwX/c31OynHM1PJcADbprDyO+ca5jrxZIRd9DjtCv7QeHsg93juwgXda3R4sDkg75GwWIJw4OAhBMl1jWg8ZQ3PyfOTWN64elWMwhKtdTLA9ejn44stst/m1kZy39EOYbYT9z1tCu5ZOsVJaC0Wi6bO8n33Hz4ukwpz8zQ9jYYjM7z4GQJkD3j7+cPD2/OR8WfChAkrwezv7UOf7DU6RKkTmEKatnXz7DtYi79B014ZpKmtqkZFeYX+3ugvQB3D7ARf/wCV/7Y9S6i/musbdbIDecHw8JA61oyeJP/LP/5f1RlqwNA/lB3lJSWaAltUXKRONb5fdZTYCrTZqc+PHj2qExsoG9hAlHKQn4Gyj85j6lZmAxnOMsLI/PFwcxe5ayWTlBe034i8e3lqr5BQknOQI/iIrGL95s7du1Vvs9RD9b/IEzGB9HOSY7i6WnUl3zMyOIza6iohlXVqE3CUF+EpXOnVN9/C4UMH4LvM8kR7sCipHBjsQ2FRMU5+8pk+tIZGzmYZ1Q9jzD4LCg0Vo2lE84ZpwPDLGB8fEyNhSFtjG8J/McNjtSCp5Cw1ppIRVHa8Hg0jzj+jocT6D6ZuBQcFaRoMjS+mqFDh0lji6zymm8pDFArTcsniacA4idFKMFpKjynB5hxUOFS4/EK5MOJj4/U1ggvC1kCiAcbFaT0v26DPqCHkKgYWFxMNLVvMPd4WvE8S+YWe6VItjLmRuWgXOv9ix/OaVKz0es8HntMwGucDj+damg98TcnNEve+0LUJXts2PXkueO2FnhtB58RC4HH8Hlfy3Iilnvti3zlheKbmA4/j8QthsedO8N6taR/zX3+p577Uel1szfD7YhrHSq9tz3Nfzb0v9txW89zpSKO3k3JqVNYFo4qUq8ZnMZ6bsWY4LoGpiIxEkkiRCFMWszMdz+Erf9Kryffy89Iw7ujsFPk0o2mo9MYaTjQSRyogS2CgkrF7BQVK7pSgifHO69L5QdnGrq4kalwfIyL3hoZGMKipNb1LksrlwmgWRMXNiCUVPuU2ZSWVa2hIKPzFiGC2SM6dO7h69bIqZsPAiBDFu3Xbdrz8xiuIjYrT3z3vqK2v1mZKLDupEj39yWef6u8Zjebe4RxQPkN1TM2uEUaa6UzlupqYGFe9x31EUsc0ac5RpA5jdM/WSTofbPcW1xMNQFuCx++ahlloaJh2WGeqGJ0d7BrMe+kSg/PajWuz74bsDxpajCzIzwZr50U6EbgujEg89Tv1Oh3TzHhqbW1R0klHMT8nZ0FzXdG447riHjCg0UzZO51dnUq6SVLZbZ2RR0ZUSX7ZO4J7hOD6N/YAj6NBybW7mFwwYcLEV0EZQxg6kLLDkB/c2xz1UyP7mb/zFhlBuLt7qt5gfSb1hWFLUwYY4D6mTqTdTGI5NEyH7hRSkpPV5uP5eH4dCSKg7LiTna0OLIcNIh9EXHGP89+UiVMT1vEk+/bs09EpqovlWF6HxJLZII1NTeju6VK7zTY4Rhlo68SeT3/y8zgK7+C1jNd5n5yxS87AeyVvoO3EHzqLyyvK5D2Mbjqr7GSmB+0qlgYSvWI7sBaTOvx773wXb3z3bSQlJOtra4lFSWVXTyeuXbmOn/3tTzW1lG12+QH58DzkA/JDk4Wz7mFAbtiIwBiLgMqCHk/C1kOurXVFKRCGwUWP+1zwIZKEzb2us7OrEEUx8OXaFPK2XwoVAMHzs2aSYJTRAI8z0NHeLkrLGoFgLQ6P4ZfI69C4Yl2QofwYaeUzIPi5bZ/HfGDUVBeFjfLkuQnj3jkncz7w+bjQiFqgJohRVCq4hY6f79q24PEL3bvxjBe6Np/DYvfOuisapRs3zh/xW+rafO5U9vPB+A4Gh6wzyObCeG4LfXbj3ueuGQM8nmnV84HHzsha4bUXu3fbNWMLHk9nBZ/bQsfze3OQe1joeEbSjfU6F3zuC12b4HNn2sZCxy+1ZiiIF3putmuG9zkXfG6MNC61ZvjZ58Nie824Nu99ITBtc1gE6XywXTPzgffOzqpLPfeFsNh6tefeF1uvPN6QcQuht7fn0bGUjYwSETyWDhyS2IVgPHfDeDbklwFjzfB9tvLIuC/eu+EIoWylZ9cW/B3vjYqe1+Bx1BOGU8g2jcj4DGyqRqOBLdWZWjhXDvLzxMXE4o/+0d/HpvT5G7E8b7h46QI+fv9DrQPiczT0tO2eoB62dRAY5J6gHifoIObfbQkYQePNcB6zroiZA3R2cL04iF6nE4R/Z8SPpIvrjv/We5Hf2WYR+Mu6oc6fD9xHfL8B4/yEtWHTws5EgqU1vD7XGteYznwTuTMXfD707Bt73rgGDTkSaF6Ha9WECRNfL6jDGCSi7CCBIyhf+G/q8vn2M/eqjgkSOcP3ce9zbi31x2Kgw4xygDCuQflDuUPdR9jKAb7OIBPJJuUp5QwdVnR+8X22epT/NmQijyP42fgelpMQ/L1xfspdQ8YaoK21UNYbr0mnIEsECIOAEzzvzh278Ob33saOrTtnf7t2WJRUjo4O66yp8rIKLWhl6hbZPb2bfqK8mU7KLm00lu/ms5X8lAh3RhxE2M8KXqaY8EMYaV78oNpEQn54LhaSqofA5sdAZHS0KrCB3t7HrstB2ERTQz2GB4fUq0DwC6Gngz/0WCSnp81LVgmm6d68ek2VDEGvIhcKSTDPExAYqF1VjeP5fl6Lszd570yd5cDlhSIgETExmqJlS2htwXtnO/75wM8ZEh4hn2H+qBnD+EwXWChyxYYX/oEBC3523ntnW+uj52YLejbYLtl4xnPBjdnb3a3pQPOBBnZQSMiCXlree2dr67zPjV4iLx8f7Wg7H+jhYUfMtpbm2d88Dj43fnbf2ZrXueB3yNlmCz03Hp+YMjuDdA7oCGBDpfrq6nmfG++dDUqC5bPPBx7f2d6haYrzHU+wNbWbu+uCa4bNmhZab3zubJ5BITYfuNY6263F5vMhJCxcnj1nG86/Ztrb2ha8dz43S2joY4LLFhSwlB0LrXd+X0xhWWjNcK2xeyJlwFzwufvJdx4UFDT7m8fB77y3R45vt3Ztmws6rnxlry927x2yXhdaM3zu7Iq6ELjeOQphPiy113jvnW3tInv7F9yr0fHx+p0bys/2++fxVaVlj45lWg5rywgqVkYp0zZnLion9HuT43hepp/agjKOz214eAT9vd2Pvl9+J4lpafq5e3p65PzW42gEUDZTvlI3sPEZI1E8P+WwoSOYWsTvmpkvbCo0NfklGWUnbt43a/cYsRoTHWVclwo6JSNd51iSWJrpr1YUlRQiP/eedgO2Bb3p/D4YFeDzb2cJy6wOJ1j/Yxg1BP9ueNht19kwvzv5jjY4WPU9ZzrTU871YhxPG4Cyh+uB0UED3F/0oBNcN2zQREeL4Yw2wON5rOFwILj+eR9z37sQ+Hn75VrMCmC6GVPKGBWdC+Ne6eCg4bdY9ooJEya+WZBsMaV1MVnAem6m/xPc+0ybX86+ZlaiOprkh/LSNmXWFnwfCSxrK6nvmD1EeUdZZdgvlCu0dVzlPmwddjw/7esmsW8NncdZmJShlEkG+PeZ6ccJJvUkZZURNONnCxLbgvc63/0mJCdj244tiI6Mnf3N2mFRUmnChAkTJkyYMGHChAkTJkwshvlDIiZMmDBhwoQJEyZMmDBhwoQdMEmlCRMmTJgwYcKECRMmTJhYMUxSacKECRMmTJgwYcKECRMmVgyTVJowYcKECRMmTJgwYcKEiRXDJJUmTJgwYcKECRMmTJgwYWLFMEmlCRMmTJgwYcKECRMmTJhYMUxSacKECRMmTJgwYcKECRMmVgyTVJowYcKECRMmTJgwYcKEiRXDJJUmTJgwYcKECRMmTJgwYWLFWDc5NfNw9u8mTJgw8dSjr68H9x8+0L87bNgAJ0cnuLq6679NmDBhwoQJEyZMfP0wSaUJEyaeegwND6CqphrNjS2zvwFGR8cwPTGJjc5OCAsPQ2RUOKIjYmZfNWHChAkTJkyYMPF1wSSVJkyYeKrR2taC6uoaNNQ1YGJ8DJaQYKxbtx4jIyNobWhAZVUlxiencPDAAew7vB9x0TFwdnabPdqECRMm1hajo0Po6ulGb18fJsYmMHP/ARw2rIeruysC/AIQGBAAJyeX2XebeJ7AtVHX2ICZ6RkkxMXBzc1z9hUTJp59mKTShAkTTy16+3pw/foNlBeX4MALh7B927bHjLWunk7k3MnFu7/8BcrKSnHk8BH8o3/yx4iOjDKNOhMmTKwp7t+fRm9/H+oa6lFfVYfuzk60tLSog2v9+vVwcHBAQmICdu7djXghFJ4e3rNHmnhWMTExionJSUxOTGJsYgytLW14/73f6nr4F//mXyE8LGL2nSZMPPvY8O/+3f/r/5z9uwkTJmZx//4MHj68Lz8P5OehKggTXz8KigpQnF+A1IwMHD58GBs3Os2+YoWbqzsCLf7w8fHDmVMnUVNTDUtAIGIT4vQ1EyZMmFgrdHd3ISvrNi6fvYCMzZl47fVX8cqrr+PA4QOIiY9Fb1cPfvXrX+HGtWsIjYxEUFAgnBydZ4828axhdHQYrR1tKCstR8G9Aty4cg2/+c1vkH3nNiIiInHg0EF4eXrNvtuEiWcfpqVswsQ8aGptQkVVpf50dHbM/tbE142ivAJcvnIF7W1t6Onpnv3t4/D28kVUbCQyNmViZnoaP/v5z9DX1zf7qgkTJkysDXJz81BXVY2/98f/AC8cfuFRaqOHuxc2pWfi9//uH+Bf/et/i/q6Ovw//uW/QmFhkaZDmng2MTU9hdbmNvT39cMSbMHLb7yKf/1v/+3sqyZMPH8wSaUJEwIq/sLiAvzF//gf+L0f/gD/+B/+Mf7VP/+X+nPm9NnZdy0PbC7TP9A7+y8TK8HU5CRqaqpw8ouTuHzpyuxvvwofLx/s37tP/z4ghLKttR3DI4P677UGz8vv9Zs2FhlNb2tv1T9NmDDxZNHc0oS6mhp0dnaiv79/9rePw8/HD3GJsUhKTsXExLimQQ4MmqTyWYWnhxe2b9uKl15+Efv27kFMdPTsKyZMPJ8wSaWJ5x71jbX44P2P8V/+45/ivfd+jZzsO6gsL9OfmekpeHour9B+cnIc125ex+efn0Jdff3sb02sBJ7ePvD28dG/O7v+/9s7C/gqz7P//4AkEIi7u7sSIYQgwbW0rLq2b23rqmtnb7e1G+vWvdt/vvpaWroCLQ4JDiEkIe7u7u4J9r+vOydFkxxLCOT+9vN8es7zhOScR+7Lr2vsGkkaLaK+YKQ5z9WrI+NGJou0tAzs+uprZGRmSfbcHbq6OrFr53+Rlpk2aQa0QCAYoaWtBbU1NbgQH4eTR4+z982SI9eZM0cFumy9Cg4K4lkTcexnqc5OcH9C13vBAk0eqaaoNdXUTgWkY9AmHIryQ05/gfIRRqXgnoCUZjL+SsqLJXuUA3UWjY9LxDff7MaFC7Goq625ySjx8faFs6uT5N3EXLo8jItJyUhNSGRCZj4szMwlRwTysGhJKN7evh0vvvwifPy8JXtvZ3B4CI319ZJ3gLaOFubNU36jHqqhSWPXNz0tHQMDg5K9d4e5c9UQEBqMC2fO87S8Oym5AoFAOcxXn8/WlHlob2tFY2MjcO3OPQ7VVNSgb6DPX3d13jmiKRDIC2XJnDp1hulDlbh0aUiyVyALZFBGHT2O7NwskZ6uZIRRKZj2NDU1IDExGfv37MP5s7FK8zCRly8/vwBRR46grLQERiamCFgYhMjIVXx77LEnsHbjBtja2Ej+xcQkJSUh5uQpmFpawM/fF8bGppIjAnlwtHNCxOLFPLVovBmUXV1dSGWGHuHj5w8dXR2oMuVO2dSze7GqqgpmZmYwNTeR7B0favZEzpBTp0/h+IkTSEhKQEV1Ofc0KwJ5xoMDA2HJ7s/EuHjk5eYL76tAMEmYmZpi2aqVePMnP8OGLZuZkXlnp9VlJld6JCmvJqZmPItCIFAU0lfIcXjq5JkRpwZjjooq//9MhgIOVTWVXMaObqQzUqfmsZg1axYWaMxHUkISCouLRaaPEhHdXwXTnrj4BHz26Sc4dPAABgcH4entBRNj6RT68Whtb0HM6bPIz8vD4rDFWBEZiSVLlzHDMgA+AX4ICQuFi5MjT22ZCFrAaGH74B//hikzOJatXAY7G3vJUYEiqKqqQU3t5q6vN0KGVGZmNnbu+IynwP7opZfh5urKIwvK5kJsHBITL2LxkggsDAyQqrPj1atXUF5ZjpSERBw5chjpKakYGhjE3AXzoKerCxUFFAP6tyamxigrLUV5SSnUNTVgZGig0O8UCAS3M3fuPCZ3DOHp6QkXZ9c7rkmk+FfXVGPv3v1MsW3EurXrERYWBg0NTclPzCwoClTXWMfPRWtbq9K2jq4Ofq6nW4fv4eEhNDQ04sihg7Czs1da91f6rtSojpzrsefOYePWTbC3tWP34MztLMyz1yorUFdfh9rqWnZftLNz1IbG+kbU1tWji+kF2lqa/Lm9FZLbNjZWyM7JRW1VNS+t0dHW4rqGQDHEnErBtIYW0z+/90d8/MlH/L2tnR0ef+IpPPX0U/y9IsTFX8Dxo9EwMzfDhs2b5J4nNbrg7/j0M2Tm5OAnv/gJ3F3cxJzEKYCM+czsLOz87AucOXcGi0IW4bd/+B2MDIwlP6E8KLX5rZ/9gqcdvfr6awhbtFhyRDooMrnr6z34aucOJvTqsHLFSrz8xqs8GqsouQU52P3l15g/fz4eeux7SvmdAoFANjq72hF3IQGvvvQiDIyM8P/++ld4e3tJ5Zi8HyFH66kTp1FZVsbW6ivMyOxDf//NNaa0Zk3Ut4DmgJJD+fLlkRpCPT09hCwOw5bNW/j76QIZOlRz/xzTT5Yvj8Rbb/9KKXMq29tbkZiSgs8/+RSv/+QN+Hh6sfM2c0dmUQpwbn4BkuMSYGxqBhs7a+jojcyEbahr5Jk7F5MSeSdePz+fMefF0pzrL/+zgxnnali2egVcnVx5naxAfkT6q2Ba093Thb4bhFBjUxMSE+K5gq8oBXkF3KAMXx6h0MJPnzElPR2f7fgMD27bJgbvTyF0P6RcTMbps6cRFBiEX/z6Ld6BUdmQ46C2roYblAG+frx9vKzQPRG8KAjBQSG4NDSEpJQk7N/1reSoYni4eiIsIgLl5eU4dihK1IkIBHeBMvb8nTx2DNo6ughhz/lMNigJMhgdHB3gGxgId2YIDQ8PIz0jHefOneFbYnIiuru74B+0cMzNy9cXGhoaKC0r4T9//vw5HD56GBkpqZK/cn9DzsjCkmIc3rsfEUuWINA/YEYblJSZlJeXjz07/4vN2x7A9x7Zxh28JANpi1wRiRde+iE83Nzx67feYsZnPvr7eyX/+mbI+UzGZHNzM2LPxHBdTqAYwqgUTGs6mcAhD+UoA319XLi0t7VxRV9eyKNcUlQEHX19WFlYSvbKDn2G6poa7Px8BxwdndniFgJdHeUbNYLbofqS6KPROHbsOB59+FH87Fe/gIWZxaR4Gi9fvoSUpDQ0NTbCOyAAJkbyRUId7R3h4uHB03RbmSBLSEzi34PqLhXF3d0VXt7eSEpOQkpahmSvQCCYCqiRXHzMBaSlp2HtmrX437d/OaMNSsJQ3wghwUFYv24NHnxoC7a/9y5WrVwlOQrY2znikSceZ+dr9Zjbpk0b8Itf/gJff7MHv9n+LvwCArlTjqKeM4GS8lKcOXaSN4l6+LFHJ6VXwL0CGZTp6ZlIT0nDr7e/AxtLmzueDy0NDTz46DYeHT8TfQJ1jdeb+N2Kt4cXghctQmVFJU6fOivZK5AXUVMpmNZUV1fhYlwCyspKJXsAFVVV3ozF2Mhw3Fq78cgtyEVhXgF8/f3gYO+A2bPl86/QnMDzZ88jhSnyL7z4ItzcXEVe/hRAhti+PXuRkZaGSKakbN66BWYmpuzcy3c/TAR5i//5t79h1uw5WLthDWys5JtHRvcZeUNrqqpRW1sDVTV2L/v68ntZRUFlYf58dQxfuoTkpCQ01tYhKGThpHTAFQgEN0ONQU6fPIuc7Gxs2LgZW7Y9AAtT+Z2V9xNU3z2yqWHB/AW4GB+PzMwRp5edvR3WblzH1m7zG37u9o3kPNVPmpkZQ9/ICB1t7bzZysLQoNvqKmme6Pnz53HuzBmkpqQovOXm5kFbTxO6OnqSvzA2yq6pJDl3/kwssjLTsXLtWvj5+kuOzDwoOy05OQUlRcUIXxYOW2u7MfW2WbNmQ43dN3u/3cszjBYtDoO5mYXk6M3MZjJ9juosNNU3IjszExa2ljAyVH75zExBRCoF05qe7h4+4sPZ1Y1vBHkoz548xRRo+VNgM9OyoKmpyUdPyBvZoihlZWUlzp49CytLKywKC53RaSlTBQnag/sOor6ujnfnjVy1AmamZpOWckwGZVlFBfIK8rE0IgKG+oaSI/JhbmmOoKBg/rq9ox2H9x/E4JDireHJY2tuaYaFAYHIys5EYmKKwh1mBQLB+FCEch9TXutra7B643q+HlmZK15Hd78y54ZuuHPV1Ni6Lb0jUEdbD4H+fohcuZrXV/b09kiO3MxsZlQoi9mzZ5GVInk3tRQVFiE9NQUWFpZYuDBQsndmUlRShPr6eljZWMHBduxO8CNc42PGiJqaGgwPjq8rmjP9wcnNDU0tLTwNVshN+RFGpWBaU1/XwP8fsjAIfj6+/PXQwABizsegs6tTrhRY8nhlZ2TAjC3UBvoGkr2y097ZjsryKrQ0N8LH129SmsMIrkPXmiICUYej0d3ZiWUrIxESGsw9kDc6BnLys/nPKUsw9A/0Izsrlzsz/BYGQEdHsZQ2UyNjOLm68rorupfPnT/HDOVW9v3GboEuLWbGJvDy88Xw8CUcP3oUA4NCOAoEkwGtR2RQHjsSjYH+AYQuCUcQU/xvXI8oXU8eGSUYGz1dfWYAOMHQ0BAdHbfPAdXT1YGntwcWLw1XyhYcFgwDvakvaaGmP9T3oamlGS4e7krpeH+vMjjYh/ycAlAnVx9vb8ybt0By5M6Qw6GT6QiU/rpggQZmq4w/1od+n4WVGRzt7REfH4/quhrx3MqJMCoF05rGujoYGBjAO8AfLm7ufB9FLutqa9hWzxR+2eoqaKGgGU8NTY08YkQCSF5q2GfIzsyAvoEh/AJnblrKVEAGVyO7ZgkXE9HGhGxE5DL4+/vymp0boet77OBRLoiVBdX1JsTGwsbaFuYWZgrXSZEAMzTShyszLOlebm9tRXlpOfr6Fa8RotmVND/T0tKSN8Sora8TXleBQMnQM1VdW4Uzp86hv6+fr0eBt6xHtBbFJVwUzT+UDBnsNIrJzsEBHW23z+WlNdDa0gburh5K2Zzsne9KbWxVTTXycnJgbGgEW3sbuTOq7gdKK8r5c0ayTZrZ35TFVlVZjYGBATg6OUF93sSjVyha6RsYwCObGamZ7Bm/3stDID3CqBRMa6grl5GRERMgtrCwtuRt2kehYm1aaGSBGq7k5RVggbo6jE2MuACSB1IY6msakJufBwszczi7OEuOCJQNdwQ0NSEtLR3JTElbt3kDHJlCMXvWLN7ldHQjzy6Ndom5EMtbhCsjHZY8pC2UEhMXi5WRkdDSVI5yoaevh0WLFkneARfOnUeXZGC6omizz+jn68dTazPTs3mkVSAQKAcyKOsb65EYn4QGpoCu37KRd5q8VZb09ffivzu+4Bk1AuVCtZmGxsZs3b9/1zaKzFVUVsGByTo7a/lq+O8XUhPTYGBiCHsb6c4DNXeMiznPjctFIaF8BM1EkGyn8pFLly/zDs4DNzSIFEiPMCoF0xYyEiiqqGdgCEM9AxgY6iEsNExyFDhz5ixa2lsl76SDG5VZWXB1cYWmpvz1j+R9Li8pQU1NNUxNTW+LmAmUBxmK55jRtfOLLxAQHMyMpQ7eJjwrN/fmLSsb0UeP8VrZOROku0gLGXr52QVMYVyA4PBQqTye0mBmbAqfQH+oSuqJoo9FcyNQGWhra/EU2EvDwzh78sR9rXgJBFMJdyYyg/JCTBxvEvbMD56HGVv/h4aHeKrr6EZ13yWlpbBlSrDaJDUPm8mQ7DZiRkZn++3pr3eTa9eUM/adMnPSU1KY7GuGlZ2dVNG5+xUqVyoqyIeOlhbPWpsIcvrU1NVi375vudwOWxYuVbd2igRraWrBztYWcQlxaFBiCc1MQhiVgmlLXX09evp6YWFlAT19fW5Y+voHSI4CuTmZaG1pH3MG0Z24cvUqjh2PhpO7G4/oyEt5RQWfCWhlaQ0rtggJJgdSzo5Fn8Bf/vR/vGHBz9/8MZ5+/Ik7bs889RTee+9d6GrrMEVOOR14yWlBc1FNjM3g7uKqtEZMFEU1NDSAp6cXf9/V2cEEZzEfxqwo1A2R0nQvX7qE8+djMCAEo0CgFCjl9ciBI/jHP/7GnV1/+/Nf8Lt3tt+2bf/1b/CzN95kSqomVG5oTCNQDtTsZ968uZi/YL5kz/RhcFDxpmvlVRVoaKiHjY0NM6QmjrLdr9CorXxmUJqamUFHT4ddd1XJkbGhesiP//Uhd9jScAsHO3ups5ZId1i8OBzXmJ5I0dHuMRpBCcZGjBSREvJYFJYU4o/v/gHHoqLgHxTAUzAmoqK6HAWFBTyyZWQoolnSQh5hmkdUws5dyOJQWFlYQ1VVBUOXh7D/272SnwLcXN1haWXJPUwTQdewsqoKOz7/HE/9z1MwNzOFvGMc8vLykBAfB20tLYSGL4aNtY3kiGyQF665pQnx8QmIPnoUn3z0Ec6eOYPioiJcunoZxsZGvKW6NGQxI3sWrkFDQ1OyZ+qhdNGa+lreqa0gvwClpSV8HIw0GxmQ2lqavBh/lAMHDuLLHZ+hsWGkYRN5gqkOcaxtNlM2tmx5AF4+Xre1mpcV+i6UKh119DC2PPAAfP18pb4W0kD3OK4AsbEx/D15Ux2cHWGgYHdZarNO6T/nY2LQ3dWFiKXLoW+gi7lqyomyCgT3IuSwobW2tb0V7R1t427d3Z1sbb500xpCoyqiDh/Fzq92orO9nddtl7J1605bRWUFevv6sHRFJDw83KGuPv2Mn7vFhdhYZGSk89dkNC2OCIe+rmyNcGgt43WV9rZ3fV1Ly0hFTk42CgsKkXgxEQcPHEBtTTXv23B56BLaOzv4aLTm1mbeSVYaXSU9LR2x5y/A2ckJvgF+SmvS09HZhrS0NGRn5yA5KRnZuTno6u3GPDXVu6o3jMXlK5dw9mwMNyqp5GX0M5Jsrqiu/O55ncPOq6qqKopLi3Bwzz6kpqXgxR+9gshVy3nHYGm5eu0K+pnsPHr4EM9A8PP3l+p6Ca4za2j4snLi9fc5VTWViDp0BO9/8D5/fyT6KGyt7fnrsahjyvWpE6dx7FgUAv0D8PJrryilzmsmQAbgR+9/iNbWVmx7/GF4uHry/dRtj7zAFIEhgkNC8eqbr2OhfxB/Px6UlnSRLfp/eu89fMIMFVuridpSj82Oz3ew7T8ICQ7Bk88+DRcnV8kR6aEFPisrB9GHj6CouAQdbHFsYoJIVU2NCUw93mwlYukybHpg04SdZQuLC5CdmcOMKU+5PouikMKWn1+ItMQklJSU8Fbv/f0DzNCTfnlxdXHGpoe2IGRhqGQPkJGVjprqWmaAMetLClSZ0WdtZwV7GzuFo4r0/EYfjcbJkyfwy7d/BQ83D6U2S+jr60FOQR4ee3Abf29rZ4d3tm9n91SwVB7Z8aDut+/+9nc4efokfv7zt7Bm7aoZnUIlmHnQ80VpcLQu5mZlMUOxmztbpMWWGTyPPvkELC1GxoOQUZmWloHSwkL+fiJojuKKNSvhaO8gRk3dwO/ZGvef/3zCXy9ZEoFfvP1LONo58ff3InHxF3iXerre6upMv5szC5eGRkZY0LxEKkMgZ6iuni4cHO0m1BspOvfPv/8De/d+iye+/yTWrFsDC3P5Z56OOHrrEH8+AeWlJXBghqqVjTVUVOagt7efGcA1qCwrg3/QQkQwA19XZ+o73Y4F6YG/+t9fYvO2rfB0d8d89QXIYzIzLiaWnU99aOvrorWxGVXl5ZijosI7vhKRa1bDy9NDZplHf6+4rASb167nI+z++f4/YW/rKDkqkAYRqZSS8soy7Nm1G9WVldDW0cHDjzw64VDb7OwsHD5wEMnJiTA2MmaK3doxh7UKboaiODu/+BKuHh7wYJuW5FyT93ho8BLi4mL5Qt3W0c6U8EUwNzfhA5LHg6LFcecv8CHGERERcnuPKbp4IjoaF5MuIjAgEMGLQqApo5ePonJJKanY9eVOnD57Bo1s0e9hSg9F2yhtkV7Xs300IF9ljhqcnB3G9cge2HcARsbGsLe3VThCJwt0LjKzMhBzJgZRhw7hzLkzKC4pBs0emzNbBWXlJXx+W3NzI996mKKnPm8uVG9JT1WbqwonR0feRfdGr7WW5gJYWJjDhglBaTYrK0sY6BlgwQLFva65+bk4fjSKe8S3PrgV8+YpN9pA9+ucObORn5fPox5dXV3w9PDiXYkVvYZ0XSi6m5aeBh327Lh6uCkcARUI7gVIdlCG0PmYC9wRfPLUSVy4EIvCgnyUl5dJtVHam5WVNRYtXvTds6jCjAV9fX3Ys7XYxd11wo2eOSsLC6WsRfcTyohUTifmzlWDnqEeLNi6bcGut72d7XfyyMzUBIbGBjA2NebRRmoYM1Fk9erVK/jkow9RzAzA1WvWwp3dRzdm78hCfQMzJhMTcTrqOMpKSxG+dClcPV1hbWkFU/bZjAwNMF9zPtpb2nBg/wEm49RhYmbM7vmbs/B45lhWGjQ0Fsj9WeShq7sLhw4cwIqVkTAxMsFVZnBTttnpE6dQSbOjs3PQ1NiIFiY/Ke2Yup3PYTp2xPIIdh1kNwYpE4kmCnz5+Q6mL3Zj7fp10GfXTJkZSvc7wqiUAiqaLikpw3937uQ1eSFBIYhcvXJCxe/smXOIij7KoxvBQUFYvCRCckS50APf2dmO0opSlBQXI7+gELV1tWhua+IRo/nq6rcp8fJQW1eDjq4OqKrMntCAUwTy1FHKyBdffIGV7DzbsUWaFjuC0hxmq87BieMnmHE5yA0wOxtbWNlZc2NxPFrbWnHk4GG+sCqSNkPpFqeOn0Rebg7Cw5cgKDhIpt/V2dWOVGZQHtq7H0Xsei0OW4w1a9dh5ao1WBKxFEHsXuHdBDU0UFFZyZShAnh4ejKFRu+2807XvoEaR5yLQdCiIKbEWGL27Kmp4aHnIjktFUf2HURU1FEMsWsRGhyKzVu28ghraFgofP38eavu3r5edHZ0wJgJ1rVr1mH9pg0ICgnGQnbu+Ebf2dsTjg6O7Bpf//z0fdWZMSfLpox7k+p001LTkZqagmXLVyAwcKHkiLK5iqGhyzx9qrenhykhZrCytVY43enSpWFUVtYgXpKivZCda2MmlAWC+xlaDwuKC3D2xGns/XYvypiBSI6/latWYfnylVjC1iV3NzeoqKryEUWULu/Hjj/yyKNYEbmar78jWwQWsvWUGu2Mrke0rlAqHBlA0mx6TB5Nppyk79ra3oKKqgqUsu9Zw+RzQ1M9hi8PY/68eQorwpTZQ+s2mDxWhv4wyv1mVFJKJn1+0j/o/rhRFtEx2k/HKQghjZ4wPDyADz74AK0tLXjgwYfgYG8v17UkfS32fBz2f/MNmlvbsGXrVixdGg4LMyv+uUY/H41V09DRwsH9+1HK9Fxyhujpat907/b19+CLTz6Dm6fHhMEUZUFRw4qqSj5uKyx8MXS0dUk55EYjTQGglFhTM3P2mTzZMxwAX39f/tmqKit4po8t0wnpO8rKMNMrz549i472dmbUr+MlSPLqijMRYVRKQVd3J3KychB15DA02aLxwNYH4cUU4PE8NpR6c+7Uae4htbG1w1KmmLq7j8xZVCb04NXW1yI+7iJORh/Hvr378O03u5GYcBHlJaWor62HylyKDKlAXX3eTQq7rCQlJ/M0D01tTfaAyz/fcSKGhvpRWlbGo4FbH3oQ5mzhGP3cVAOpoTEfSYlJPLpz9coVnvZg7+g8bl0jRW6qqqu4ovHQIw/ByMBQbqFLaVDxsXG8DpCua0jI9dEQE0GKQGZ2FjcoaeA91f+tWr8ay1csZ8ZkMHx8feDm7gonVxdYWltjzqzZXGHobGtHwMLA2/L7abE/Hn0SFtZWcGX/RlNjavL/6Xxm5+Xgsw8/Rcz5GGb422Hjxs1YvYEpZuHhcGNGsb2dPby8vGBha4k512YzAVHFBcLC4GBsZQLOgRmQ9DO02drackNKkftTmdQ21CIxLgFDg0NYt2n95BlkTEiqzlVFDBNiZHRfuXqNXX8Pdj5sFMpqGBoeZEpFHeJiL0BtrjrCmTJhamImOSoQ3H/Q2lpeVY7og0dxhMlqcspt3rQZG7Zs5JkpCyXrK0Ua9fQM0MoUbXI0ent64fkfvoCwsMX8OG0kq83NLKbNenQrpF+UlJciPS0TJ45G4/ixY0i6mIjczGz0dvfgCltXrrD/1OeqcZkpD1QXX1dbBxU1VaXK+/vNqFQmdA93MDmwf98+Lg+2btvGjEoHyVHpaW9v5UGN3bt2MSP1ErY9/D2sXbua6YC3B0Lo/pg3Tw2V5ZVMx0uEroY2k9lW310TnvXS1Igjhw5jGdNTRrPGJhuKGGZn5UJDUxMubi48ekoykf4+6Qz0jNKz6uLiwt9TZsECzfmor6lDVNQR2Nk7wsLcTGY9r3+wHwW5BTx1PmxxOCwtLeQyTmcqIhdTClrb21BdUcFfq7IF1tHFESoT1FbRDdnc0sJfU/TI3lH++r2xoEgRdbr65qvd+PlP3sDZmLPcyKSHix7EgqIi7Pl2D1764Q+w75sRr60snVJvpampGQ319ejtlf93SMPwpUsoLijmw+Z1dHSgeotQJMMkcuVqaGuPLG5ZzEirLKvg330sent7eG3eLPYfpX4oUttKc/8GBwfkUvq7ujpx5thJXtvzP88+g+8/+QQCfMlYvC60qf6GFJrFYWF47sUXsHzpMn5tm1qabvqOJIA6O7tw6NABXkuprzs1XeLo79Kolz+++x5iYmPYomuNJ556Gg88uJnXvt56bqlehtp6L14UxmtGo6OiuMCYzlRVVKOgoADWVlbsPrSW7FU+JPAM9A2+u5cK8nNRXlLMZ9wpAinDlHJFo1WoS7IyOhIKBNMZyiDZv+tbHDp8iNdbPf797+PpZ57mA+xvTEE1NjRBUMhCrmgP9PUxA/QQ6hrr2TMyvdekUUgGFJUW49P3P8bf//L/EJ8Qj56eHr5VVlXgy51f4rVXXsH+3XuRX1TIR3PJQ3VNLbIzMnlfA8HUQCPPGpubuCE4V12d6Zmy6xh0fyQkJGL//n3MGKxH+OIwRCxbMq7Oo6qiwhsO0giOQ0cOo6nhehfyAabv5OUUIDxiGTs+dcbV0PAw8rOzYedgh3mS0VsTYWlujmD2fWmu9Vc7dvBmWYrQ3trOvr+YVykLwqiUAvIc0fgIQlNDg3ehmiivvJE9lOTdIWi2Dg3IVzb1DQ2IOR2Dz3Z8Bm0dXTy09SG8+bNf4HfvvYv//eVbeObZ5xAeFs5/9p//+Bve+vn/IjMnW27h2dvVxdNgDJjAnkwG+geQdPEiE/whzMC6fRGjVNjgRUHQZ8o4QYpBaXERT5UYi87uLrZQNvLUp/kKduJra2lHD/ubtOhT7aAspKSmskV/CA8//hgiloy/0FPatLWlDV554zXY2tijtKgMXT3XB+RTjSh1J/Xy8IQhOxeKNneRFlLejkcfR2ZGOm+9/dKrLyM0NOgmw/hWjA2N4ejszNOV29pa+UiW8ZwAd5vCvHx+rmn0zHjfS1HoGu7+6mt0dV+/rsVFxbyeRhGoVpNa7osabsFM4fTJM7ymm3j40cewds3qMddXmivs6Hw9AlRdWXtPDDsnh15rWxv+sP33iL0QCydHJzz/wxfxzu9+g+2//x1e+/GbeOzRx7mM+/iTj/jPnb8Qh76+6+uLtPR09mA+M8aV1XlUIBuODs5Qmyd7lJkym3b99ys+gsvX2xdBi0ImbPRHzk07B1uu3zY21KOlpfU7Z0Rvbx/iY2PhG+ADZc1plobhoWGkpKfxHgPS6mwLFmhBT1+X64RpTD+hMjBZ9V1quDRKf18Pe+akaxIoGEFoHFLQ3trJZ+WoL1gAK0srHj0jhX88KkrLeVSG0NXVVXrnRRISWTk5OHBgP9asXosvvt6JF370AyyNCIe3hxevy3v88Ufwm99vx4cff8xn71Qww/iPv3sPp0+f451HZYG6SVZVVjIldRbU58sf5ZsInv7R1ckFpqOz0x09VGQ8Odo7wsnBkV8ToqikmBmWZfz1neju6kZNVRW8fHzZu+uLhiJYW9nw+ZmycObEKXj7+fFOp9JGS7U1tfDo44+jhp1/KlwfhSLox48exbotGzB3Emt3boQMQRJaf//7X7mB+KMXX+JptxMZXhThHzXAaVB4R3snLl++zN9PN0rKi1FeVsbnW9k7KD/DYBR6pnZ+/iWPrDz5/Sd5tzkiNy8HhfnF/LVAIBgfSs+j7te7d+3mMo46ZgYFBUq9vhIdrW3Tdj26EXLo7dvzLQqYPvLjn/wUb2//DR7cuhn+Pn7w8fJGZORyPPPcM1wfeP65F9g624ZP3v8IUVHHZXLiUT1lNVvnqTZbU3PqGr8JrkNlPioqsncbP3P8FGpqavhrL28vuLuPyBVZ6Oro4k4WSrNuaGzAwMAA7Gypt8XEY/SUAd2r1L+DnKKUgSWPw5yaHjbUN/HMN1mYPYtSbMUYEXkRRuUEkPHWWN/AB9FSEbAPM0qkydEuyM/jDzaNCTC1tJDsVR5FpSVIjkvgiu+zLz4PJ2ZkaWpoc0FKDyCljNICQB5ZXx9v/Obd3+Gpp57mAviTjz7mQkYWw/L8+QuorqmGnpGBwp0px4PSIinKS1jbWI7poSKjPnTxYp7qS5CQzUhJ4cLwTvT19/NZUXZOdhM6BKSF7gNqGiQLFpaWcHJx5NFraaFrGhwayNMxyTgmyItIKSpqampwcZTeQFWU+sZ6JMTEcU+gBjN2l6xYCkMpv8toAyH6P3lgb/QITicqy6tQxe51OweHSUt9pdE4+77diwvxcfjVO+/w2mFqzkQNRGjdqCguljttTSCYSVB6XtTBI+y5qYIeW4vIGWlsPH5k5lYuX7mMq1euSt5NT8jhSn0Ejp88gVdffR1Lly7hs/RIzpPMp43kAKX6Wplb4on/eRI/euVV6OpoYcfnn/ERXS2t19Max4NGbzU0NvJmKJMp7wU3Q1Gxnu4epqddhsoc2XQL0u3IIXouJoYHNCyZbmRlYwstTdlrIKlje3t7O+qbGpAUfxErVq3iGWJTBZUYtTa38VF8VO4kD2RUUuq2rJFG6j/i4OQMNSU2p5pJCKNyAprbWtFUX8ejMrq6enB2d53QKKEIRGtrC/83TkzhpzEHyqa2uo7P5FmyfDkc7Sgdd+wHnlICaNbWhgc24rkXXuBC5tvde7Drq6+5h3c8SJDRcN+Tx47BxdkF1taWSjPK7kQ3W1BLiooRtigM+nr6XFCOBaVjUL0qQUYO1YzeKW1w1AAjr5c9W2TvJus2r+ceP1k9b2YmZtwQ7ers5t+HGkxQ0yTqZDtVM9DoXqirrcex49E8Qrw0YilXaqQxaCmVpVeSukv1G3OZMTxHRqE5FZCHND0pGQvU1WFjRwJZ+amvJPhPRJ3gA643bdrCoyqUyeDr7w97B0e+blRVV6O4RLEUWIFgJtDT04sjR4+gr68XkcsjYWJqfFsd/q2QAt7f3y95BxgyI1Rt7vRWIilVvrKsite9rVi9AibsM48lR2g/pTwuCgvFU88+yx1We/ftxYf/+oCPhhgvJTA5LQnHjkTByMgIltYW7HdNnrwX3AzJRHK4koyUleGhQRTlF/MxIiRDvDy9YGRqKNf1o2ejvaOD601UjrQwOHDCZ0qZ0Izr2to6uHh5SBXEGQuqAZXVeU3GKKW9CuRDGJUT0NLSgrr6ev5aW1sL1jYTRy7KKivQ0TkSZaBGH6bmyk99pfpASsP18vGQOkpFw/5JyDywbRsz2HR4Ife3/92NmNjzfK7XjekxJHTJOL4QH489X+1CfWMDAkNCeJObyYRSHgrz8xG2ZAnUVMdfTMyZoeXg4MDrSQnKn89IyeCvb4QMsNbmFpiZmcucrjoedI4uD8uWWmFv48AjyrJC19je0ZHPMqTmPA2NTTwd1tfPR/ITkw81GaqsrOYpZqTYUM3rPClrLGg+ZUtzs+QdoMWeJWrnP92gSGxRcRHvTGthpfw6aDIozxwf6Qrt6uqKpcsjvjNc3TzdeEo3QQ03cjJz+WuBQHBnKD2PsgpqqqtGFGlfXz4LcCKocVtzw0gjPcKYKd/TPTLRydZfapQX4OvHI5HSOCbJsPRjMoKGx0csicCBgwew+8uvcfhwFDcu6+pr0dzaxGU9rU3UyXvv19/wRoN0Lkl/EUwto6Usg8PDuHb1Gn8tDRTdzM7I+M5ZQrqRtFlEtzLM/nYxM1Apa0eamkxlQ6Pw6ph+42BvJ5NRSetBT/dIkztKHdZla4Gszmuaf15fV4/hS8OSPQJZEEblBJDgqaqu4WlphgaGMDcbvy0/RXPKi8vR09PF/40xM2SoiYoyocLp7s5OmJiawEzGWk1aHIJDgvDIE0/Az9cfp86cxr//8Q9EHzqKczGxSEhKwIWEOMTEnMex6BP45IMPEH08mncgdXZ1nNSmJdSZllIeaICtm6crVFXHrxOkCJ23vx+cXVz5exqhQA1+SEDeSAc7V10dHTylQRneNjVJAxRqONPXe93bPdmQN/0SM2KpUyEZltQyn7rEThVtne1orK3lr0nwObk6Sa2IdXR0oqKifOSZMDHhzZ6m0vMpLdTlrq29Ew7OzjAxUq4gJccNGZTnYs7Bhd2LS1ctv+n62drY8NEsFAWmJlzUaEGeBhsCwUxhcGgItVUjaxJhamEGLbYuTgQ1bisvLeXrOM28o6jfVKb3yQOVcJDcd/bwYO+kj76QzPb28MRDj30PD259EIlJifj7X//CjUua23zy2Cku6w99ewD//uc/kZ6RhuXLlsHdyw062lPTUVxwO+RAoA6o0kK1gxlZmRhmzwRhbm3NO4vLQx3TwfJzc/hrDw/lj8IbD9KhaT5qW3s717dlibR2dnWhtKSUvybdxMTESGZnERnn3Tc0zhPIhjAqx4Fu7urKCl6roaOrC0tLSymiTNeQnZnBu2cZMCPUwNDgJkOMooH0exWBFg9VNTVo6erx+glZIcMyNCQYjz31BFavWs0U1z588OEHePmHL+DVH72EV1/8EX7w7DP4w++38/qulStWYt3mDbCYZAOGFhFqcGRsaMRTeqVZTNzcXOHpPlKLdoktpqVlpUi4mHhTeg91a6VUYRu7sedYyoKm5gKeHtna3PxdSudUoKOjze6dqygtKEVXWwe8/KcuSkn09vSiWRJtVFNT5XNBpRnuTRHdhrpG5BXk8+coKHAheyamZtaVLNCzSV3u1OaqwsrOCro6yotqk6Pj2OEoHD5ymHeCXrVxLfy8/SVHR6B1wtLWhtcJDw0McGdWaXm5XOvF1avX2DMwxFN5VGXsUCwQ3CtcvXoFXWxtJyhjRVdXm9cYTkRnRyfy8/J4B+8li5fwOYz3SpqnkYnsKY2kJ7g5u+GZ55/Fww8/DFcXV248fvzxR3jvvXfx5z//EQcPH+I/S7OT123aACtzEaWcaih7hxrakbOjrraGGYjSZ0JdY7oBOSIpYs8b3OjryZUVRZAeZaCvD58A7yl3LNA4rd7uPt4vQtbPT1lpuVlZ3DHr4+3NjVJpM/nuBHU/nihjTnAzwqgch3aKzDQ0MqHVATNTc9g5jaSmjQfNL6TFmowNWrj1DK8/kDRXkgYWU22EIoaliqoKLG2sYWYmf1otCRkPNw/88OUX8SIzJMNCw2BtYwP1eerQ0NDgRd5e3j68k96vf/s2XJxcJz2y1NLWgubGBiwMDpF6IaBIj6unBzf4CWqotOM/n7OFaSSVl84zzdekdA5zS+UMf9fV0WHnSHZjXlGo1mJocBDJiRe519rDTfauborQ19vHzuVIR2Oq0yVFbNasiZcQWujrqqq4EU4GU3BY6LRT4OjZpLmyKanJ3OiVN23oTlBDrK++2ImdX30FbXbONj74AO/QfCfs7G3hxzsUg88YO3/6HJ9dJivUeITqYa5cvgILc3NewyoQ3M8sZM/tgjuMoLoVSpGrq29Ackoy9HT1sHbj1HXPVgQqOfDw8ZK7LwCtuVS7/eJLL+PNX/wUzzz3A6xdsxYLAwIRGhyKbQ8+hNd/8gaeff45PsrqXjGy7ydIxyJDSEVFkrJ5Tfr0V2LUgUgNq777HVJAxuyNs9dt2D22cFEonzs91VBmGdVT0tQEWSDnNenr6RnpPPPggYe/J3dKO+mL1A2axplM5rSD+xFhVI5DTW3Nd4N/tTQ1JrzJKdJBkQUaXEuQMqeldd346Ovvw/a3f4s6ZvjIoyiOYmpshhUrliEgwE+yRz5IaFA0Zv369fj3hx/go88+xXv/7098+/DTj/H+Rx/gueefnxJPFZ27+poGXr/q5Dax8X4jHl7uvEEDQV66svIS3imVN+hpbkI7M2bI60Y1mMqAjKnRWsJLw0M31aJOJoaGBshMT0N+QR5veT2ZqcjjQQIrwF/6e68gvxBpaak8kuDl7sG7EU83yBmUlZnN7plenlKtrJR1qlf67OP/4PMvPucOgf959hkE+PqM6TShJk4ubiPpRp0dHbzTo7xrRV9fPxO0l9g6ZAFV4W0VCDjlVRW8czrVTLm5uvFaw6lqdqYI1BNh1crVShlPRk7iRx55GNt//y4++ewzfPDxR3jl9dcRGhSqUGRHoDg3dryn7CBpSyBmMyPS38+fG5YO9g4yGUOjxqyaZP66I/v3unp3R7+grLLs9HRUVVVJ9khHUUkRkuOp/KkRNta2WLI4TK57mSK+aRlpuMJ0SXX1eXJ3n52piLM1DmTkUFttgjq/0lDV8aD5e9Rco5cppoQNezAN9UaUU4qEkAeG0tF0tHQUXrgpLUCZRgUZmFYWVvDz9uabvZ099HSmLu2BGqRQqjFFiKjeTBbMjE34kPrRmZWUOvjphx/x7mV8xlJ/P0wtLJSmOFDq5qhR2dbaxtN2pwJKaSGCg0KY4SHbOaJRK9TVLysnE51d8n1eTS1N3uyIZlZRAytpoL+bnpzCBxEHBwVjzeb1PMo53ehnBh8NjNZmxrqpuYlSnq2a2mrs/moXdn+zm3tMf/uH3zOh7zvu96fn2tjUmI8iIgdJY0MD8goLeL2xLFy6dJk7U6jpgJGRMU8lEgjuNyhV0FIy9qe6tgZDQ+PXoJGjMZfJ6ISL8Tw758VXX5IcmZlQpgnJfhGVnE7Mgoe7J9dnqEaQZJM0UDZK0MIgbpRmZWeht0/6fg/kGM/Nz0N/3/WyIWm7ptK/Jd3ip2+8gddefpk3exprtJs0dHZ1Iy8/n0cLx+tSfCNt7a1IjE/iPUIWh4XjtZ/+WK7UX8ps62WytpPpdFxXZ4b1dNRXpjPCqByHInZjU3tmYpA92ON1g6IHi4TaoUMHQK3NCQqdU4dWgubuVJRX8tQ6anM8HSFvFdWj0EavJ0PQ0Hm6k+etqLAUlRWVcHZ3l1mhp4eehtRvWLeBv6fFIDU9DUkXk5Gdns0XJ2pyoyzovJAiY25hyb1qLa3SGViKQk166LtQwyFZ5idStGzHp5/j73/+K/76f3/Gwf2Hedc/WTEzM4O7pxc32mskDXvGg671qVNncSEuHq6ubli7YQNcZXQYTAX0ORubGnl0ez27h0YdQYpAnRSPHDzEOyyTEf7DF3/EDUpKf50IMmpDQxbx17TmZKVlcYeVLFCtWS27RpTC4+jszJ4pIRgF9x8L5i9g97c9X4vr2P3e3dPNn+c7QfsTEi7ixLFoHr3f+r1tcHJwkBwV3A0Ghoa/m70sGIH0C3dPT56aTY3xqOuvNFAKd0TkMpiYmnIZ3VTfOKFxR0YU6QKHDh1BUV4xb6I36pwfhX6GHNHkJL3TszUwOIAdH3+G08ygO332NL7a8QWys0ea/MgKOU97Ort5/wg3NzekpqXztNbxIIPyyKGjOHH8GM88+N5jj8LB1k5yVDYoY4nKYEiH9AsIlCqdXnAzwqgcAzJ8qEkNpaARHezB7mi78wNKD10tMz7PHj/Nm8zMkkSUKHQ+GpGkWVpJTLmmejJ587zvdWjge/Sx44iKOs5fjy5QNCszITYWmhoa8PKRL4efjKxlKyN5Jz+C5lYeOrCf/b0o/t7QSHlNVwgrGyuuyFAH2I52+b1yskCRV5pVSQ2HpB1ITRHy0rIynDh5EokXE/goi6ioI8hIz5T8hPTo6ejCzskObu5e/HvnFeSNqcCRcEhJTUXUoYPQ0JiPbd97GIGB/tPS60eNqgpyC7kzKCA0iH3eiRt9jEdxWRHv8soNSiaknn7yaaxYtZx34pPGUWNuagbfwAD+mpSD6KgotHeOrEPSQin4VNtNKTz2jg4KfyeBYDpCYzVMmMx9/c03eXlAelIaz3ohmXwjVNd86tQZPn+RsnBodqOPr7dUTX0E8kPyoZ0p/dSojDYaY1JdXS05CrQ0NyI9JZ074Rqa6r/7OTKGbr2GMwlXd1foM3lB56pDooNOBOma9ra22LbtYd4fIz0lBSWlpXc8j7SPjMSLiRcRH5eA+ZoL4BfoizVr1vF6xMbGRvRKopY9vd04d+4873lBTspboW6pKWkp6Onu4npXYnIiCguKeFaArFBk9tLlS1i8OJzL4viYWJ7WeqeIJenoGVnp2PP1LsTGnOWjdh5/6vu8LEze57qfyeuaylqeFUa/b/48YVTKypxf/erX70heC26gqrYKhw8dRm3NyAJIaSK6WtpwcHa4SaGnxa+4pBj5eYW8ZmrRknCkJiezB6wbGzZthqWlBfr6e1BYWIjkxCRs2boFmppa36UyzhRIuCReTMZHH3yAzMwMXB2+gubWVpSVluHMiVNs8axC8KIwBC0MhIocDYHmzp2H2SqzcGlgGBkZ6XxfW0c7GurrEBwcgqCQYGix66csqENZVXkFM46r4OjoBHf3yW+7nZWZxYWBk6szTKWsD7127SqPkMfHxaFNElHtYvemKVPEwsLD+XtpmT17Dttm8dTf/PxcXBm6DDNrC2jMn//dLCm6zlTHmp6egaMHD0FbWxur169DSGgwE1bKqWlVNrUNtdi7aw895Hjsscd4qru8zycpROdOx+Cbb3Yxw7sdK5atwLbHHoaDlN2MCXI6DbDzWJBfJFGyGrEiciVTMnSl6rZLjoSa+lp88K9/Q0tbB489+Tg3VOn6CQT3G/RM0OiAuWrzUVlRzmRvH4avDqN/oI9nkRSXliAvNx95WdmwtLLi0RxvT48p72o5EyHnY3xCIjLS0lFUVIzYszF85jXJEOpRQU7Ggf4+HlWrKKtASUkp/7lhZqjo6VHvgplZ33lt1jVkpKajtq4e3t4+3BEiDfQsaOtrMWNoAY/c93X34grTAfoH+3njybaONqazVPCssPr6evT3DUBXX48/D/ZMRi3Qno/ejm5UMn1MW1MbKmpzUM6uS0FOLrx8vaGro/udrB+F5E1LYzMvAyIZQ9eVIoY0J1PWhoal5aVoaW6FvaM906sc0dDQhEZ2b/QwY7W9q43pLl1obG5kP1eGAqZzFxcWoba6BgELgxC+IgKuzi5Mz5O/dKWVGc5nT5xETl4unnr2OdjZ2XDdUiA9wqi8A6S4Z2Rk4nxMDFfEXVzdYWFuxmf3zJs3H1dnXUEHM1jo5q6qrEZxQQnvtrg0cimc2YPQ09XDHwI+g27ONWaY1rIHoAAuzPDw9fGVWrm8nyBvV3zsBRw5fIif06SkRJw8fhzHo6OQyx7gJeERCF8WDjNT+ceWzFVVZQuqLlJTUtBNHq/hYWgyQ3Ldho1sYfaCqhIjxHNUZqO6ogpJyUmwNDNHUHCQ3IaItND9qKGhBUcne7a4S6cQ0SJ/je7X5jYMsPNhYGjIDT1qNhS6KETmc0LpIHoGerh25Rry2HVTU52HwUtD6OrpRHNrM08Bz83KRXLCRfZZNbD+gY0I8PeHgZ6h5DdML8gIpuZaX3/1Xz5eZ9HiRfwZl5fsvBxEHTrMx6csCl2Eh5hB6evtJ3V9CjFyH13DLPZfQnwcr4s0NTaFNRNw0lz33r4e5LP15lhUFK+xWbtuHbvesnXSEwjuJdTZM2tlbcHWutlMCa3jhuXA0BCaGptQyhTP3u5u+AT4I3zJYtjZ2n+XQSSYXDo6O7juU19Tjd6eHqiqqMDHzw+BQcHs//5w9/DgZRU0k3FwYID/DG36BgYwNTfl6c0zEfV5c1FaXIKcnGw+h9vZ2fE2Y24sdNlab2JqzNNYW5qa0d7WhsGhYXS2d/L5i3XVddxw02PGpKeXBzw9PL8z/vR19aGuNR8qmM17UQwOXeL/xoP9nBf7uTvPDr8GEwtTmBiZwdXVlRvANBrL2MQY2jI68nNzc9nf64GruwufwU73QFNTC+pqarheTXPBaVxfVXkl+x7VsLC2QvCiYCwKC4WluZVUTtfxqK2vwTd7vuGvn3r2KT6bfo5wxsrErKHhy7L1LJ4BkOfl3//4F3bt2c2Nx5///C24ebkiMTaBR9moWQnVStLDZmJqAp9Afz4rcbQwmKILNEy4tLiIv6e0TjsnJ2zYsJYprDNzkaRzsufr3fj3+//iDUhuxNnVDT97638RGhzMazkVgXL/v975X+zevZsr59Rm/nuPPwJ/35F0QmWyb/9+/OVP/4fAgEC8vf0d3kl3siDj5/VXXsPiiKVYEbmULXay1YjmFuQgOzMHs9jTTo2kaIj2408+IXcnQTrPKSlpSIyLRw9TAugeJ/qZYkAjV8KWR9z0TExXKOXqRPRJfLVzB37/pz/yUR+KKJxpGamIPniEN/iiGlLqrCwPdL0rqirxtz/9hf2uJib05+P1n74BXy8fnvI3HlU1ldi76xvecZbWrnUb1kzqvSkQTCdobSJjhsYuEeQIs7KwnpHOXMG9y6nTp/Dpxx/zkS/bHn0Ylhayzw2lTLq29jZefkWBD01NTV6iRdl24z0Po8/Q5StX+M/L0ueCmvZ0dXTDxcVZps9MwZxdu/fw15s2rb9Jd6Dv0dXVjcHhkaZF6kxGGzCjWJn6NJXsJKem4cevvIKVkSvx1tu/nPb6y3REGJV3gBS6Hz7/ArvBUvhcvTd/+lMsW7qMH6Mbv76hHnPnzYW2pta4Cij9ntEGG3dr/MN0gc7FmZgYfPL+hygozMe1q1f5flU1Nbz9zm+xZGk4jGQ0lMaCFqAP/vFvbsiHh4cppQX7nSAD4usvvuLRuR+9/DJvTT8Z0D1XUFyAt376Fp574XmELwlT6H6iz011LI89/qhSOuLSte3q6eZe6HvNeKFuuF/+Zwe/hju+2AGa36oo5ECZNWe20u5nqjmeO1eN/T5DqWpSs3Oz8PZbv0YVM0r3HdrPuzpPZIgKBAKBYPrQ0tqED//5Plv/i/DUM88gcsXI2LTpDhnDnR2dPBOKZ+tJCdU9H9x3CDr6utiyeYtk79RRW1eDY1HHsGf313hn+3YEBgSIjAY5mFmFfVJACjw1xSivqOBFxzbMqNTQuu4NIe+OmakZVxgnuuHoOCn/M92gJOhcLI+IwP/99U/MiNzOFo0H+PbxZ//BqtWRSlPACTrfL732Mo8MT5ZBSTg6OMA3MJDXg1ITpsmC5hTm5xSgq6sDeoZ6Ct9PA/0DaKyrU9qIFbq2dP3uNYOSusrREPSCokKsXbNOKQYlQfecMu9nR3tHHmmRxqAkb2t7WwdvwrBi+Qro6+kLg1IgEAjuMSgbycXDA8OXLqEgd+ymeNON1pY2qKiqwMTYRLJHOmh+u+q8ubzh1t2AytnSUlJ4Z2gvL09hUMqJMCpvYWhoEBWVlejrH+k2ZW9vzwuPb0Sk0cgHPaQ2VjZYvSYSL7/+Kt+8PTwnxegmBXyyU40phcTGxgpmpubIzMnhKSOTwZUrV5CRmsoH42vc0u5bViiKOzAwqNQRK/cqzc3NqCwp5em67j6T32hJXmi9kXbNqWusR1pSMp9NuXnbVqjfMEhbIBAIBPcOnt4e8PX2QX5eHrJysyV7py+UpaM2V40bhrLqyQ11jUxvmw+Du2BUUpS0ML+YN3dctXa9CAQpgDAqb4HyzstLK3Dl8hX+3tLGBgZ6oh5JWVDNJEW0KC2CNmVFh+4GtGjaMkNv3YYNqKutQVzCRZmH1EsDpVBnUcG+kzM0NRWLLtY3NPBCeHsnR8memUtVTTUKCwphaWEJJ4d7/3xQlkVdTT3SM9Lh5+MLDzc3hWuUBQKBQHB3sDS3gM/CAD7Kg3p6TPdoZXZOLuaqqcHYVHandVVlFdOp5kBff+r17ZKyUhTm5vJmREsiFkv2CuRBGJW3MDQ8zG8uGjquraMLIxNjmdsiC2YOBmwBpPlO1EL74Dd70dLWypT7mxsRKQIJEUoLaWTGoLmNDTPC5TcqeT1wXQP6e3vh4CRdi/L7FTqvleWV7Hq1wc3j/hgv0NjUiPycHF7bumLNauFtFQgEgnsYcrq7ujojKCSEN4nMK8yXHJl+1NXXoqmhiZfomMmY+krO+P6eHmhpaUFrivXt+oY6pF5M5hlhSyOX88wzgfwIo/IWhoeGkc4eXho67ujkBF1dbeHtF4wJpfTaWttg/aZNyMzOREZ6Frp7uiVHFYecG7XV9XwgMKXaLlCXP8+/urYK9fUN0NXTg5W5pWTvzKSltRWVpWUw1NeHu9f0TX2VFhLKOTl5KC4qxsKgIPh4e0qOCAQCgeBexcrcCsFhwbC1sUXU/sNobm3iDuLpBJX+JCenwNDYgPchkab+/0bIGU8jUDS1NKa0lpGcy6mpaaivq0dAcDCvpRQohjAqb4Ae1J7eHhQV5OPq1avw9vSClpaIUgrGh9J5AwP9Ebk8EsePHkV1TY3S0lQGh4ZQWVYGYyMjWFpZyrxYj0I1A6nJ6VBTVYWrhwtmevOWyspKVFdXw9ramteq3uuUV1UgITYW+np6CF8eIQa7CwQCwX0AldnY29hh3QMbUVpWitS0dGbEdUqO3n0oM4vGlrQ2t8DOwY7pKrKnvnZ1dcHGzpbPzpxKSspLkcWMShc3dwQHLxTZPUpAGJU3MDg4gPaODsk7wNXTQ6S+CqTCwMAAP3j5RQwPDyH+/AVU19VIjigGRc4LCwqwbOlyqCsQpUxKSkVfbx9bPJ2ZgHKQ7J2ZkPMoPTkVTc3NsHFwuOe61t5KX18PYs/EsPVrEEtXroCHq/C2CgQCwf0CdWp3tHfA088/z8ey5eTk8qZ70wFyUJsam+LRxx6Bo50TN4JlxcrSEn5+vjCVwyCVF2oqdGD3Xt60MGjRQpnGnwjGRhiVN3Dl6hWmxI/Uw1E9JdWd6bH/CwQTQQurtaUNnn3xBzgfG4uk+GSepqIo165d48ZCYEgw1OfNk+yVHQsrM6zbuBZeHt6SPTOX1tYWVFVVwdPDA04u976BfeDgYd5waO3GDXy2lkAgEAjuL2gQf0jQQrz2kzfwyYcfIjc/n4/Fmg6Q0atI00XKrNHXM5j0jv2j9PR2Yfs7v4WljS02bN7IjWGBcpg1NHz5muT1jIciGG0dbcjKzIaRsSEc7OzkTjcUzEyoti09IwPHj0bDy9cXkSuXKxQJ6+vrRml5OU/RJKEiL5SOq6KiKpcX8X6DhjN/zITyunUbsGnLhns2Ujk42IcLcQnsXovCloe28noQkb4jEAgE9y+UmdLc2swMMZqBri1kuhyQXlVcWgprSytos/MozqHyEEblLVB+OM2onKs2Vww/FcgFpaWUsAWrqbkFxkaG8PdVLHpExsNUefBmAnHxF1CQVwDfQF/4evneswKlrb0V3+7+Bl7+Pnx8iDAoBQKB4P5ntFGPMIbkg84fzaSnCKtAuQijUiCYBMgQbGvvwOw5s2FqbCbZK5gOUFpyX18v9PX072lDjKLipeVlsLe1FRkVAoFAIBAI7irCqBQIBAKBQCAQCAQCgdyIRj0CgUAgEAgEAoFAIJAT4P8DXou+2sybJfkAAAAASUVORK5CYII=;resizable=1;resizeWidth=1;resizeHeight=1;" parent="1" vertex="1">
          <mxGeometry x="583.7713333333334" y="176.1346153846154" width="125.562" height="48.46153846153846" as="geometry" />
        </mxCell>
        <mxCell id="3OM55Z72-CLRfWCX4Hlg-30" value="" style="endArrow=none;dashed=1;html=1;strokeWidth=1;rounded=0;exitX=0.031;exitY=0.046;exitDx=0;exitDy=0;exitPerimeter=0;" parent="1" source="AxnHTcRbgYz9WPQpLdVK-1" edge="1">
          <mxGeometry width="50" height="50" relative="1" as="geometry">
            <mxPoint x="160" y="424.8387096774194" as="sourcePoint" />
            <mxPoint x="426" y="326.0483870967742" as="targetPoint" />
          </mxGeometry>
        </mxCell>
        <mxCell id="3OM55Z72-CLRfWCX4Hlg-31" value="" style="endArrow=none;dashed=1;html=1;strokeWidth=1;rounded=0;exitX=0.93;exitY=0.009;exitDx=0;exitDy=0;exitPerimeter=0;" parent="1" source="AxnHTcRbgYz9WPQpLdVK-1" edge="1">
          <mxGeometry width="50" height="50" relative="1" as="geometry">
            <mxPoint x="650" y="436.12903225806457" as="sourcePoint" />
            <mxPoint x="573.33" y="328.70161290322585" as="targetPoint" />
            <Array as="points">
              <mxPoint x="600" y="380" />
            </Array>
          </mxGeometry>
        </mxCell>
        <mxCell id="3OM55Z72-CLRfWCX4Hlg-48" value="&lt;font face=&quot;Times New Roman&quot; style=&quot;font-size: 7px;&quot;&gt;&lt;b&gt;Score Block&lt;/b&gt;&lt;/font&gt;" style="rounded=1;whiteSpace=wrap;html=1;" parent="1" vertex="1">
          <mxGeometry x="358.70000000000005" y="169.36774193548388" width="48.2" height="28.225806451612907" as="geometry" />
        </mxCell>
        <mxCell id="3OM55Z72-CLRfWCX4Hlg-49" value="" style="endArrow=none;dashed=1;html=1;rounded=0;entryX=0.25;entryY=1;entryDx=0;entryDy=0;exitX=0.858;exitY=0.001;exitDx=0;exitDy=0;exitPerimeter=0;" parent="1" source="3OM55Z72-CLRfWCX4Hlg-50" target="3OM55Z72-CLRfWCX4Hlg-48" edge="1">
          <mxGeometry width="50" height="50" relative="1" as="geometry">
            <mxPoint x="320" y="400" as="sourcePoint" />
            <mxPoint x="358.7" y="296.06" as="targetPoint" />
          </mxGeometry>
        </mxCell>
        <mxCell id="Y-DCmwbjRlBoXEvh0h---4" value="" style="edgeStyle=orthogonalEdgeStyle;rounded=0;orthogonalLoop=1;jettySize=auto;html=1;endArrow=none;endFill=0;" edge="1" parent="1" source="nwkMJYXN-5Y0sbUIoPYy-69">
          <mxGeometry relative="1" as="geometry">
            <mxPoint x="331.3026666666667" y="211.06230769230774" as="targetPoint" />
            <Array as="points">
              <mxPoint x="290" y="300" />
              <mxPoint x="290" y="211" />
            </Array>
          </mxGeometry>
        </mxCell>
        <mxCell id="nwkMJYXN-5Y0sbUIoPYy-82" value="&lt;font style=&quot;font-size: 10px;&quot; face=&quot;Times New Roman&quot;&gt;&lt;b style=&quot;&quot;&gt;Embedding Layer&lt;/b&gt;&lt;/font&gt;" style="rounded=1;whiteSpace=wrap;html=1;strokeColor=none;movable=1;resizable=1;rotatable=1;deletable=1;editable=1;locked=0;connectable=1;" parent="1" vertex="1">
          <mxGeometry x="207.5" y="204.41" width="73.97" height="20.19" as="geometry" />
        </mxCell>
      </root>
    </mxGraphModel>
  </diagram>
  <diagram id="XMMwgE9YxtaKyMAt7YU3" name="第 2 页">
    <mxGraphModel dx="819" dy="478" grid="1" gridSize="10" guides="1" tooltips="1" connect="1" arrows="1" fold="1" page="1" pageScale="1" pageWidth="1169" pageHeight="827" math="0" shadow="0">
      <root>
        <mxCell id="0" />
        <mxCell id="1" parent="0" />
        <mxCell id="C5jt5WpnQvkWuvBEOx4a-1" value="" style="group" parent="1" vertex="1" connectable="0">
          <mxGeometry x="210" y="200" width="510" height="120" as="geometry" />
        </mxCell>
        <mxCell id="9706FJNhQ8mABoNHO4Sb-1" value="" style="group" parent="C5jt5WpnQvkWuvBEOx4a-1" vertex="1" connectable="0">
          <mxGeometry x="287.8008298755187" y="12" width="222.19917012448133" height="96" as="geometry" />
        </mxCell>
        <mxCell id="9706FJNhQ8mABoNHO4Sb-2" value="" style="rounded=1;whiteSpace=wrap;html=1;" parent="9706FJNhQ8mABoNHO4Sb-1" vertex="1">
          <mxGeometry width="222.19917012448133" height="96" as="geometry" />
        </mxCell>
        <mxCell id="9706FJNhQ8mABoNHO4Sb-3" value="" style="rounded=1;whiteSpace=wrap;html=1;dashed=1;" parent="9706FJNhQ8mABoNHO4Sb-1" vertex="1">
          <mxGeometry x="63.48547717842324" y="12" width="148.13278008298755" height="72" as="geometry" />
        </mxCell>
        <mxCell id="9706FJNhQ8mABoNHO4Sb-4" value="&lt;span style=&quot;font-size: 7px;&quot;&gt;&lt;font face=&quot;Times New Roman&quot;&gt;&lt;b&gt;State of charge&lt;/b&gt;&lt;/font&gt;&lt;/span&gt;&lt;div&gt;&lt;span style=&quot;font-size: 7px;&quot;&gt;&lt;font face=&quot;Times New Roman&quot;&gt;&lt;b&gt;SOC&lt;/b&gt;&lt;/font&gt;&lt;/span&gt;&lt;/div&gt;" style="rounded=1;whiteSpace=wrap;html=1;strokeWidth=0;strokeColor=none;align=center;" parent="9706FJNhQ8mABoNHO4Sb-1" vertex="1">
          <mxGeometry x="7.406639004149378" y="40.8" width="52.9045643153527" height="14.399999999999999" as="geometry" />
        </mxCell>
        <mxCell id="9706FJNhQ8mABoNHO4Sb-5" value="" style="curved=1;endArrow=none;html=1;rounded=0;exitX=0.025;exitY=0.05;exitDx=0;exitDy=0;exitPerimeter=0;endFill=0;entryX=0.994;entryY=0.933;entryDx=0;entryDy=0;entryPerimeter=0;strokeColor=#E3625D;" parent="9706FJNhQ8mABoNHO4Sb-1" source="9706FJNhQ8mABoNHO4Sb-3" target="9706FJNhQ8mABoNHO4Sb-3" edge="1">
          <mxGeometry width="50" height="50" relative="1" as="geometry">
            <mxPoint x="67.3369294605809" y="18.91199999999999" as="sourcePoint" />
            <mxPoint x="211.6182572614108" y="77.08800000000001" as="targetPoint" />
            <Array as="points">
              <mxPoint x="84.64730290456431" y="24" />
              <mxPoint x="95.22821576763485" y="24" />
              <mxPoint x="105.8091286307054" y="24" />
              <mxPoint x="118.31576763485477" y="36" />
              <mxPoint x="130.67427385892117" y="48.432000000000016" />
              <mxPoint x="162.4170124481328" y="48.432000000000016" />
              <mxPoint x="194.1597510373444" y="72.43200000000002" />
            </Array>
          </mxGeometry>
        </mxCell>
        <mxCell id="9706FJNhQ8mABoNHO4Sb-6" value="" style="shape=flexArrow;endArrow=classic;html=1;rounded=0;" parent="C5jt5WpnQvkWuvBEOx4a-1" edge="1">
          <mxGeometry width="50" height="50" relative="1" as="geometry">
            <mxPoint x="226.43153526970957" y="59.66400000000003" as="sourcePoint" />
            <mxPoint x="279.33609958506224" y="60.01200000000002" as="targetPoint" />
          </mxGeometry>
        </mxCell>
        <mxCell id="9706FJNhQ8mABoNHO4Sb-7" value="" style="group" parent="C5jt5WpnQvkWuvBEOx4a-1" vertex="1" connectable="0">
          <mxGeometry width="222.19917012448133" height="120" as="geometry" />
        </mxCell>
        <mxCell id="9706FJNhQ8mABoNHO4Sb-8" value="" style="rounded=1;whiteSpace=wrap;html=1;container=0;" parent="9706FJNhQ8mABoNHO4Sb-7" vertex="1">
          <mxGeometry width="222.19917012448133" height="120" as="geometry" />
        </mxCell>
        <mxCell id="9706FJNhQ8mABoNHO4Sb-9" value="" style="rounded=1;whiteSpace=wrap;html=1;verticalAlign=middle;dashed=1;container=0;" parent="9706FJNhQ8mABoNHO4Sb-7" vertex="1">
          <mxGeometry x="52.9045643153527" y="12" width="159.18983402489624" height="24" as="geometry" />
        </mxCell>
        <mxCell id="9706FJNhQ8mABoNHO4Sb-10" value="" style="rounded=1;whiteSpace=wrap;html=1;verticalAlign=middle;dashed=1;container=0;" parent="9706FJNhQ8mABoNHO4Sb-7" vertex="1">
          <mxGeometry x="52.9045643153527" y="48" width="159.18983402489624" height="24" as="geometry" />
        </mxCell>
        <mxCell id="9706FJNhQ8mABoNHO4Sb-11" value="" style="rounded=1;whiteSpace=wrap;html=1;verticalAlign=middle;dashed=1;container=0;" parent="9706FJNhQ8mABoNHO4Sb-7" vertex="1">
          <mxGeometry x="52.9045643153527" y="84" width="159.18983402489624" height="24" as="geometry" />
        </mxCell>
        <mxCell id="9706FJNhQ8mABoNHO4Sb-12" value="" style="curved=1;endArrow=none;html=1;rounded=0;endFill=0;startArrow=none;startFill=0;entryX=1;entryY=0.5;entryDx=0;entryDy=0;exitX=0;exitY=0.5;exitDx=0;exitDy=0;strokeColor=#D16BA5;" parent="9706FJNhQ8mABoNHO4Sb-7" source="9706FJNhQ8mABoNHO4Sb-9" target="9706FJNhQ8mABoNHO4Sb-9" edge="1">
          <mxGeometry width="50" height="50" relative="1" as="geometry">
            <mxPoint x="60.5997736703131" y="30" as="sourcePoint" />
            <mxPoint x="161.59939645416827" y="18" as="targetPoint" />
            <Array as="points">
              <mxPoint x="70.69973594869862" y="21.599999999999998" />
              <mxPoint x="80.79969822708414" y="9.6" />
              <mxPoint x="131.2995096190117" y="33.6" />
              <mxPoint x="151.49943417578274" y="21.599999999999998" />
              <mxPoint x="181.79932101093925" y="33.6" />
            </Array>
          </mxGeometry>
        </mxCell>
        <mxCell id="9706FJNhQ8mABoNHO4Sb-13" value="" style="curved=1;endArrow=none;html=1;rounded=0;endFill=0;startArrow=none;startFill=0;entryX=1;entryY=0.5;entryDx=0;entryDy=0;exitX=0;exitY=0.5;exitDx=0;exitDy=0;strokeColor=#86A8E7;" parent="9706FJNhQ8mABoNHO4Sb-7" source="9706FJNhQ8mABoNHO4Sb-10" edge="1">
          <mxGeometry width="50" height="50" relative="1" as="geometry">
            <mxPoint x="60.5997736703131" y="58.8" as="sourcePoint" />
            <mxPoint x="212.09920784609582" y="58.8" as="targetPoint" />
            <Array as="points">
              <mxPoint x="80.79969822708414" y="60" />
              <mxPoint x="100.99962278385514" y="48" />
              <mxPoint x="111.09958506224066" y="60" />
              <mxPoint x="121.19954734062618" y="57.599999999999994" />
              <mxPoint x="131.2995096190117" y="60" />
              <mxPoint x="141.39947189739723" y="69.6" />
              <mxPoint x="161.59939645416827" y="58.8" />
              <mxPoint x="191.89928328932479" y="72" />
            </Array>
          </mxGeometry>
        </mxCell>
        <mxCell id="9706FJNhQ8mABoNHO4Sb-14" value="" style="curved=1;endArrow=none;html=1;rounded=0;endFill=0;startArrow=none;startFill=0;entryX=1;entryY=0.5;entryDx=0;entryDy=0;exitX=0;exitY=0.5;exitDx=0;exitDy=0;strokeColor=#5FFBF1;" parent="9706FJNhQ8mABoNHO4Sb-7" source="9706FJNhQ8mABoNHO4Sb-11" edge="1">
          <mxGeometry width="50" height="50" relative="1" as="geometry">
            <mxPoint x="60.5997736703131" y="94.8" as="sourcePoint" />
            <mxPoint x="212.09920784609582" y="94.8" as="targetPoint" />
            <Array as="points">
              <mxPoint x="70.69973594869862" y="92.39999999999999" />
              <mxPoint x="80.79969822708414" y="90" />
              <mxPoint x="90.89966050546963" y="94.8" />
              <mxPoint x="100.99962278385514" y="92.39999999999999" />
              <mxPoint x="121.19954734062618" y="90" />
              <mxPoint x="141.39947189739723" y="102" />
              <mxPoint x="161.59939645416827" y="90" />
              <mxPoint x="181.79932101093925" y="102" />
            </Array>
          </mxGeometry>
        </mxCell>
        <mxCell id="9706FJNhQ8mABoNHO4Sb-15" value="&lt;font face=&quot;Times New Roman&quot; style=&quot;font-size: 7px;&quot;&gt;&lt;b&gt;Voltage&lt;/b&gt;&lt;/font&gt;" style="rounded=1;whiteSpace=wrap;html=1;strokeWidth=0;strokeColor=none;align=left;container=0;" parent="9706FJNhQ8mABoNHO4Sb-7" vertex="1">
          <mxGeometry x="6.92568841946437" y="16.8" width="40.39984911354207" height="14.399999999999999" as="geometry" />
        </mxCell>
        <mxCell id="9706FJNhQ8mABoNHO4Sb-16" value="&lt;font face=&quot;Times New Roman&quot; style=&quot;font-size: 7px;&quot;&gt;&lt;b&gt;Current&lt;/b&gt;&lt;/font&gt;" style="rounded=1;whiteSpace=wrap;html=1;strokeWidth=0;strokeColor=none;align=left;container=0;" parent="9706FJNhQ8mABoNHO4Sb-7" vertex="1">
          <mxGeometry x="6.92568841946437" y="52.8" width="40.39984911354207" height="14.399999999999999" as="geometry" />
        </mxCell>
        <mxCell id="9706FJNhQ8mABoNHO4Sb-17" value="&lt;font face=&quot;Times New Roman&quot; style=&quot;font-size: 7px;&quot;&gt;&lt;b&gt;Temperature&lt;/b&gt;&lt;/font&gt;" style="rounded=1;whiteSpace=wrap;html=1;strokeWidth=0;strokeColor=none;align=left;container=0;" parent="9706FJNhQ8mABoNHO4Sb-7" vertex="1">
          <mxGeometry x="6.92568841946437" y="88.8" width="40.39984911354207" height="14.399999999999999" as="geometry" />
        </mxCell>
      </root>
    </mxGraphModel>
  </diagram>
</mxfile>
